<?xml version="1.0" encoding="utf-8"?>
<!-- Generator: Adobe Illustrator 21.1.0, SVG Export Plug-In . SVG Version: 6.00 Build 0)  -->
<svg version="1.1" id="MKTG_ICN_1" xmlns="http://www.w3.org/2000/svg" xmlns:xlink="http://www.w3.org/1999/xlink" x="0px" y="0px"
	 viewBox="0 0 1024 1024" style="enable-background:new 0 0 1024 1024;" xml:space="preserve">
<style type="text/css">
	.st0{fill:none;stroke:#65A637;stroke-width:25;stroke-miterlimit:10;}
	.st1{enable-background:new    ;}
	.st2{fill:#65A637;}
</style>
<title>Any Machine Data</title>
<circle class="st0" cx="512" cy="512" r="496.5"/>
<g class="st1">
	<path class="st2" d="M367.8,279.6c0,12.4-0.8,23-2.3,31.9c-1.5,8.9-4.3,17-8.4,24.2c-5.1,8.9-11.8,15.8-19.9,20.6
		s-17.2,7.2-27.2,7.2c-11.5,0-21.8-3.2-30.9-9.7c-9.1-6.5-16-15.5-20.6-27c-2.3-6.3-4.1-13.2-5.2-20.8c-1.1-7.6-1.6-15.8-1.6-24.6
		c0-11.4,0.6-21.7,1.8-30.8c1.2-9.1,3.1-17,5.7-23.6c4.5-10.9,10.9-19.2,19.4-24.9c8.5-5.7,18.6-8.6,30.4-8.6
		c7.8,0,14.8,1.3,21.2,3.8c6.3,2.5,11.9,6.2,16.7,11.1c4.8,4.9,8.9,10.9,12.2,18.1C364.9,239.1,367.8,256.8,367.8,279.6z
		 M336.7,277.3c0-13.8-0.8-25.1-2.5-33.9c-1.7-8.8-4.5-15.4-8.4-19.9c-3.9-4.5-9.4-6.7-16.3-6.7c-10,0-16.9,5-20.8,15.1
		c-3.9,10-5.8,25.5-5.8,46.4c0,14.2,0.8,25.8,2.5,34.9c1.7,9.1,4.5,15.9,8.4,20.6c3.9,4.6,9.2,7,16,7c6.9,0,12.4-2.4,16.3-7.2
		c3.9-4.8,6.7-11.7,8.3-20.7C336,303.7,336.7,291.9,336.7,277.3z"/>
	<path class="st2" d="M505.6,279.6c0,12.4-0.8,23-2.3,31.9c-1.5,8.9-4.3,17-8.4,24.2c-5.1,8.9-11.8,15.8-19.9,20.6
		s-17.2,7.2-27.2,7.2c-11.5,0-21.8-3.2-30.9-9.7c-9.1-6.5-16-15.5-20.6-27c-2.3-6.3-4.1-13.2-5.2-20.8c-1.1-7.6-1.6-15.8-1.6-24.6
		c0-11.4,0.6-21.7,1.8-30.8c1.2-9.1,3.1-17,5.7-23.6c4.5-10.9,10.9-19.2,19.4-24.9c8.5-5.7,18.6-8.6,30.4-8.6
		c7.8,0,14.8,1.3,21.2,3.8c6.3,2.5,11.9,6.2,16.7,11.1c4.8,4.9,8.9,10.9,12.2,18.1C502.8,239.1,505.6,256.8,505.6,279.6z
		 M474.6,277.3c0-13.8-0.8-25.1-2.5-33.9c-1.7-8.8-4.5-15.4-8.4-19.9c-3.9-4.5-9.4-6.7-16.3-6.7c-10,0-16.9,5-20.8,15.1
		c-3.9,10-5.8,25.5-5.8,46.4c0,14.2,0.8,25.8,2.5,34.9c1.7,9.1,4.5,15.9,8.4,20.6c3.9,4.6,9.2,7,16,7c6.9,0,12.4-2.4,16.3-7.2
		c3.9-4.8,6.7-11.7,8.3-20.7C473.8,303.7,474.6,291.9,474.6,277.3z"/>
	<path class="st2" d="M582.1,345.5V242.4c-19.2,14.7-32.1,22.1-38.7,22.1c-3.2,0-6-1.3-8.4-3.8c-2.5-2.5-3.7-5.5-3.7-8.8
		c0-3.9,1.2-6.7,3.6-8.5c2.4-1.8,6.7-4.2,12.8-7c9.1-4.3,16.4-8.8,21.9-13.6c5.5-4.8,10.3-10.1,14.6-16c4.2-5.9,7-9.5,8.3-10.9
		c1.3-1.4,3.7-2,7.2-2c4,0,7.2,1.5,9.6,4.6c2.4,3.1,3.6,7.4,3.6,12.8v129.7c0,15.2-5.2,22.8-15.5,22.8c-4.6,0-8.3-1.5-11.1-4.6
		C583.5,356.1,582.1,351.6,582.1,345.5z"/>
	<path class="st2" d="M781.4,279.6c0,12.4-0.8,23-2.3,31.9c-1.5,8.9-4.3,17-8.4,24.2c-5.1,8.9-11.8,15.8-19.9,20.6
		s-17.2,7.2-27.2,7.2c-11.5,0-21.8-3.2-30.9-9.7c-9.1-6.5-16-15.5-20.6-27c-2.3-6.3-4.1-13.2-5.2-20.8c-1.1-7.6-1.6-15.8-1.6-24.6
		c0-11.4,0.6-21.7,1.8-30.8c1.2-9.1,3.1-17,5.7-23.6c4.5-10.9,10.9-19.2,19.4-24.9c8.5-5.7,18.6-8.6,30.4-8.6
		c7.8,0,14.8,1.3,21.2,3.8c6.3,2.5,11.9,6.2,16.7,11.1c4.8,4.9,8.9,10.9,12.2,18.1C778.5,239.1,781.4,256.8,781.4,279.6z
		 M750.3,277.3c0-13.8-0.8-25.1-2.5-33.9c-1.7-8.8-4.5-15.4-8.4-19.9c-3.9-4.5-9.4-6.7-16.3-6.7c-10,0-16.9,5-20.8,15.1
		c-3.9,10-5.8,25.5-5.8,46.4c0,14.2,0.8,25.8,2.5,34.9c1.7,9.1,4.5,15.9,8.4,20.6c3.9,4.6,9.2,7,16,7c6.9,0,12.4-2.4,16.3-7.2
		c3.9-4.8,6.7-11.7,8.3-20.7C749.5,303.7,750.3,291.9,750.3,277.3z"/>
</g>
<g class="st1">
	<path class="st2" d="M298.9,515.9c0,12.4-0.8,23-2.3,31.9c-1.5,8.9-4.3,17-8.4,24.2c-5.1,8.9-11.8,15.8-19.9,20.6
		s-17.2,7.2-27.2,7.2c-11.5,0-21.8-3.2-30.9-9.7c-9.1-6.5-16-15.5-20.6-27c-2.3-6.3-4.1-13.2-5.2-20.8c-1.1-7.6-1.6-15.8-1.6-24.6
		c0-11.4,0.6-21.7,1.8-30.8c1.2-9.1,3.1-17,5.7-23.6c4.5-10.9,10.9-19.2,19.4-24.9c8.5-5.7,18.6-8.6,30.4-8.6
		c7.8,0,14.8,1.3,21.2,3.8c6.3,2.5,11.9,6.2,16.7,11.1c4.8,4.9,8.9,10.9,12.2,18.1C296,475.4,298.9,493.1,298.9,515.9z M267.8,513.6
		c0-13.8-0.8-25.1-2.5-33.9c-1.7-8.8-4.5-15.4-8.4-19.9c-3.9-4.5-9.4-6.7-16.3-6.7c-10,0-16.9,5-20.8,15.1
		c-3.9,10-5.8,25.5-5.8,46.4c0,14.2,0.8,25.8,2.5,34.9c1.7,9.1,4.5,15.9,8.4,20.6c3.9,4.6,9.2,7,16,7c6.9,0,12.4-2.4,16.3-7.2
		c3.9-4.8,6.7-11.7,8.3-20.7C267,540,267.8,528.2,267.8,513.6z"/>
	<path class="st2" d="M375.3,581.8V478.7c-19.2,14.7-32.1,22.1-38.7,22.1c-3.2,0-6-1.3-8.4-3.8c-2.5-2.5-3.7-5.5-3.7-8.8
		c0-3.9,1.2-6.7,3.6-8.5c2.4-1.8,6.7-4.2,12.8-7c9.1-4.3,16.4-8.8,21.9-13.6c5.5-4.8,10.3-10.1,14.6-16c4.2-5.9,7-9.5,8.3-10.9
		c1.3-1.4,3.7-2,7.2-2c4,0,7.2,1.5,9.6,4.6c2.4,3.1,3.6,7.4,3.6,12.8v129.7c0,15.2-5.2,22.8-15.5,22.8c-4.6,0-8.3-1.5-11.1-4.6
		C376.7,592.4,375.3,587.9,375.3,581.8z"/>
	<path class="st2" d="M574.6,515.9c0,12.4-0.8,23-2.3,31.9c-1.5,8.9-4.3,17-8.4,24.2c-5.1,8.9-11.8,15.8-19.9,20.6
		s-17.2,7.2-27.2,7.2c-11.5,0-21.8-3.2-30.9-9.7c-9.1-6.5-16-15.5-20.6-27c-2.3-6.3-4.1-13.2-5.2-20.8c-1.1-7.6-1.6-15.8-1.6-24.6
		c0-11.4,0.6-21.7,1.8-30.8c1.2-9.1,3.1-17,5.7-23.6c4.5-10.9,10.9-19.2,19.4-24.9c8.5-5.7,18.6-8.6,30.4-8.6
		c7.8,0,14.8,1.3,21.2,3.8c6.3,2.5,11.9,6.2,16.7,11.1c4.8,4.9,8.9,10.9,12.2,18.1C571.7,475.4,574.6,493.1,574.6,515.9z
		 M543.5,513.6c0-13.8-0.8-25.1-2.5-33.9c-1.7-8.8-4.5-15.4-8.4-19.9c-3.9-4.5-9.4-6.7-16.3-6.7c-10,0-16.9,5-20.8,15.1
		c-3.9,10-5.8,25.5-5.8,46.4c0,14.2,0.8,25.8,2.5,34.9c1.7,9.1,4.5,15.9,8.4,20.6c3.9,4.6,9.2,7,16,7c6.9,0,12.4-2.4,16.3-7.2
		c3.9-4.8,6.7-11.7,8.3-20.7C542.8,540,543.5,528.2,543.5,513.6z"/>
	<path class="st2" d="M651,581.8V478.7c-19.2,14.7-32.1,22.1-38.7,22.1c-3.2,0-6-1.3-8.4-3.8c-2.5-2.5-3.7-5.5-3.7-8.8
		c0-3.9,1.2-6.7,3.6-8.5c2.4-1.8,6.7-4.2,12.8-7c9.1-4.3,16.4-8.8,21.9-13.6c5.5-4.8,10.3-10.1,14.6-16c4.2-5.9,7-9.5,8.3-10.9
		c1.3-1.4,3.7-2,7.2-2c4,0,7.2,1.5,9.6,4.6c2.4,3.1,3.6,7.4,3.6,12.8v129.7c0,15.2-5.2,22.8-15.5,22.8c-4.6,0-8.3-1.5-11.1-4.6
		C652.4,592.4,651,587.9,651,581.8z"/>
	<path class="st2" d="M850.3,515.9c0,12.4-0.8,23-2.3,31.9c-1.5,8.9-4.3,17-8.4,24.2c-5.1,8.9-11.8,15.8-19.9,20.6
		s-17.2,7.2-27.2,7.2c-11.5,0-21.8-3.2-30.9-9.7c-9.1-6.5-16-15.5-20.6-27c-2.3-6.3-4.1-13.2-5.2-20.8c-1.1-7.6-1.6-15.8-1.6-24.6
		c0-11.4,0.6-21.7,1.8-30.8c1.2-9.1,3.1-17,5.7-23.6c4.5-10.9,10.9-19.2,19.4-24.9c8.5-5.7,18.6-8.6,30.4-8.6
		c7.8,0,14.8,1.3,21.2,3.8c6.3,2.5,11.9,6.2,16.7,11.1c4.8,4.9,8.9,10.9,12.2,18.1C847.4,475.4,850.3,493.1,850.3,515.9z
		 M819.3,513.6c0-13.8-0.8-25.1-2.5-33.9c-1.7-8.8-4.5-15.4-8.4-19.9c-3.9-4.5-9.4-6.7-16.3-6.7c-10,0-16.9,5-20.8,15.1
		c-3.9,10-5.8,25.5-5.8,46.4c0,14.2,0.8,25.8,2.5,34.9c1.7,9.1,4.5,15.9,8.4,20.6c3.9,4.6,9.2,7,16,7c6.9,0,12.4-2.4,16.3-7.2
		c3.9-4.8,6.7-11.7,8.3-20.7C818.5,540,819.3,528.2,819.3,513.6z"/>
</g>
<g class="st1">
	<path class="st2" d="M367.8,744.8c0,12.4-0.8,23-2.3,31.9c-1.5,8.9-4.3,17-8.4,24.2c-5.1,8.9-11.8,15.8-19.9,20.6
		s-17.2,7.2-27.2,7.2c-11.5,0-21.8-3.2-30.9-9.7c-9.1-6.5-16-15.5-20.6-27c-2.3-6.3-4.1-13.2-5.2-20.8c-1.1-7.6-1.6-15.8-1.6-24.6
		c0-11.4,0.6-21.7,1.8-30.8c1.2-9.1,3.1-17,5.7-23.6c4.5-10.9,10.9-19.2,19.4-24.9c8.5-5.7,18.6-8.6,30.4-8.6
		c7.8,0,14.8,1.3,21.2,3.8c6.3,2.5,11.9,6.2,16.7,11.1c4.8,4.9,8.9,10.9,12.2,18.1C364.9,704.4,367.8,722,367.8,744.8z M336.7,742.5
		c0-13.8-0.8-25.1-2.5-33.9c-1.7-8.8-4.5-15.4-8.4-19.9c-3.9-4.5-9.4-6.7-16.3-6.7c-10,0-16.9,5-20.8,15.1
		c-3.9,10-5.8,25.5-5.8,46.4c0,14.2,0.8,25.8,2.5,34.9c1.7,9.1,4.5,15.9,8.4,20.6c3.9,4.6,9.2,7,16,7c6.9,0,12.4-2.4,16.3-7.2
		c3.9-4.8,6.7-11.7,8.3-20.7C336,768.9,336.7,757.1,336.7,742.5z"/>
	<path class="st2" d="M444.2,810.7V707.7c-19.2,14.7-32.1,22.1-38.7,22.1c-3.2,0-6-1.3-8.4-3.8c-2.5-2.5-3.7-5.5-3.7-8.8
		c0-3.9,1.2-6.7,3.6-8.5c2.4-1.8,6.7-4.2,12.8-7c9.1-4.3,16.4-8.8,21.9-13.6c5.5-4.8,10.3-10.1,14.6-16c4.2-5.9,7-9.5,8.3-10.9
		c1.3-1.4,3.7-2,7.2-2c4,0,7.2,1.5,9.6,4.6c2.4,3.1,3.6,7.4,3.6,12.8v129.7c0,15.2-5.2,22.8-15.5,22.8c-4.6,0-8.3-1.5-11.1-4.6
		C445.6,821.4,444.2,816.8,444.2,810.7z"/>
	<path class="st2" d="M643.5,744.8c0,12.4-0.8,23-2.3,31.9c-1.5,8.9-4.3,17-8.4,24.2c-5.1,8.9-11.8,15.8-19.9,20.6
		s-17.2,7.2-27.2,7.2c-11.5,0-21.8-3.2-30.9-9.7c-9.1-6.5-16-15.5-20.6-27c-2.3-6.3-4.1-13.2-5.2-20.8c-1.1-7.6-1.6-15.8-1.6-24.6
		c0-11.4,0.6-21.7,1.8-30.8c1.2-9.1,3.1-17,5.7-23.6c4.5-10.9,10.9-19.2,19.4-24.9c8.5-5.7,18.6-8.6,30.4-8.6
		c7.8,0,14.8,1.3,21.2,3.8c6.3,2.5,11.9,6.2,16.7,11.1c4.8,4.9,8.9,10.9,12.2,18.1C640.6,704.4,643.5,722,643.5,744.8z M612.5,742.5
		c0-13.8-0.8-25.1-2.5-33.9c-1.7-8.8-4.5-15.4-8.4-19.9c-3.9-4.5-9.4-6.7-16.3-6.7c-10,0-16.9,5-20.8,15.1
		c-3.9,10-5.8,25.5-5.8,46.4c0,14.2,0.8,25.8,2.5,34.9c1.7,9.1,4.5,15.9,8.4,20.6c3.9,4.6,9.2,7,16,7c6.9,0,12.4-2.4,16.3-7.2
		c3.9-4.8,6.7-11.7,8.3-20.7C611.7,768.9,612.5,757.1,612.5,742.5z"/>
	<path class="st2" d="M720,810.7V707.7c-19.2,14.7-32.1,22.1-38.7,22.1c-3.2,0-6-1.3-8.4-3.8c-2.5-2.5-3.7-5.5-3.7-8.8
		c0-3.9,1.2-6.7,3.6-8.5c2.4-1.8,6.7-4.2,12.8-7c9.1-4.3,16.4-8.8,21.9-13.6c5.5-4.8,10.3-10.1,14.6-16c4.2-5.9,7-9.5,8.3-10.9
		c1.3-1.4,3.7-2,7.2-2c4,0,7.2,1.5,9.6,4.6c2.4,3.1,3.6,7.4,3.6,12.8v129.7c0,15.2-5.2,22.8-15.5,22.8c-4.6,0-8.3-1.5-11.1-4.6
		C721.4,821.4,720,816.8,720,810.7z"/>
</g>
</svg>
