<svg xmlns="http://www.w3.org/2000/svg" viewBox="0 0 428.03 225.36"><defs><style>.a,.b,.c,.e,.h,.j{fill:none;}.a,.e{stroke:#f1b540;}.a,.b,.c,.d{opacity:0.5;}.b,.h{stroke:#3aa99d;}.c,.j{stroke:#5c88ca;}.f{fill:#fff;}.g{fill:#f1b540;}.i{fill:#3aa99d;}.k{fill:#5c88ca;}.l{fill:#969696;}.m{fill:#edecec;stroke:#969696;}</style></defs><title>adc_gslb</title><path class="a" d="M43.73,115.29c103.9,0,60.79-38.25,164.69-38.25"/><path class="b" d="M43.73,115.29c103.9,0,81.89,28.76,185.79,28.76"/><path class="c" d="M43.73,115.29c86.92,0,96.68,86,145.48,86"/><g class="d"><g class="d"><path class="e" d="M208.42,77C310.95,77,312.3,6.07,412.16,4.2"/><circle class="f" cx="411.95" cy="4.26" r="3.76" transform="translate(0.01 9.12) rotate(-1.27)"/><path class="g" d="M412,8.52a4.26,4.26,0,1,1,4.16-4.35A4.26,4.26,0,0,1,412,8.52ZM411.88,1a3.26,3.26,0,1,0,3.33,3.19A3.26,3.26,0,0,0,411.88,1Z"/></g><g class="d"><path class="e" d="M208.42,77C310.95,77,312.3,8.42,412.16,6.61"/><circle class="f" cx="411.95" cy="6.67" r="3.76" transform="matrix(1, -0.02, 0.02, 1, -0.05, 8.82)"/><path class="g" d="M412,10.92a4.26,4.26,0,1,1,4.17-4.35A4.26,4.26,0,0,1,412,10.92Zm-.16-7.52a3.26,3.26,0,1,0,3.33,3.19,3.26,3.26,0,0,0-3.33-3.19Z"/></g><g class="d"><path class="e" d="M208.42,77C310.95,77,312.3,10.76,412.16,9"/><circle class="f" cx="411.95" cy="9.07" r="3.76" transform="matrix(1, -0.02, 0.02, 1, -0.1, 8.52)"/><path class="g" d="M412,13.33A4.26,4.26,0,1,1,416.21,9,4.27,4.27,0,0,1,412,13.33Zm-.16-7.52A3.26,3.26,0,1,0,415.21,9a3.26,3.26,0,0,0-3.33-3.19Z"/></g><g class="d"><path class="e" d="M208.42,77C310.95,77,312.3,13.11,412.16,11.43"/><circle class="f" cx="411.95" cy="11.48" r="3.76" transform="translate(-0.15 8.21) rotate(-1.14)"/><path class="g" d="M412,15.74a4.26,4.26,0,1,1,4.17-4.34A4.27,4.27,0,0,1,412,15.74Zm-.15-7.52a3.26,3.26,0,1,0,3.32,3.19,3.26,3.26,0,0,0-3.32-3.19Z"/></g><g class="d"><path class="e" d="M208.42,77C310.95,77,312.3,15.46,412.16,13.83"/><circle class="f" cx="411.95" cy="13.88" r="3.76" transform="translate(-0.19 7.92) rotate(-1.1)"/><path class="g" d="M412,18.14a4.26,4.26,0,1,1,4.18-4.34A4.26,4.26,0,0,1,412,18.14Zm-.14-7.52a3.26,3.26,0,1,0,3.32,3.2,3.26,3.26,0,0,0-3.32-3.2Z"/></g><g class="d"><path class="e" d="M208.42,77C310.95,77,312.3,17.8,412.16,16.24"/><circle class="f" cx="411.95" cy="16.29" r="3.76" transform="translate(-0.23 7.61) rotate(-1.06)"/><path class="g" d="M412,20.55a4.26,4.26,0,1,1,4.18-4.34A4.26,4.26,0,0,1,412,20.55ZM411.89,13a3.26,3.26,0,1,0,3.32,3.2,3.26,3.26,0,0,0-3.32-3.2Z"/></g><g class="d"><path class="e" d="M208.42,77c102.53,0,103.88-56.9,203.75-58.39"/><circle class="f" cx="411.95" cy="18.7" r="3.76" transform="translate(-0.27 7.32) rotate(-1.02)"/><path class="g" d="M412,23a4.26,4.26,0,1,1,4.18-4.33A4.27,4.27,0,0,1,412,23Zm-.13-7.52a3.26,3.26,0,1,0,3.32,3.2,3.26,3.26,0,0,0-3.32-3.2Z"/></g><g class="d"><path class="e" d="M208.42,77c102.53,0,103.88-54.55,203.75-56"/><circle class="f" cx="411.95" cy="21.1" r="3.76" transform="translate(-0.3 7.01) rotate(-0.97)"/><path class="g" d="M412,25.36A4.26,4.26,0,1,1,416.21,21,4.26,4.26,0,0,1,412,25.36Zm-.13-7.52a3.26,3.26,0,1,0,3.31,3.2,3.26,3.26,0,0,0-3.31-3.2Z"/></g><g class="d"><path class="e" d="M208.42,77c102.53,0,103.88-52.2,203.75-53.58"/><circle class="f" cx="411.95" cy="23.51" r="3.76" transform="translate(-0.33 6.72) rotate(-0.93)"/><path class="g" d="M412,27.77a4.26,4.26,0,1,1,4.19-4.33A4.27,4.27,0,0,1,412,27.77Zm-.12-7.52a3.26,3.26,0,1,0,3.31,3.21,3.26,3.26,0,0,0-3.31-3.21Z"/></g><g class="d"><path class="e" d="M208.42,77C310.95,77,312.3,27.19,412.16,25.87"/><circle class="f" cx="411.95" cy="25.91" r="3.76" transform="translate(-0.35 6.41) rotate(-0.89)"/><path class="g" d="M412,30.17a4.26,4.26,0,1,1,4.19-4.33A4.26,4.26,0,0,1,412,30.17Zm-.12-7.52a3.26,3.26,0,1,0,3.31,3.21,3.26,3.26,0,0,0-3.31-3.21Z"/></g><g class="d"><path class="e" d="M208.42,77C310.95,77,312.3,29.53,412.16,28.28"/><circle class="f" cx="411.95" cy="28.32" r="3.76" transform="translate(-0.37 6.1) rotate(-0.85)"/><path class="g" d="M412,32.58a4.26,4.26,0,1,1,4.2-4.32,4.26,4.26,0,0,1-4.2,4.32Zm-.11-7.52a3.26,3.26,0,1,0,3.31,3.21,3.26,3.26,0,0,0-3.31-3.21Z"/></g><g class="d"><path class="e" d="M208.42,77C310.95,77,312.3,31.88,412.16,30.69"/><circle class="f" cx="411.95" cy="30.73" r="3.76" transform="translate(-0.39 5.81) rotate(-0.81)"/><path class="g" d="M412,35a4.26,4.26,0,1,1,4.2-4.32A4.27,4.27,0,0,1,412,35Zm-.11-7.52a3.26,3.26,0,1,0,3.31,3.21,3.26,3.26,0,0,0-3.31-3.21Z"/></g><g class="d"><path class="e" d="M208.42,77C310.95,77,312.3,34.22,412.16,33.1"/><circle class="f" cx="411.95" cy="33.19" r="3.76" transform="translate(-0.74 11.11) rotate(-1.54)"/><path class="g" d="M412.07,37.45a4.26,4.26,0,1,1,4.14-4.37,4.27,4.27,0,0,1-4.14,4.37Zm-.2-7.52a3.26,3.26,0,1,0,3.35,3.17,3.26,3.26,0,0,0-3.35-3.17Z"/></g><g class="d"><path class="e" d="M208.42,77C310.95,77,312.3,36.57,412.16,35.51"/><circle class="f" cx="411.95" cy="35.59" r="3.76" transform="translate(-0.77 10.51) rotate(-1.46)"/><path class="g" d="M412.06,39.85a4.26,4.26,0,1,1,4.15-4.37,4.26,4.26,0,0,1-4.15,4.37Zm-.19-7.52a3.26,3.26,0,1,0,3.34,3.18,3.26,3.26,0,0,0-3.34-3.18Z"/></g><g class="d"><path class="e" d="M208.42,77C310.95,77,312.3,38.92,412.16,37.91"/><circle class="f" cx="411.95" cy="38" r="3.76" transform="translate(-0.79 9.89) rotate(-1.37)"/><path class="g" d="M412.05,42.25a4.26,4.26,0,1,1,4.16-4.36,4.27,4.27,0,0,1-4.16,4.36Zm-.18-7.52a3.26,3.26,0,1,0,3.34,3.18,3.26,3.26,0,0,0-3.34-3.18Z"/></g><g class="d"><path class="e" d="M208.42,77C310.95,77,312.3,41.26,412.16,40.32"/><circle class="f" cx="411.95" cy="40.4" r="3.76" transform="translate(-0.81 9.29) rotate(-1.29)"/><path class="g" d="M412,44.66a4.26,4.26,0,1,1,4.16-4.35A4.26,4.26,0,0,1,412,44.66Zm-.17-7.52a3.26,3.26,0,1,0,3.33,3.19,3.26,3.26,0,0,0-3.33-3.19Z"/></g><g class="d"><path class="e" d="M208.42,77C310.95,77,312.3,43.61,412.16,42.73"/><circle class="f" cx="411.95" cy="42.8" r="3.76" transform="translate(-0.81 8.68) rotate(-1.21)"/><path class="g" d="M412,47.06a4.26,4.26,0,1,1,4.17-4.35A4.26,4.26,0,0,1,412,47.06Zm-.16-7.52a3.26,3.26,0,1,0,3.33,3.19,3.26,3.26,0,0,0-3.33-3.19Z"/></g><g class="d"><path class="e" d="M208.42,77C310.95,77,312.3,46,412.16,45.14"/><circle class="f" cx="411.95" cy="45.2" r="3.76" transform="translate(-0.81 8.07) rotate(-1.12)"/><path class="g" d="M412,49.46a4.26,4.26,0,1,1,4.18-4.34A4.27,4.27,0,0,1,412,49.46Zm-.15-7.52a3.26,3.26,0,1,0,3.32,3.2,3.26,3.26,0,0,0-3.32-3.2Z"/></g><g class="d"><path class="e" d="M208.42,77C310.95,77,312.3,48.3,412.16,47.55"/><circle class="f" cx="411.95" cy="47.61" r="3.76" transform="translate(-0.79 7.46) rotate(-1.04)"/><path class="g" d="M412,51.87a4.26,4.26,0,1,1,4.18-4.34A4.26,4.26,0,0,1,412,51.87Zm-.14-7.52a3.26,3.26,0,1,0,3.32,3.2,3.26,3.26,0,0,0-3.32-3.2Z"/></g><g class="d"><path class="e" d="M208.42,77C310.95,77,312.3,50.65,412.16,50"/><circle class="f" cx="411.95" cy="50.01" r="3.76" transform="translate(-0.77 6.85) rotate(-0.95)"/><path class="g" d="M412,54.27a4.26,4.26,0,1,1,4.19-4.33A4.27,4.27,0,0,1,412,54.27Zm-.12-7.52A3.26,3.26,0,1,0,415.21,50a3.26,3.26,0,0,0-3.31-3.21Z"/></g><g class="d"><path class="e" d="M208.42,77C310.95,77,312.3,53,412.16,52.36"/><circle class="f" cx="411.95" cy="52.41" r="3.76" transform="translate(-0.75 6.24) rotate(-0.87)"/><path class="g" d="M412,56.67a4.26,4.26,0,1,1,4.19-4.32A4.26,4.26,0,0,1,412,56.67Zm-.11-7.52a3.26,3.26,0,1,0,3.31,3.21,3.26,3.26,0,0,0-3.31-3.21Z"/></g><g class="d"><path class="e" d="M208.42,77c102.53,0,103.88-21.7,203.75-22.27"/><circle class="f" cx="411.95" cy="54.82" r="3.76" transform="translate(-0.71 5.64) rotate(-0.78)"/><path class="g" d="M412,59.08a4.26,4.26,0,1,1,4.2-4.32,4.26,4.26,0,0,1-4.2,4.32Zm-.1-7.52a3.26,3.26,0,1,0,3.3,3.21,3.26,3.26,0,0,0-3.3-3.21Z"/></g><g class="d"><path class="e" d="M208.42,77C310.95,77,312.3,57.69,412.16,57.18"/><circle class="f" cx="411.95" cy="57.22" r="3.76" transform="matrix(1, -0.01, 0.01, 1, -0.67, 5.03)"/><path class="g" d="M412,61.48a4.26,4.26,0,1,1,4.21-4.31A4.27,4.27,0,0,1,412,61.48ZM411.91,54a3.26,3.26,0,1,0,3.3,3.22,3.26,3.26,0,0,0-3.3-3.22Z"/></g><g class="d"><path class="e" d="M208.42,77C310.95,77,312.3,60,412.16,59.59"/><circle class="f" cx="411.95" cy="59.62" r="3.76" transform="translate(-0.62 4.42) rotate(-0.61)"/><path class="g" d="M412,63.88a4.26,4.26,0,1,1,4.21-4.31A4.26,4.26,0,0,1,412,63.88Zm-.08-7.52a3.26,3.26,0,1,0,3.29,3.22,3.26,3.26,0,0,0-3.29-3.22Z"/></g></g><g class="d"><path class="h" d="M229.52,144.05C332,144.05,324.35,83.34,424,81.74"/><circle class="f" cx="423.77" cy="81.79" r="3.76" transform="translate(-1.48 8.06) rotate(-1.09)"/><path class="i" d="M423.85,86.05A4.26,4.26,0,1,1,428,81.71a4.26,4.26,0,0,1-4.18,4.34Zm-.14-7.52a3.26,3.26,0,1,0,3.32,3.2,3.26,3.26,0,0,0-3.32-3.2Z"/></g><g class="d"><path class="h" d="M229.52,144.05c102.53,0,94.84-58.36,194.46-59.9"/><circle class="f" cx="423.77" cy="84.2" r="3.76" transform="translate(-1.47 7.76) rotate(-1.05)"/><path class="i" d="M423.84,88.46A4.26,4.26,0,1,1,428,84.12a4.26,4.26,0,0,1-4.18,4.34Zm-.14-7.52a3.26,3.26,0,1,0,3.32,3.2,3.26,3.26,0,0,0-3.32-3.2Z"/></g><g class="d"><path class="h" d="M229.52,144.05C332,144.05,324.35,88,424,86.56"/><circle class="f" cx="423.77" cy="86.61" r="3.76" transform="translate(-1.45 7.43) rotate(-1)"/><path class="i" d="M423.84,90.86A4.26,4.26,0,1,1,428,86.53a4.27,4.27,0,0,1-4.18,4.33Zm-.13-7.52a3.26,3.26,0,1,0,3.32,3.2,3.26,3.26,0,0,0-3.32-3.2Z"/></g><g class="d"><path class="h" d="M229.52,144.05C332,144.05,324.35,90.38,424,89"/><circle class="f" cx="423.77" cy="89.01" r="3.76" transform="translate(-1.43 7.13) rotate(-0.96)"/><path class="i" d="M423.84,93.27A4.26,4.26,0,1,1,428,88.94a4.27,4.27,0,0,1-4.19,4.33Zm-.13-7.52A3.26,3.26,0,1,0,427,89a3.26,3.26,0,0,0-3.31-3.2Z"/></g><g class="d"><path class="h" d="M229.52,144.05C332,144.05,324.35,92.73,424,91.38"/><circle class="f" cx="423.77" cy="91.42" r="3.76" transform="translate(-1.41 6.81) rotate(-0.92)"/><path class="i" d="M423.83,95.68A4.26,4.26,0,1,1,428,91.35a4.26,4.26,0,0,1-4.19,4.33Zm-.12-7.52A3.26,3.26,0,1,0,427,91.37a3.26,3.26,0,0,0-3.31-3.21Z"/></g><g class="d"><path class="h" d="M229.52,144.05c102.53,0,94.84-49,194.46-50.27"/><circle class="f" cx="423.77" cy="93.82" r="3.76" transform="translate(-1.39 6.51) rotate(-0.88)"/><path class="i" d="M423.83,98.08A4.26,4.26,0,1,1,428,93.76a4.26,4.26,0,0,1-4.19,4.32Zm-.12-7.52A3.26,3.26,0,1,0,427,93.77a3.26,3.26,0,0,0-3.31-3.21Z"/></g><g class="d"><path class="h" d="M229.52,144.05C332,144.05,324.35,97.42,424,96.19"/><circle class="f" cx="423.77" cy="96.23" r="3.76" transform="translate(-1.36 6.19) rotate(-0.84)"/><path class="i" d="M423.83,100.49a4.26,4.26,0,1,1,4.2-4.32,4.26,4.26,0,0,1-4.2,4.32ZM423.72,93A3.26,3.26,0,1,0,427,96.18,3.26,3.26,0,0,0,423.72,93Z"/></g><g class="d"><path class="h" d="M229.52,144.05C332,144.05,324.35,99.77,424,98.6"/><circle class="f" cx="423.77" cy="98.64" r="3.76" transform="translate(-1.33 5.88) rotate(-0.79)"/><path class="i" d="M423.83,102.9a4.26,4.26,0,1,1,4.2-4.32,4.27,4.27,0,0,1-4.2,4.32Zm-.1-7.52a3.26,3.26,0,1,0,3.3,3.21,3.26,3.26,0,0,0-3.3-3.21Z"/></g><g class="d"><path class="h" d="M229.52,144.05c102.53,0,94.84-41.94,194.46-43"/><circle class="f" cx="423.77" cy="101.1" r="3.76" transform="translate(-2.54 11.29) rotate(-1.52)"/><path class="i" d="M423.88,105.36A4.26,4.26,0,1,1,428,101a4.26,4.26,0,0,1-4.15,4.37Zm-.2-7.52A3.26,3.26,0,1,0,427,101a3.26,3.26,0,0,0-3.35-3.17Z"/></g><g class="d"><path class="h" d="M229.52,144.05c102.53,0,94.84-39.59,194.46-40.63"/><circle class="f" cx="423.77" cy="103.5" r="3.76" transform="translate(-2.46 10.65) rotate(-1.44)"/><path class="i" d="M423.87,107.76A4.26,4.26,0,1,1,428,103.4a4.26,4.26,0,0,1-4.15,4.36Zm-.19-7.52a3.26,3.26,0,1,0,3.34,3.18,3.26,3.26,0,0,0-3.34-3.18Z"/></g><g class="d"><path class="h" d="M229.52,144.05c102.53,0,94.84-37.25,194.46-38.23"/><circle class="f" cx="423.77" cy="105.91" r="3.76" transform="translate(-2.38 10.03) rotate(-1.35)"/><path class="i" d="M423.87,110.16A4.26,4.26,0,1,1,428,105.8a4.26,4.26,0,0,1-4.16,4.36Zm-.18-7.52a3.26,3.26,0,1,0,3.34,3.18,3.26,3.26,0,0,0-3.34-3.18Z"/></g><g class="d"><path class="h" d="M229.52,144.05c102.53,0,94.84-34.9,194.46-35.82"/><circle class="f" cx="423.77" cy="108.31" r="3.76" transform="translate(-2.29 9.38) rotate(-1.27)"/><path class="i" d="M423.86,112.57a4.26,4.26,0,1,1,4.16-4.35,4.26,4.26,0,0,1-4.16,4.35ZM423.7,105a3.26,3.26,0,1,0,3.33,3.19A3.26,3.26,0,0,0,423.7,105Z"/></g><g class="d"><path class="h" d="M229.52,144.05c102.53,0,94.84-32.55,194.46-33.41"/><circle class="f" cx="423.77" cy="110.71" r="3.76" transform="translate(-2.19 8.76) rotate(-1.18)"/><path class="i" d="M423.85,115a4.26,4.26,0,1,1,4.17-4.35,4.27,4.27,0,0,1-4.17,4.35Zm-.16-7.52a3.26,3.26,0,1,0,3.33,3.19,3.26,3.26,0,0,0-3.33-3.19Z"/></g><g class="d"><path class="h" d="M229.52,144.05c102.53,0,94.84-30.21,194.46-31"/><circle class="f" cx="423.77" cy="113.11" r="3.76" transform="translate(-2.09 8.12) rotate(-1.1)"/><path class="i" d="M423.85,117.37A4.26,4.26,0,1,1,428,113a4.26,4.26,0,0,1-4.18,4.34Zm-.14-7.52a3.26,3.26,0,1,0,3.32,3.2,3.26,3.26,0,0,0-3.32-3.2Z"/></g><g class="d"><path class="h" d="M229.52,144.05c102.53,0,94.84-27.86,194.46-28.59"/><circle class="f" cx="423.77" cy="115.52" r="3.76" transform="translate(-1.97 7.49) rotate(-1.01)"/><path class="i" d="M423.84,119.78a4.26,4.26,0,1,1,4.18-4.33,4.26,4.26,0,0,1-4.18,4.33Zm-.13-7.52a3.26,3.26,0,1,0,3.32,3.2,3.26,3.26,0,0,0-3.32-3.2Z"/></g><g class="d"><path class="h" d="M229.52,144.05c102.53,0,94.84-25.51,194.46-26.19"/><circle class="f" cx="423.77" cy="117.92" r="3.76" transform="translate(-1.85 6.87) rotate(-0.93)"/><path class="i" d="M423.84,122.18a4.26,4.26,0,1,1,4.19-4.33,4.27,4.27,0,0,1-4.19,4.33Zm-.12-7.52a3.26,3.26,0,1,0,3.31,3.21,3.26,3.26,0,0,0-3.31-3.21Z"/></g><g class="d"><path class="h" d="M229.52,144.05c102.53,0,94.84-23.17,194.46-23.78"/><circle class="f" cx="423.77" cy="120.32" r="3.76" transform="translate(-1.72 6.23) rotate(-0.84)"/><path class="i" d="M423.83,124.58a4.26,4.26,0,1,1,4.2-4.32,4.27,4.27,0,0,1-4.2,4.32Zm-.11-7.52a3.26,3.26,0,1,0,3.31,3.21,3.26,3.26,0,0,0-3.31-3.21Z"/></g><g class="d"><path class="h" d="M229.52,144.05c102.53,0,94.84-20.82,194.46-21.37"/><circle class="f" cx="423.77" cy="122.72" r="3.76" transform="translate(-1.58 5.6) rotate(-0.76)"/><path class="i" d="M423.82,127a4.26,4.26,0,1,1,4.2-4.32,4.27,4.27,0,0,1-4.2,4.32Zm-.1-7.52a3.26,3.26,0,1,0,3.3,3.22,3.26,3.26,0,0,0-3.3-3.22Z"/></g><g class="d"><path class="h" d="M229.52,144.05c102.53,0,94.84-18.48,194.46-19"/><circle class="f" cx="423.77" cy="125.13" r="3.76" transform="translate(-1.43 4.96) rotate(-0.67)"/><path class="i" d="M423.82,129.39a4.26,4.26,0,1,1,4.21-4.31,4.26,4.26,0,0,1-4.21,4.31Zm-.09-7.52a3.26,3.26,0,1,0,3.3,3.22,3.26,3.26,0,0,0-3.3-3.22Z"/></g><g class="d"><path class="h" d="M229.52,144.05c102.53,0,94.84-16.13,194.46-16.55"/><circle class="f" cx="423.77" cy="127.53" r="3.76" transform="matrix(1, -0.01, 0.01, 1, -1.28, 4.34)"/><path class="i" d="M423.81,131.79a4.26,4.26,0,1,1,4.22-4.3,4.26,4.26,0,0,1-4.22,4.3Zm-.08-7.52A3.26,3.26,0,1,0,427,127.5a3.26,3.26,0,0,0-3.29-3.23Z"/></g><g class="d"><path class="h" d="M229.52,144.05c102.53,0,94.84-13.78,194.46-14.15"/><circle class="f" cx="423.77" cy="129.97" r="3.76" transform="translate(-2.25 7.57) rotate(-1.02)"/><path class="i" d="M423.84,134.23A4.26,4.26,0,1,1,428,129.9a4.26,4.26,0,0,1-4.18,4.33Zm-.13-7.52a3.26,3.26,0,1,0,3.32,3.2,3.26,3.26,0,0,0-3.32-3.2Z"/></g><g class="d"><path class="h" d="M229.52,144.05c102.53,0,94.84-11.44,194.46-11.74"/><circle class="f" cx="423.77" cy="132.37" r="3.76" transform="translate(-1.91 6.29) rotate(-0.85)"/><path class="i" d="M423.83,136.63a4.26,4.26,0,1,1,4.2-4.32,4.26,4.26,0,0,1-4.2,4.32Zm-.11-7.52a3.26,3.26,0,1,0,3.31,3.21,3.26,3.26,0,0,0-3.31-3.21Z"/></g><g class="d"><path class="h" d="M229.52,144.05c102.53,0,94.84-9.09,194.46-9.33"/><circle class="f" cx="423.77" cy="134.76" r="3.76" transform="translate(-1.55 4.99) rotate(-0.67)"/><path class="i" d="M423.82,139a4.26,4.26,0,1,1,4.21-4.31,4.26,4.26,0,0,1-4.21,4.31Zm-.09-7.52a3.26,3.26,0,1,0,3.3,3.22,3.26,3.26,0,0,0-3.3-3.22Z"/></g><g class="d"><path class="h" d="M229.52,144.05c102.53,0,94.84-6.75,194.46-6.92"/><circle class="f" cx="423.77" cy="137.16" r="3.76" transform="translate(-1.18 3.71) rotate(-0.5)"/><path class="i" d="M423.8,141.42a4.26,4.26,0,1,1,4.22-4.3,4.27,4.27,0,0,1-4.22,4.3Zm-.07-7.52a3.26,3.26,0,1,0,3.29,3.23,3.26,3.26,0,0,0-3.29-3.23Z"/></g><g class="d"><path class="h" d="M229.52,144.05c102.53,0,94.84-4.4,194.46-4.51"/><circle class="f" cx="423.77" cy="139.58" r="3.76" transform="translate(-1.61 4.98) rotate(-0.67)"/><path class="i" d="M423.82,143.84a4.26,4.26,0,1,1,4.21-4.31,4.27,4.27,0,0,1-4.21,4.31Zm-.09-7.52a3.26,3.26,0,1,0,3.3,3.22,3.26,3.26,0,0,0-3.3-3.22Z"/></g><g class="d"><path class="h" d="M229.52,144.05c102.53,0,94.84-2.05,194.46-2.11"/><circle class="f" cx="423.77" cy="141.97" r="3.76" transform="translate(-0.77 2.31) rotate(-0.31)"/><path class="i" d="M423.79,146.23a4.26,4.26,0,1,1,4.24-4.28,4.27,4.27,0,0,1-4.24,4.28Zm0-7.52a3.26,3.26,0,1,0,3.28,3.24,3.26,3.26,0,0,0-3.28-3.24Z"/></g><g class="d"><path class="h" d="M229.52,144.05c102.53,0,94.84.29,194.46.3"/><circle class="f" cx="423.77" cy="144.35" r="3.76" transform="translate(278.77 567.89) rotate(-89.91)"/><path class="i" d="M423.76,148.61a4.26,4.26,0,1,1,4.27-4.25,4.26,4.26,0,0,1-4.27,4.25Zm0-7.52a3.26,3.26,0,1,0,3.25,3.26,3.26,3.26,0,0,0-3.25-3.26Z"/></g><g class="d"><path class="h" d="M229.52,144.05c102.53,0,94.84,2.64,194.46,2.71"/><circle class="f" cx="423.77" cy="146.73" r="3.76" transform="translate(274.07 569.46) rotate(-89.6)"/><path class="i" d="M423.74,151a4.26,4.26,0,1,1,4.29-4.23,4.27,4.27,0,0,1-4.29,4.23Zm.05-7.52a3.26,3.26,0,1,0,3.24,3.28,3.26,3.26,0,0,0-3.24-3.28Z"/></g><g class="d"><path class="h" d="M229.52,144.05c102.53,0,94.84,5,194.46,5.12"/><circle class="f" cx="423.77" cy="149.11" r="3.76" transform="translate(269.04 570.86) rotate(-89.24)"/><path class="i" d="M423.71,153.37a4.26,4.26,0,1,1,4.32-4.2,4.26,4.26,0,0,1-4.32,4.2Zm.1-7.52a3.26,3.26,0,1,0,3.22,3.3,3.26,3.26,0,0,0-3.22-3.3Z"/></g><g class="d"><path class="h" d="M229.52,144.05c102.53,0,94.84,7.33,194.46,7.52"/><circle class="f" cx="423.77" cy="151.54" r="3.76" transform="translate(268.2 573.84) rotate(-89.45)"/><path class="i" d="M423.73,155.8a4.26,4.26,0,1,1,4.3-4.22,4.27,4.27,0,0,1-4.3,4.22Zm.07-7.52a3.26,3.26,0,1,0,3.23,3.29,3.26,3.26,0,0,0-3.23-3.29Z"/></g><g class="d"><path class="h" d="M229.52,144.05c102.53,0,94.84,9.68,194.46,9.93"/><circle class="f" cx="423.77" cy="153.93" r="3.76" transform="translate(264.53 575.74) rotate(-89.28)"/><path class="i" d="M423.71,158.19A4.26,4.26,0,1,1,428,154a4.26,4.26,0,0,1-4.31,4.21Zm.09-7.52A3.26,3.26,0,1,0,427,154a3.26,3.26,0,0,0-3.22-3.3Z"/></g><g class="d"><path class="h" d="M229.52,144.05c102.53,0,94.84,12,194.46,12.34"/><circle class="f" cx="423.77" cy="156.33" r="3.76" transform="translate(260.86 577.62) rotate(-89.11)"/><path class="i" d="M423.7,160.59A4.26,4.26,0,1,1,428,156.4a4.26,4.26,0,0,1-4.33,4.19Zm.12-7.52a3.26,3.26,0,1,0,3.21,3.31,3.26,3.26,0,0,0-3.21-3.31Z"/></g><g class="d"><path class="h" d="M229.52,144.05c102.53,0,94.84,14.37,194.46,14.75"/><circle class="f" cx="423.77" cy="158.73" r="3.76" transform="translate(257.18 579.47) rotate(-88.93)"/><path class="i" d="M423.69,163a4.26,4.26,0,1,1,4.34-4.18,4.26,4.26,0,0,1-4.34,4.18Zm.14-7.52a3.26,3.26,0,1,0,3.2,3.32,3.26,3.26,0,0,0-3.2-3.32Z"/></g><g class="d"><path class="h" d="M229.52,144.05c102.53,0,94.84,16.72,194.46,17.16"/><circle class="f" cx="423.77" cy="161.17" r="3.76" transform="translate(258.12 583.21) rotate(-89.39)"/><path class="i" d="M423.72,165.43a4.26,4.26,0,1,1,4.3-4.21,4.26,4.26,0,0,1-4.3,4.21Zm.08-7.52a3.26,3.26,0,1,0,3.23,3.29,3.26,3.26,0,0,0-3.23-3.29Z"/></g><g class="d"><path class="h" d="M229.52,144.05c102.53,0,94.84,19.06,194.46,19.56"/><circle class="f" cx="423.77" cy="163.57" r="3.76" transform="translate(255.09 585.33) rotate(-89.31)"/><path class="i" d="M423.71,167.83a4.26,4.26,0,1,1,4.31-4.21,4.26,4.26,0,0,1-4.31,4.21Zm.09-7.52a3.26,3.26,0,1,0,3.22,3.3,3.26,3.26,0,0,0-3.22-3.3Z"/></g><g class="d"><path class="h" d="M229.52,144.05c102.53,0,94.84,21.41,194.46,22"/><circle class="f" cx="423.77" cy="165.98" r="3.76" transform="translate(252.07 587.46) rotate(-89.22)"/><path class="i" d="M423.71,170.24A4.26,4.26,0,1,1,428,166a4.26,4.26,0,0,1-4.32,4.2Zm.1-7.52A3.26,3.26,0,1,0,427,166a3.26,3.26,0,0,0-3.22-3.3Z"/></g><g class="d"><path class="h" d="M229.52,144.05c102.53,0,94.84,23.75,194.46,24.38"/><circle class="f" cx="423.77" cy="168.38" r="3.76" transform="translate(249.04 589.57) rotate(-89.14)"/><path class="i" d="M423.7,172.64a4.26,4.26,0,1,1,4.32-4.2,4.26,4.26,0,0,1-4.32,4.2Zm.11-7.52a3.26,3.26,0,1,0,3.21,3.31,3.26,3.26,0,0,0-3.21-3.31Z"/></g><g class="d"><path class="h" d="M229.52,144.05c102.53,0,94.84,26.1,194.46,26.79"/><circle class="f" cx="423.77" cy="170.78" r="3.76" transform="translate(246 591.67) rotate(-89.05)"/><path class="i" d="M423.7,175a4.26,4.26,0,1,1,4.33-4.19A4.27,4.27,0,0,1,423.7,175Zm.12-7.52a3.26,3.26,0,1,0,3.21,3.31,3.26,3.26,0,0,0-3.21-3.31Z"/></g><g class="d"><path class="h" d="M229.52,144.05c102.53,0,94.84,28.45,194.46,29.2"/><circle class="f" cx="423.77" cy="173.19" r="3.76" transform="matrix(0.02, -1, 1, 0.02, 242.97, 593.76)"/><path class="i" d="M423.69,177.44a4.26,4.26,0,1,1,4.34-4.18,4.26,4.26,0,0,1-4.34,4.18Zm.14-7.52a3.26,3.26,0,1,0,3.2,3.32,3.26,3.26,0,0,0-3.2-3.32Z"/></g><g class="d"><path class="h" d="M229.52,144.05c102.53,0,94.84,30.79,194.46,31.6"/><circle class="f" cx="423.77" cy="175.59" r="3.76" transform="matrix(0.02, -1, 1, 0.02, 239.96, 595.85)"/><path class="i" d="M423.68,179.85a4.26,4.26,0,1,1,4.34-4.18,4.27,4.27,0,0,1-4.34,4.18Zm.15-7.52a3.26,3.26,0,1,0,3.2,3.32,3.26,3.26,0,0,0-3.2-3.32Z"/></g><g class="d"><path class="h" d="M229.52,144.05c102.53,0,94.84,33.14,194.46,34"/><circle class="f" cx="423.77" cy="177.99" r="3.76" transform="translate(236.91 597.93) rotate(-88.8)"/><path class="i" d="M423.68,182.25a4.26,4.26,0,1,1,4.35-4.17,4.26,4.26,0,0,1-4.35,4.17Zm.16-7.52a3.26,3.26,0,1,0,3.19,3.33,3.26,3.26,0,0,0-3.19-3.33Z"/></g><g class="d"><path class="h" d="M229.52,144.05c102.53,0,94.84,35.49,194.46,36.42"/><circle class="f" cx="423.77" cy="180.39" r="3.76" transform="translate(233.9 600) rotate(-88.71)"/><path class="i" d="M423.67,184.65a4.26,4.26,0,1,1,4.35-4.16,4.26,4.26,0,0,1-4.35,4.16Zm.17-7.52a3.26,3.26,0,1,0,3.19,3.33,3.26,3.26,0,0,0-3.19-3.33Z"/></g><g class="d"><path class="j" d="M189.21,201.27c102.52,0,69.67-15.83,168.62-16.25"/><circle class="f" cx="357.62" cy="185.05" r="3.76" transform="translate(-1.87 3.66) rotate(-0.58)"/><path class="k" d="M357.66,189.31a4.26,4.26,0,1,1,4.22-4.3,4.26,4.26,0,0,1-4.22,4.3Zm-.08-7.52a3.26,3.26,0,1,0,3.29,3.23,3.26,3.26,0,0,0-3.29-3.23Z"/></g><g class="d"><path class="j" d="M189.21,201.27c102.52,0,69.67-13.49,168.62-13.85"/><circle class="f" cx="357.62" cy="187.49" r="3.76" transform="translate(-3.33 6.49) rotate(-1.03)"/><path class="k" d="M357.7,191.75a4.26,4.26,0,1,1,4.18-4.34,4.26,4.26,0,0,1-4.18,4.34Zm-.14-7.52a3.26,3.26,0,1,0,3.32,3.2,3.26,3.26,0,0,0-3.32-3.2Z"/></g><g class="d"><path class="j" d="M189.21,201.27c102.52,0,69.67-11.14,168.62-11.44"/><circle class="f" cx="357.62" cy="189.89" r="3.76" transform="translate(-2.79 5.35) rotate(-0.85)"/><path class="k" d="M357.68,194.15a4.26,4.26,0,1,1,4.2-4.32,4.26,4.26,0,0,1-4.2,4.32Zm-.11-7.52a3.26,3.26,0,1,0,3.31,3.21,3.26,3.26,0,0,0-3.31-3.21Z"/></g><g class="d"><path class="j" d="M189.21,201.27c102.52,0,69.67-8.8,168.62-9"/><circle class="f" cx="357.62" cy="192.28" r="3.76" transform="translate(-2.24 4.23) rotate(-0.68)"/><path class="k" d="M357.67,196.54a4.26,4.26,0,1,1,4.21-4.31,4.26,4.26,0,0,1-4.21,4.31Zm-.09-7.52a3.26,3.26,0,1,0,3.3,3.22,3.26,3.26,0,0,0-3.3-3.22Z"/></g><g class="d"><path class="j" d="M189.21,201.27c102.52,0,69.67-6.45,168.62-6.62"/><circle class="f" cx="357.62" cy="194.68" r="3.76" transform="translate(-1.67 3.1) rotate(-0.49)"/><path class="k" d="M357.65,198.94a4.26,4.26,0,1,1,4.22-4.3,4.27,4.27,0,0,1-4.22,4.3Zm-.06-7.52a3.26,3.26,0,1,0,3.29,3.23,3.26,3.26,0,0,0-3.29-3.23Z"/></g><g class="d"><path class="j" d="M189.21,201.27c102.52,0,69.67-4.1,168.62-4.21"/><circle class="f" cx="357.62" cy="197.1" r="3.76" transform="translate(-2.29 4.21) rotate(-0.67)"/><path class="k" d="M357.67,201.36a4.26,4.26,0,1,1,4.21-4.31,4.27,4.27,0,0,1-4.21,4.31Zm-.09-7.52a3.26,3.26,0,1,0,3.3,3.22,3.26,3.26,0,0,0-3.3-3.22Z"/></g><g class="d"><path class="j" d="M189.21,201.27c102.52,0,69.67-1.76,168.62-1.81"/><circle class="f" cx="357.62" cy="199.48" r="3.76" transform="translate(-1 1.8) rotate(-0.29)"/><path class="k" d="M357.64,203.74a4.26,4.26,0,1,1,4.24-4.28,4.27,4.27,0,0,1-4.24,4.28Zm0-7.52a3.26,3.26,0,1,0,3.28,3.24,3.26,3.26,0,0,0-3.28-3.24Z"/></g><g class="d"><path class="j" d="M189.21,201.27c102.52,0,69.67.59,168.62.6"/><circle class="f" cx="357.62" cy="201.86" r="3.76" transform="translate(154.51 558.76) rotate(-89.8)"/><path class="k" d="M357.6,206.12a4.26,4.26,0,1,1,4.27-4.24,4.26,4.26,0,0,1-4.27,4.24Zm0-7.52a3.26,3.26,0,1,0,3.25,3.27,3.26,3.26,0,0,0-3.25-3.27Z"/></g><g class="d"><path class="j" d="M189.21,201.27c102.52,0,69.67,2.93,168.62,3"/><circle class="f" cx="357.62" cy="204.24" r="3.76" transform="translate(150.38 560.14) rotate(-89.52)"/><path class="k" d="M357.58,208.5a4.26,4.26,0,1,1,4.3-4.22,4.27,4.27,0,0,1-4.3,4.22Zm.06-7.52a3.26,3.26,0,1,0,3.23,3.29,3.26,3.26,0,0,0-3.23-3.29Z"/></g><g class="d"><path class="j" d="M189.21,201.27c102.52,0,69.67,5.28,168.62,5.42"/><circle class="f" cx="357.62" cy="206.66" r="3.76" transform="translate(148.44 562.81) rotate(-89.6)"/><path class="k" d="M357.59,210.92a4.26,4.26,0,1,1,4.29-4.23,4.26,4.26,0,0,1-4.29,4.23Zm.05-7.52a3.26,3.26,0,1,0,3.24,3.28,3.26,3.26,0,0,0-3.24-3.28Z"/></g><g class="d"><path class="j" d="M189.21,201.27c102.52,0,69.67,7.62,168.62,7.83"/><circle class="f" cx="357.62" cy="209.06" r="3.76" transform="translate(144.93 564.52) rotate(-89.42)"/><path class="k" d="M357.57,213.32a4.26,4.26,0,1,1,4.3-4.22,4.27,4.27,0,0,1-4.3,4.22Zm.08-7.52a3.26,3.26,0,1,0,3.23,3.29,3.26,3.26,0,0,0-3.23-3.29Z"/></g><g class="d"><path class="j" d="M189.21,201.27c102.52,0,69.67,10,168.62,10.23"/><circle class="f" cx="357.62" cy="211.45" r="3.76" transform="translate(141.41 566.22) rotate(-89.24)"/><path class="k" d="M357.56,215.71a4.26,4.26,0,1,1,4.32-4.2,4.26,4.26,0,0,1-4.32,4.2Zm.1-7.52a3.26,3.26,0,1,0,3.22,3.3,3.26,3.26,0,0,0-3.22-3.3Z"/></g><g class="d"><path class="j" d="M189.21,201.27c102.52,0,69.67,12.32,168.62,12.64"/><circle class="f" cx="357.62" cy="213.85" r="3.76" transform="matrix(0.02, -1, 1, 0.02, 137.91, 567.9)"/><path class="k" d="M357.55,218.11a4.26,4.26,0,1,1,4.33-4.19,4.26,4.26,0,0,1-4.33,4.19Zm.12-7.52a3.26,3.26,0,1,0,3.21,3.31,3.26,3.26,0,0,0-3.21-3.31Z"/></g><g class="d"><path class="j" d="M189.21,201.27c102.52,0,69.67,14.66,168.62,15"/><circle class="f" cx="357.62" cy="216.29" r="3.76" transform="translate(137.97 571.85) rotate(-89.46)"/><path class="k" d="M357.58,220.55a4.26,4.26,0,1,1,4.3-4.22,4.26,4.26,0,0,1-4.3,4.22Zm.07-7.52a3.26,3.26,0,1,0,3.23,3.29,3.26,3.26,0,0,0-3.23-3.29Z"/></g><g class="d"><path class="j" d="M189.21,201.27c102.52,0,69.67,17,168.62,17.46"/><circle class="f" cx="357.62" cy="218.69" r="3.76" transform="translate(135.03 573.89) rotate(-89.37)"/><path class="k" d="M357.57,222.95a4.26,4.26,0,1,1,4.31-4.21,4.27,4.27,0,0,1-4.31,4.21Zm.08-7.52a3.26,3.26,0,1,0,3.22,3.3,3.26,3.26,0,0,0-3.22-3.3Z"/></g><g class="d"><path class="j" d="M189.21,201.27c102.52,0,69.67,19.35,168.62,19.87"/><circle class="f" cx="357.62" cy="221.09" r="3.76" transform="translate(132.1 575.93) rotate(-89.29)"/><path class="k" d="M357.56,225.35a4.26,4.26,0,1,1,4.31-4.21,4.27,4.27,0,0,1-4.31,4.21Zm.09-7.52a3.26,3.26,0,1,0,3.22,3.3,3.26,3.26,0,0,0-3.22-3.3Z"/></g><circle class="l" cx="43.73" cy="115.29" r="2.71"/><circle class="m" cx="208.42" cy="77.04" r="2.71"/><circle class="m" cx="229.52" cy="144.05" r="2.71"/><circle class="m" cx="189.21" cy="201.27" r="2.71"/><path d="M169.88,185.77v4.05H169v-10h3.39a3.57,3.57,0,0,1,2.45.79,2.75,2.75,0,0,1,.9,2.18,2.73,2.73,0,0,1-.87,2.16,3.67,3.67,0,0,1-2.5.76Zm0-.71h2.55a2.69,2.69,0,0,0,1.87-.58,2.08,2.08,0,0,0,.64-1.62,2.18,2.18,0,0,0-.64-1.65,2.55,2.55,0,0,0-1.81-.62h-2.6Z"/><path d="M180.89,183.13a3,3,0,0,0-.55,0,2,2,0,0,0-1.29.43,2.34,2.34,0,0,0-.76,1.24v5.08h-.81v-7.4h.8v1.18a2.18,2.18,0,0,1,2.09-1.31,1.35,1.35,0,0,1,.54.09Z"/><path d="M182.13,180.29a.53.53,0,0,1,.56-.55.55.55,0,0,1,.41.16.54.54,0,0,1,.15.39.52.52,0,0,1-.15.39.55.55,0,0,1-.41.16.54.54,0,0,1-.41-.16A.53.53,0,0,1,182.13,180.29Zm1,9.53h-.82v-7.4h.82Z"/><path d="M187.62,188.7l2.25-6.27h.84l-2.76,7.4h-.66l-2.78-7.4h.84Z"/><path d="M196.61,189.83a3.82,3.82,0,0,1-.16-1,2.84,2.84,0,0,1-1.1.87,3.35,3.35,0,0,1-1.41.3,2.48,2.48,0,0,1-1.72-.6,1.93,1.93,0,0,1-.66-1.5,2,2,0,0,1,.9-1.71,4.33,4.33,0,0,1,2.51-.63h1.48v-.84a1.62,1.62,0,0,0-.49-1.25,2,2,0,0,0-1.43-.46,2.23,2.23,0,0,0-1.41.44,1.3,1.3,0,0,0-.56,1.05h-.82a1.9,1.9,0,0,1,.82-1.53,3.15,3.15,0,0,1,2-.65,2.88,2.88,0,0,1,2,.62,2.22,2.22,0,0,1,.73,1.72v3.5a4.35,4.35,0,0,0,.22,1.61v.08Zm-2.57-.59a2.75,2.75,0,0,0,1.47-.4,2.32,2.32,0,0,0,.94-1.06v-1.63H195a3.66,3.66,0,0,0-1.91.45,1.34,1.34,0,0,0-.69,1.19,1.33,1.33,0,0,0,.46,1A1.74,1.74,0,0,0,194,189.24Z"/><path d="M200.72,180.53v1.89h1.53v.67h-1.53V188a1.55,1.55,0,0,0,.22.92.86.86,0,0,0,.74.3,5.19,5.19,0,0,0,.66-.07l0,.66a2.69,2.69,0,0,1-.87.12,1.47,1.47,0,0,1-1.22-.49,2.31,2.31,0,0,1-.38-1.44V183.1h-1.36v-.67h1.36v-1.89Z"/><path d="M206.81,190a3.23,3.23,0,0,1-1.71-.46,3.18,3.18,0,0,1-1.19-1.29,4.06,4.06,0,0,1-.42-1.86V186a4.35,4.35,0,0,1,.41-1.92,3.29,3.29,0,0,1,1.15-1.34,2.84,2.84,0,0,1,1.6-.49,2.67,2.67,0,0,1,2.13.92,3.72,3.72,0,0,1,.79,2.51v.46h-5.28v.16a3.1,3.1,0,0,0,.72,2.1,2.3,2.3,0,0,0,1.81.84A2.68,2.68,0,0,0,208,189a2.59,2.59,0,0,0,.91-.77l.51.39A3,3,0,0,1,206.81,190Zm-.15-7a2,2,0,0,0-1.56.68,3.13,3.13,0,0,0-.77,1.82h4.44v-.09a2.7,2.7,0,0,0-.61-1.74A1.88,1.88,0,0,0,206.66,183Z"/><path d="M221.82,186.72a3.58,3.58,0,0,1-1.12,2.41,3.73,3.73,0,0,1-2.54.83,3.51,3.51,0,0,1-2-.55,3.6,3.6,0,0,1-1.32-1.57,5.6,5.6,0,0,1-.47-2.32v-1.29a5.63,5.63,0,0,1,.46-2.35,3.56,3.56,0,0,1,1.34-1.58,3.64,3.64,0,0,1,2-.56,3.56,3.56,0,0,1,2.53.86,3.61,3.61,0,0,1,1.08,2.38H221a2.53,2.53,0,0,0-2.76-2.54,2.61,2.61,0,0,0-2.16,1,4.39,4.39,0,0,0-.8,2.8v1.22a4.42,4.42,0,0,0,.78,2.75,2.52,2.52,0,0,0,2.12,1,2.79,2.79,0,0,0,2-.63,3,3,0,0,0,.83-1.9Z"/><path d="M224.59,189.83h-.82v-10.5h.82Z"/><path d="M226.36,186a4.32,4.32,0,0,1,.41-1.92,3.1,3.1,0,0,1,2.88-1.8,3,3,0,0,1,2.39,1,4,4,0,0,1,.92,2.74v.17a4.4,4.4,0,0,1-.41,1.93,3.09,3.09,0,0,1-1.17,1.32,3.2,3.2,0,0,1-1.71.46,3,3,0,0,1-2.39-1,4,4,0,0,1-.92-2.75Zm.82.23a3.36,3.36,0,0,0,.69,2.18,2.33,2.33,0,0,0,3.6,0,3.48,3.48,0,0,0,.69-2.25V186a3.74,3.74,0,0,0-.31-1.55,2.51,2.51,0,0,0-.88-1.09,2.26,2.26,0,0,0-1.3-.39,2.19,2.19,0,0,0-1.79.86,3.48,3.48,0,0,0-.69,2.25Z"/><path d="M239.41,188.89A2.65,2.65,0,0,1,237,190a2.29,2.29,0,0,1-1.8-.69,3,3,0,0,1-.63-2v-4.81h.81v4.71q0,2.11,1.71,2.11a2.09,2.09,0,0,0,2.25-1.47v-5.35h.82v7.4h-.79Z"/><path d="M242,186.06a4.45,4.45,0,0,1,.77-2.74,2.47,2.47,0,0,1,2.09-1,2.58,2.58,0,0,1,2.28,1.18v-4.15H248v10.5h-.77l0-1a2.65,2.65,0,0,1-2.31,1.12,2.46,2.46,0,0,1-2.06-1,4.47,4.47,0,0,1-.78-2.78Zm.83.14a3.85,3.85,0,0,0,.57,2.23,1.84,1.84,0,0,0,1.6.82,2.2,2.2,0,0,0,2.15-1.33v-3.47A2.19,2.19,0,0,0,245,183a1.86,1.86,0,0,0-1.61.81A4.12,4.12,0,0,0,242.84,186.2Z"/><path d="M224.32,132.18a2.81,2.81,0,0,1-1.37,1,5.94,5.94,0,0,1-2.09.35,3.89,3.89,0,0,1-2.08-.56,3.74,3.74,0,0,1-1.41-1.59,5.38,5.38,0,0,1-.51-2.35v-1.26a4.81,4.81,0,0,1,1-3.27,3.54,3.54,0,0,1,2.81-1.2,3.72,3.72,0,0,1,2.47.78,3.23,3.23,0,0,1,1.11,2.16h-.84a2.59,2.59,0,0,0-.89-1.66,2.88,2.88,0,0,0-1.85-.56,2.7,2.7,0,0,0-2.21,1,4.3,4.3,0,0,0-.81,2.8v1.18a4.92,4.92,0,0,0,.39,2,3.06,3.06,0,0,0,1.11,1.35,2.93,2.93,0,0,0,1.66.48,4.65,4.65,0,0,0,1.87-.34,2,2,0,0,0,.75-.53v-2.57H220.8v-.71h3.51Z"/><path d="M233.75,130.26a3.58,3.58,0,0,1-1.12,2.41,3.73,3.73,0,0,1-2.54.83,3.51,3.51,0,0,1-2-.55,3.6,3.6,0,0,1-1.32-1.57,5.6,5.6,0,0,1-.47-2.32v-1.29a5.65,5.65,0,0,1,.46-2.35,3.56,3.56,0,0,1,1.34-1.58,3.64,3.64,0,0,1,2-.56,3.56,3.56,0,0,1,2.53.86,3.61,3.61,0,0,1,1.08,2.38h-.85a2.53,2.53,0,0,0-2.75-2.54,2.61,2.61,0,0,0-2.16,1,4.39,4.39,0,0,0-.8,2.8V129a4.42,4.42,0,0,0,.78,2.75,2.52,2.52,0,0,0,2.12,1,2.8,2.8,0,0,0,2-.63,3,3,0,0,0,.83-1.9Z"/><path d="M236.64,129.31v4.05h-.84v-10h3.39a3.57,3.57,0,0,1,2.45.79,2.76,2.76,0,0,1,.9,2.18,2.73,2.73,0,0,1-.87,2.16,3.68,3.68,0,0,1-2.5.76Zm0-.71h2.55a2.69,2.69,0,0,0,1.87-.58,2.07,2.07,0,0,0,.64-1.62,2.18,2.18,0,0,0-.64-1.65,2.56,2.56,0,0,0-1.81-.62h-2.6Z"/><path d="M200.49,61.9H196l-1,2.8h-.88l3.77-10h.8l3.77,10h-.87Zm-4.26-.71h4l-2-5.42Z"/><path d="M205.23,62l.31,1.54.38-1.48,2.16-7.33h.76L211,62.08l.37,1.49.33-1.56,1.8-7.27h.86l-2.55,10H211l-2.26-7.79-.25-1-.25,1L205.9,64.7h-.81l-2.54-10h.86Z"/><path d="M221.57,62.25a1.61,1.61,0,0,0-.58-1.31,6.11,6.11,0,0,0-2.13-.92,7.48,7.48,0,0,1-2.26-.95,2.3,2.3,0,0,1-.07-3.76,3.86,3.86,0,0,1,2.4-.71,4,4,0,0,1,1.77.38,2.89,2.89,0,0,1,1.21,1.07,2.8,2.8,0,0,1,.43,1.52h-.85a2.09,2.09,0,0,0-.7-1.64,2.72,2.72,0,0,0-1.87-.62,3,3,0,0,0-1.82.51,1.59,1.59,0,0,0-.68,1.33,1.5,1.5,0,0,0,.61,1.24,5.62,5.62,0,0,0,1.95.85,9.15,9.15,0,0,1,2,.76,2.9,2.9,0,0,1,1,.94,2.35,2.35,0,0,1,.35,1.29,2.25,2.25,0,0,1-.94,1.89,4,4,0,0,1-2.48.71,4.84,4.84,0,0,1-1.93-.38,2.94,2.94,0,0,1-1.33-1.05,2.71,2.71,0,0,1-.46-1.55h.84a2,2,0,0,0,.79,1.66,3.32,3.32,0,0,0,2.09.61,3.1,3.1,0,0,0,1.87-.51A1.6,1.6,0,0,0,221.57,62.25Z"/><path d="M2.11,105.09H7v.71H1.26v-10h.85Z"/><path d="M8,102a4.34,4.34,0,0,1,.41-1.92,3.1,3.1,0,0,1,2.88-1.8,3,3,0,0,1,2.39,1,4,4,0,0,1,.92,2.75v.17a4.38,4.38,0,0,1-.41,1.93A3.09,3.09,0,0,1,13,105.48a3.2,3.2,0,0,1-1.72.46,3,3,0,0,1-2.39-1A4,4,0,0,1,8,102.16Zm.82.23a3.35,3.35,0,0,0,.69,2.18,2.2,2.2,0,0,0,1.8.85,2.2,2.2,0,0,0,1.79-.85,3.48,3.48,0,0,0,.69-2.25V102a3.76,3.76,0,0,0-.31-1.55,2.52,2.52,0,0,0-.88-1.09,2.25,2.25,0,0,0-1.3-.39,2.19,2.19,0,0,0-1.78.86,3.48,3.48,0,0,0-.69,2.25Z"/><path d="M21,105.8a3.85,3.85,0,0,1-.16-1,2.84,2.84,0,0,1-1.1.86,3.35,3.35,0,0,1-1.41.3,2.48,2.48,0,0,1-1.73-.59,1.94,1.94,0,0,1-.66-1.5,2,2,0,0,1,.9-1.71,4.32,4.32,0,0,1,2.51-.63h1.48v-.84a1.62,1.62,0,0,0-.49-1.25A2,2,0,0,0,18.87,99a2.23,2.23,0,0,0-1.42.44,1.3,1.3,0,0,0-.56,1.05h-.82a1.9,1.9,0,0,1,.82-1.53,3.15,3.15,0,0,1,2-.65,2.88,2.88,0,0,1,2,.62,2.22,2.22,0,0,1,.73,1.73v3.5a4.34,4.34,0,0,0,.23,1.61v.08Zm-2.57-.59a2.74,2.74,0,0,0,1.47-.4,2.33,2.33,0,0,0,.94-1.06v-1.63H19.33a3.66,3.66,0,0,0-1.91.45,1.34,1.34,0,0,0-.69,1.19,1.32,1.32,0,0,0,.46,1A1.74,1.74,0,0,0,18.38,105.22Z"/><path d="M23.45,102a4.45,4.45,0,0,1,.77-2.75,2.47,2.47,0,0,1,2.09-1,2.57,2.57,0,0,1,2.28,1.18V95.3h.81v10.5h-.77l0-1a2.64,2.64,0,0,1-2.31,1.12,2.46,2.46,0,0,1-2.06-1,4.47,4.47,0,0,1-.78-2.78Zm.83.14a3.86,3.86,0,0,0,.57,2.23,1.84,1.84,0,0,0,1.6.82,2.2,2.2,0,0,0,2.15-1.33v-3.47A2.18,2.18,0,0,0,26.46,99a1.85,1.85,0,0,0-1.61.81A4.12,4.12,0,0,0,24.28,102.18Z"/><path d="M35.16,105.8v-10H38.1a3.82,3.82,0,0,1,2.43.66,2.34,2.34,0,0,1,.83,1.95,2.21,2.21,0,0,1-.42,1.34,2.3,2.3,0,0,1-1.15.82A2.41,2.41,0,0,1,41.71,103a2.58,2.58,0,0,1-.85,2.06,3.49,3.49,0,0,1-2.37.74Zm.84-5.49h2.3a2.58,2.58,0,0,0,1.63-.5,1.69,1.69,0,0,0,.58-1.39,1.66,1.66,0,0,0-.6-1.41,3,3,0,0,0-1.81-.46H36Zm0,.71v4.07h2.52a2.52,2.52,0,0,0,1.71-.55,1.91,1.91,0,0,0,.63-1.52,1.85,1.85,0,0,0-.6-1.46,2.44,2.44,0,0,0-1.67-.54Z"/><path d="M48.21,105.8a3.85,3.85,0,0,1-.16-1,2.84,2.84,0,0,1-1.1.86,3.35,3.35,0,0,1-1.41.3,2.48,2.48,0,0,1-1.73-.59,1.94,1.94,0,0,1-.66-1.5,2,2,0,0,1,.9-1.71,4.32,4.32,0,0,1,2.51-.63H48v-.84a1.62,1.62,0,0,0-.49-1.25A2,2,0,0,0,46.14,99a2.23,2.23,0,0,0-1.42.44,1.3,1.3,0,0,0-.56,1.05h-.82a1.9,1.9,0,0,1,.82-1.53,3.15,3.15,0,0,1,2-.65,2.88,2.88,0,0,1,2,.62,2.22,2.22,0,0,1,.73,1.73v3.5a4.34,4.34,0,0,0,.23,1.61v.08Zm-2.57-.59a2.74,2.74,0,0,0,1.47-.4,2.33,2.33,0,0,0,.94-1.06v-1.63H46.59a3.66,3.66,0,0,0-1.91.45,1.34,1.34,0,0,0-.69,1.19,1.32,1.32,0,0,0,.46,1A1.74,1.74,0,0,0,45.64,105.22Z"/><path d="M52,105.8h-.82V95.3H52Z"/><path d="M58.85,105.8a3.85,3.85,0,0,1-.16-1,2.84,2.84,0,0,1-1.1.86,3.35,3.35,0,0,1-1.41.3,2.48,2.48,0,0,1-1.73-.59,1.94,1.94,0,0,1-.66-1.5,2,2,0,0,1,.9-1.71,4.32,4.32,0,0,1,2.51-.63h1.48v-.84a1.62,1.62,0,0,0-.49-1.25A2,2,0,0,0,56.77,99a2.23,2.23,0,0,0-1.42.44,1.3,1.3,0,0,0-.56,1.05H54a1.9,1.9,0,0,1,.82-1.53,3.15,3.15,0,0,1,2-.65,2.88,2.88,0,0,1,2,.62,2.22,2.22,0,0,1,.73,1.73v3.5a4.34,4.34,0,0,0,.23,1.61v.08Zm-2.57-.59a2.74,2.74,0,0,0,1.47-.4,2.33,2.33,0,0,0,.94-1.06v-1.63H57.22a3.66,3.66,0,0,0-1.91.45,1.34,1.34,0,0,0-.69,1.19,1.32,1.32,0,0,0,.46,1A1.74,1.74,0,0,0,56.28,105.22Z"/><path d="M62.46,98.41l0,1.26a2.93,2.93,0,0,1,1-1,2.69,2.69,0,0,1,1.37-.36,2.22,2.22,0,0,1,1.77.67,3,3,0,0,1,.59,2v4.85h-.81v-4.86A2.26,2.26,0,0,0,66,99.47,1.65,1.65,0,0,0,64.7,99a2.07,2.07,0,0,0-1.34.47,2.79,2.79,0,0,0-.86,1.28v5.07h-.81v-7.4Z"/><path d="M72.11,105.25a2.16,2.16,0,0,0,1.43-.48,1.7,1.7,0,0,0,.63-1.25h.79a2.32,2.32,0,0,1-.42,1.23,2.67,2.67,0,0,1-1,.87,3.12,3.12,0,0,1-1.38.31,2.85,2.85,0,0,1-2.31-1,4.09,4.09,0,0,1-.85-2.72V102a4.63,4.63,0,0,1,.38-1.93,3,3,0,0,1,1.1-1.3,3,3,0,0,1,1.67-.46,2.85,2.85,0,0,1,2,.72,2.65,2.65,0,0,1,.84,1.91h-.79A2,2,0,0,0,72.1,99a2,2,0,0,0-1.72.8,3.62,3.62,0,0,0-.61,2.24v.24a3.54,3.54,0,0,0,.61,2.21A2.06,2.06,0,0,0,72.11,105.25Z"/><path d="M79.45,105.94a3.22,3.22,0,0,1-1.71-.46,3.17,3.17,0,0,1-1.19-1.29,4,4,0,0,1-.42-1.86V102a4.34,4.34,0,0,1,.41-1.92,3.29,3.29,0,0,1,1.15-1.34,2.85,2.85,0,0,1,1.6-.49,2.67,2.67,0,0,1,2.14.92,3.72,3.72,0,0,1,.79,2.51v.46H76.95v.16a3.1,3.1,0,0,0,.72,2.1,2.29,2.29,0,0,0,1.81.84,2.66,2.66,0,0,0,1.16-.24,2.56,2.56,0,0,0,.91-.77l.51.39A3,3,0,0,1,79.45,105.94Zm-.15-7a2,2,0,0,0-1.56.68,3.13,3.13,0,0,0-.77,1.82h4.44v-.09a2.71,2.71,0,0,0-.61-1.74A1.89,1.89,0,0,0,79.3,99Z"/><path d="M87.23,99.11a3,3,0,0,0-.55,0,2,2,0,0,0-1.3.43,2.35,2.35,0,0,0-.75,1.24v5.08h-.81v-7.4h.8v1.18a2.17,2.17,0,0,1,2.08-1.31,1.34,1.34,0,0,1,.54.09Z"/></svg>