<svg xmlns="http://www.w3.org/2000/svg" viewBox="0 0 388.76 204.37"><defs><style>.a,.b,.c,.d,.e{fill:#53a7e1;}.a{fill-opacity:0.15;}.b{fill-opacity:0.12;}.c{fill-opacity:0.2;}.d{fill-opacity:0.25;}.e{fill-opacity:0.3;}.f,.g,.l,.m,.n{fill:none;stroke-miterlimit:10;}.f,.g,.m{stroke:#aaa;}.g,.m{stroke-width:0.25px;}.h{opacity:0.4;}.i{opacity:0.3;}.j{opacity:0.2;}.k{opacity:0.1;}.l{stroke:#4082cd;opacity:0.25;}.m{stroke-dasharray:4.89 4.89;}.n{stroke:#3aa99d;stroke-width:6px;opacity:0.75;}</style></defs><title>adc_server-failover</title><rect class="a" x="94.04" y="65.13" width="56.76" height="110.91"/><rect class="a" x="37.28" y="64.49" width="56.76" height="111.55"/><rect class="b" x="26.45" y="68.19" width="10.38" height="107.85"/><rect class="b" x="150.8" y="74.1" width="56.76" height="101.95"/><rect class="a" x="207.56" y="70.36" width="56.76" height="105.68"/><rect class="c" x="264.32" y="60.81" width="56.76" height="115.23"/><rect class="d" x="321.08" y="44.45" width="56.76" height="131.59"/><rect class="e" x="377.54" y="42.85" width="9.91" height="133.19"/><line class="f" x1="37.23" x2="37.23" y2="185.66"/><line class="f" x1="26.45" y1="176.18" x2="387.45" y2="176.18"/><line class="g" x1="26.45" y1="136.94" x2="387.45" y2="136.94"/><line class="g" x1="26.45" y1="97.8" x2="387.45" y2="97.8"/><line class="g" x1="26.45" y1="58.67" x2="387.45" y2="58.67"/><line class="g" x1="26.45" y1="19.53" x2="387.45" y2="19.53"/><g class="h"><path d="M4.07,140.49h-.7v-7.69L1,133.67V133l2.91-1.08h.12Z"/><path d="M12.6,136.94a4.73,4.73,0,0,1-.66,2.74,2.24,2.24,0,0,1-2,.93A2.26,2.26,0,0,1,8,139.7,4.55,4.55,0,0,1,7.35,137V135.5A4.63,4.63,0,0,1,8,132.77a2.25,2.25,0,0,1,2-.93,2.27,2.27,0,0,1,1.93.89,4.46,4.46,0,0,1,.69,2.63Zm-.7-1.53a4.16,4.16,0,0,0-.48-2.21,1.6,1.6,0,0,0-1.44-.75,1.6,1.6,0,0,0-1.43.73,4,4,0,0,0-.49,2.16V137a4.16,4.16,0,0,0,.5,2.23A1.6,1.6,0,0,0,10,140a1.58,1.58,0,0,0,1.42-.76,4.17,4.17,0,0,0,.49-2.21Z"/><path d="M19.25,136.94a4.73,4.73,0,0,1-.66,2.74,2.24,2.24,0,0,1-2,.93,2.26,2.26,0,0,1-1.94-.92A4.55,4.55,0,0,1,14,137V135.5a4.63,4.63,0,0,1,.67-2.72,2.25,2.25,0,0,1,2-.93,2.27,2.27,0,0,1,1.93.89,4.46,4.46,0,0,1,.69,2.63Zm-.7-1.53a4.16,4.16,0,0,0-.48-2.21,1.6,1.6,0,0,0-1.44-.75,1.6,1.6,0,0,0-1.43.73,4,4,0,0,0-.49,2.16V137a4.16,4.16,0,0,0,.5,2.23,1.6,1.6,0,0,0,1.44.77,1.58,1.58,0,0,0,1.42-.76,4.17,4.17,0,0,0,.49-2.21Z"/></g><g class="h"><path d="M19.25,176.13a4.72,4.72,0,0,1-.66,2.74,2.24,2.24,0,0,1-2,.93,2.26,2.26,0,0,1-1.94-.92,4.55,4.55,0,0,1-.69-2.67v-1.53a4.63,4.63,0,0,1,.67-2.72,2.25,2.25,0,0,1,2-.93,2.27,2.27,0,0,1,1.93.89,4.47,4.47,0,0,1,.69,2.63Zm-.7-1.53a4.16,4.16,0,0,0-.48-2.21,1.6,1.6,0,0,0-1.44-.75,1.6,1.6,0,0,0-1.43.73,4,4,0,0,0-.49,2.16v1.68a4.16,4.16,0,0,0,.5,2.23,1.6,1.6,0,0,0,1.44.77,1.58,1.58,0,0,0,1.42-.76,4.17,4.17,0,0,0,.49-2.21Z"/></g><g class="i"><path d="M6.15,101.31H.8v-.54l2.92-3.32a7.67,7.67,0,0,0,1-1.38A2.31,2.31,0,0,0,5,95a1.72,1.72,0,0,0-.47-1.28,1.77,1.77,0,0,0-1.31-.47,1.84,1.84,0,0,0-1.39.55,2,2,0,0,0-.53,1.43H.62a2.68,2.68,0,0,1,.33-1.31A2.34,2.34,0,0,1,1.87,93a2.75,2.75,0,0,1,1.37-.34,2.58,2.58,0,0,1,1.83.62,2.18,2.18,0,0,1,.66,1.68,2.84,2.84,0,0,1-.37,1.31A9.71,9.71,0,0,1,4,98l-2.38,2.69H6.15Z"/><path d="M12.6,97.75a4.72,4.72,0,0,1-.66,2.74,2.24,2.24,0,0,1-2,.93A2.26,2.26,0,0,1,8,100.51a4.55,4.55,0,0,1-.69-2.67V96.31A4.63,4.63,0,0,1,8,93.58a2.25,2.25,0,0,1,2-.93,2.27,2.27,0,0,1,1.93.89,4.47,4.47,0,0,1,.69,2.63Zm-.7-1.53A4.16,4.16,0,0,0,11.42,94,1.6,1.6,0,0,0,10,93.26,1.6,1.6,0,0,0,8.54,94a4,4,0,0,0-.49,2.16v1.68a4.16,4.16,0,0,0,.5,2.23,1.6,1.6,0,0,0,1.44.77,1.58,1.58,0,0,0,1.42-.76,4.17,4.17,0,0,0,.49-2.21Z"/><path d="M19.25,97.75a4.72,4.72,0,0,1-.66,2.74,2.24,2.24,0,0,1-2,.93,2.26,2.26,0,0,1-1.94-.92A4.55,4.55,0,0,1,14,97.84V96.31a4.63,4.63,0,0,1,.67-2.72,2.25,2.25,0,0,1,2-.93,2.27,2.27,0,0,1,1.93.89,4.47,4.47,0,0,1,.69,2.63Zm-.7-1.53A4.16,4.16,0,0,0,18.07,94a1.6,1.6,0,0,0-1.44-.75,1.6,1.6,0,0,0-1.43.73,4,4,0,0,0-.49,2.16v1.68a4.16,4.16,0,0,0,.5,2.23,1.6,1.6,0,0,0,1.44.77,1.58,1.58,0,0,0,1.42-.76,4.17,4.17,0,0,0,.49-2.21Z"/></g><g class="j"><path d="M2.36,57.47h.73a2.44,2.44,0,0,0,1.05-.21,1.61,1.61,0,0,0,.69-.59,1.56,1.56,0,0,0,.24-.86,1.73,1.73,0,0,0-.46-1.28,1.8,1.8,0,0,0-1.33-.46,1.91,1.91,0,0,0-1.34.48,1.65,1.65,0,0,0-.52,1.27H.7A2.28,2.28,0,0,1,1,54.62,2.24,2.24,0,0,1,2,53.77a2.87,2.87,0,0,1,1.31-.3,2.55,2.55,0,0,1,1.83.63,2.27,2.27,0,0,1,.67,1.73A1.85,1.85,0,0,1,5.38,57a2.33,2.33,0,0,1-1.07.78,2.19,2.19,0,0,1,1.21.76,2.08,2.08,0,0,1,.41,1.29,2.3,2.3,0,0,1-.71,1.76,2.69,2.69,0,0,1-1.91.67,3.19,3.19,0,0,1-1.4-.3A2.26,2.26,0,0,1,.57,59.8h.7a1.7,1.7,0,0,0,.57,1.33,2.1,2.1,0,0,0,1.46.51,2,2,0,0,0,1.42-.47,1.74,1.74,0,0,0,.51-1.35,1.6,1.6,0,0,0-.55-1.31,2.49,2.49,0,0,0-1.61-.45h-.7Z"/><path d="M12.6,58.56a4.72,4.72,0,0,1-.66,2.74,2.24,2.24,0,0,1-2,.93A2.26,2.26,0,0,1,8,61.32a4.55,4.55,0,0,1-.69-2.67V57.12A4.63,4.63,0,0,1,8,54.4a2.25,2.25,0,0,1,2-.93,2.27,2.27,0,0,1,1.93.89A4.47,4.47,0,0,1,12.6,57ZM11.89,57a4.16,4.16,0,0,0-.48-2.21A1.6,1.6,0,0,0,10,54.07a1.6,1.6,0,0,0-1.43.73A4,4,0,0,0,8.05,57v1.68a4.16,4.16,0,0,0,.5,2.23,1.6,1.6,0,0,0,1.44.77,1.58,1.58,0,0,0,1.42-.76,4.17,4.17,0,0,0,.49-2.21Z"/><path d="M19.25,58.56a4.72,4.72,0,0,1-.66,2.74,2.24,2.24,0,0,1-2,.93,2.26,2.26,0,0,1-1.94-.92A4.55,4.55,0,0,1,14,58.65V57.12a4.63,4.63,0,0,1,.67-2.72,2.25,2.25,0,0,1,2-.93,2.27,2.27,0,0,1,1.93.89A4.47,4.47,0,0,1,19.25,57ZM18.54,57a4.16,4.16,0,0,0-.48-2.21,1.6,1.6,0,0,0-1.44-.75,1.6,1.6,0,0,0-1.43.73A4,4,0,0,0,14.7,57v1.68a4.16,4.16,0,0,0,.5,2.23,1.6,1.6,0,0,0,1.44.77,1.58,1.58,0,0,0,1.42-.76,4.17,4.17,0,0,0,.49-2.21Z"/></g><g class="k"><path d="M5.11,20.18H6.44v.59H5.11v2.16h-.7V20.77h-4v-.4l3.95-6h.77Zm-3.86,0H4.41V15.31l-.31.54Z"/><path d="M12.6,19.37a4.72,4.72,0,0,1-.66,2.74A2.24,2.24,0,0,1,10,23,2.26,2.26,0,0,1,8,22.13a4.55,4.55,0,0,1-.69-2.67V17.93A4.63,4.63,0,0,1,8,15.21a2.25,2.25,0,0,1,2-.93,2.27,2.27,0,0,1,1.93.89,4.47,4.47,0,0,1,.69,2.63Zm-.7-1.53a4.16,4.16,0,0,0-.48-2.21A1.6,1.6,0,0,0,10,14.88a1.6,1.6,0,0,0-1.43.73,4,4,0,0,0-.49,2.16v1.68a4.16,4.16,0,0,0,.5,2.23,1.6,1.6,0,0,0,1.44.77,1.58,1.58,0,0,0,1.42-.76,4.17,4.17,0,0,0,.49-2.21Z"/><path d="M19.25,19.37a4.72,4.72,0,0,1-.66,2.74,2.24,2.24,0,0,1-2,.93,2.26,2.26,0,0,1-1.94-.92A4.55,4.55,0,0,1,14,19.46V17.93a4.63,4.63,0,0,1,.67-2.72,2.25,2.25,0,0,1,2-.93,2.27,2.27,0,0,1,1.93.89,4.47,4.47,0,0,1,.69,2.63Zm-.7-1.53a4.16,4.16,0,0,0-.48-2.21,1.6,1.6,0,0,0-1.44-.75,1.6,1.6,0,0,0-1.43.73,4,4,0,0,0-.49,2.16v1.68a4.16,4.16,0,0,0,.5,2.23,1.6,1.6,0,0,0,1.44.77,1.58,1.58,0,0,0,1.42-.76,4.17,4.17,0,0,0,.49-2.21Z"/></g><path class="l" d="M26.45,78.42c37-15.49,135.38.59,189.28,2.35S387.18,63.15,387.18,63.15"/><path class="l" d="M26.45,73.72c37-15.49,135.38.59,189.28,2.35S387.18,58.46,387.18,58.46"/><path class="l" d="M26.45,72.55c37-15.49,135.38.59,189.28,2.35S387.18,57.28,387.18,57.28"/><path class="l" d="M26.45,78.42c37-15.49,135.38.59,189.28,2.35S387.18,63.15,387.18,63.15"/><path class="l" d="M26.45,73.72c37-15.49,135.38.59,189.28,2.35S387.18,58.46,387.18,58.46"/><path class="l" d="M26.45,73.72c37-15.49,136.26,11.92,189.28,2.35C276.21,65.15,388.1,56.68,387.18,58.46"/><path class="l" d="M26.45,76.07c37.45-16.15,136.86-6.89,189.28,2.35,55.42,9.77,171.73-16.6,171.45-17.61"/><path class="l" d="M26.45,73.41c37-9,135.38,7.71,189.28,8.74S387.18,64.49,387.18,64.49"/><path class="l" d="M26.45,78.71C63.47,56.07,162,77,215.73,82.15c53.88,5.17,171.42-20.93,171.45-25.75"/><path class="l" d="M26.45,78.1c37-15.49,135.38.59,189.28,2.35S387.18,62.84,387.18,62.84"/><path class="l" d="M26.45,78.1c37-15.49,135.5-1.6,189.28,2.35,54.31,4,172.2-13.59,171.45-17.61"/><path class="l" d="M26.45,78.09c40.84-21.93,137.42,3.49,189.28,4,54,.56,171.45-30.22,171.45-30.22"/><path class="l" d="M26.45,82.15c37-9.37,135.37,11.75,189.28,12,52.68.21,169.12-9,171.45-7.34"/><path class="l" d="M26.45,82.15c37-15.49,135.9,34.4,189.28,27,71.56-10,172.21-45.85,171.45-47.14"/><path class="l" d="M26.45,90.12c37.07-10.66,136.09-4,189.28-8s170.1-5.68,171.45-1.27"/><path class="l" d="M26.45,82.11c37-28.06,135.34,2.39,189.28,4.57S331.28,49.12,387.18,44.45"/><path class="l" d="M26.45,101.47c37-22.84,135.38-17.39,189.28-14.79S387.18,55.42,387.18,55.42"/><path class="l" d="M26.45,81.49c37-25.69,135.38,9.71,189.28,12.63S387.18,51.9,387.18,51.9"/><path class="l" d="M26.45,82.15c37.42-21.89,135.67,21.35,189.28,19.24S386.46,51.64,387.18,58"/><g class="h"><path d="M28.35,197.56a4.72,4.72,0,0,1-.66,2.74,2.51,2.51,0,0,1-3.89,0,4.55,4.55,0,0,1-.69-2.67v-1.53a4.63,4.63,0,0,1,.67-2.72,2.53,2.53,0,0,1,3.88,0,4.47,4.47,0,0,1,.69,2.63Zm-.7-1.53a4.16,4.16,0,0,0-.48-2.21,1.76,1.76,0,0,0-2.87,0,4,4,0,0,0-.49,2.16v1.68a4.16,4.16,0,0,0,.5,2.23,1.6,1.6,0,0,0,1.44.77,1.58,1.58,0,0,0,1.42-.76,4.17,4.17,0,0,0,.49-2.21Z"/><path d="M34.89,194.78A2,2,0,0,1,34.5,196a2.25,2.25,0,0,1-1,.77,2.5,2.5,0,0,1,1.18.81,2,2,0,0,1,.45,1.3,2.18,2.18,0,0,1-.74,1.74,3.36,3.36,0,0,1-3.95,0,2.18,2.18,0,0,1-.74-1.74,2.1,2.1,0,0,1,.43-1.29,2.38,2.38,0,0,1,1.17-.82,2.18,2.18,0,0,1-1-.77,2,2,0,0,1-.37-1.19,2.18,2.18,0,0,1,.68-1.69,2.92,2.92,0,0,1,3.62,0A2.17,2.17,0,0,1,34.89,194.78Zm-.48,4.08a1.69,1.69,0,0,0-.57-1.31,2.32,2.32,0,0,0-2.9,0,1.69,1.69,0,0,0-.56,1.32,1.65,1.65,0,0,0,.54,1.3,2.48,2.48,0,0,0,2.94,0A1.64,1.64,0,0,0,34.41,198.86Zm-.22-4.08a1.63,1.63,0,0,0-.51-1.22,2,2,0,0,0-2.58,0,1.63,1.63,0,0,0-.5,1.24,1.56,1.56,0,0,0,.5,1.21,2.06,2.06,0,0,0,2.59,0A1.56,1.56,0,0,0,34.18,194.78Z"/><path d="M36.45,200.7a.5.5,0,0,1,.13-.35.47.47,0,0,1,.37-.14.48.48,0,0,1,.37.14.49.49,0,0,1,.13.35.45.45,0,0,1-.13.34.51.51,0,0,1-.37.13.49.49,0,0,1-.37-.13A.46.46,0,0,1,36.45,200.7Zm0-5.41a.5.5,0,0,1,.13-.35.47.47,0,0,1,.37-.14.48.48,0,0,1,.37.14.49.49,0,0,1,.13.35.45.45,0,0,1-.13.34.51.51,0,0,1-.37.13.49.49,0,0,1-.37-.13A.46.46,0,0,1,36.46,195.29Z"/><path d="M44.17,197.56a4.72,4.72,0,0,1-.66,2.74,2.51,2.51,0,0,1-3.89,0,4.55,4.55,0,0,1-.69-2.67v-1.53a4.63,4.63,0,0,1,.67-2.72,2.53,2.53,0,0,1,3.88,0,4.47,4.47,0,0,1,.69,2.63Zm-.7-1.53a4.16,4.16,0,0,0-.48-2.21,1.76,1.76,0,0,0-2.87,0,4,4,0,0,0-.49,2.16v1.68a4.16,4.16,0,0,0,.5,2.23,1.6,1.6,0,0,0,1.44.77,1.58,1.58,0,0,0,1.42-.76,4.17,4.17,0,0,0,.49-2.21Z"/><path d="M50.82,197.56a4.72,4.72,0,0,1-.66,2.74,2.51,2.51,0,0,1-3.89,0,4.55,4.55,0,0,1-.69-2.67v-1.53a4.63,4.63,0,0,1,.67-2.72,2.53,2.53,0,0,1,3.88,0,4.47,4.47,0,0,1,.69,2.63Zm-.7-1.53a4.16,4.16,0,0,0-.48-2.21,1.76,1.76,0,0,0-2.87,0,4,4,0,0,0-.49,2.16v1.68a4.16,4.16,0,0,0,.5,2.23,1.6,1.6,0,0,0,1.44.77,1.58,1.58,0,0,0,1.42-.76,4.17,4.17,0,0,0,.49-2.21Z"/></g><g class="h"><path d="M85.43,197.56a4.72,4.72,0,0,1-.66,2.74,2.51,2.51,0,0,1-3.89,0,4.55,4.55,0,0,1-.69-2.67v-1.53a4.63,4.63,0,0,1,.67-2.72,2.53,2.53,0,0,1,3.88,0,4.47,4.47,0,0,1,.69,2.63Zm-.7-1.53a4.16,4.16,0,0,0-.48-2.21,1.76,1.76,0,0,0-2.87,0,4,4,0,0,0-.49,2.16v1.68a4.16,4.16,0,0,0,.5,2.23,1.6,1.6,0,0,0,1.44.77,1.58,1.58,0,0,0,1.42-.76,4.17,4.17,0,0,0,.49-2.21Z"/><path d="M91.31,197.17a2.64,2.64,0,0,1-.93.85,2.49,2.49,0,0,1-1.21.3,2.24,2.24,0,0,1-1.28-.37,2.45,2.45,0,0,1-.86-1,3.42,3.42,0,0,1-.3-1.45,3.56,3.56,0,0,1,.33-1.54,2.55,2.55,0,0,1,.91-1.08,2.62,2.62,0,0,1,3.34.52,4,4,0,0,1,.71,2.55v.63A5.25,5.25,0,0,1,91,200a3.72,3.72,0,0,1-3,1.16h-.13v-.61h.25a3.12,3.12,0,0,0,2.33-.87A3.71,3.71,0,0,0,91.31,197.17Zm-2.05.54a2.05,2.05,0,0,0,1.26-.42,2.26,2.26,0,0,0,.79-1.08v-.4a3.28,3.28,0,0,0-.54-2,1.74,1.74,0,0,0-1.46-.72,1.67,1.67,0,0,0-1.37.67,2.62,2.62,0,0,0-.53,1.69,2.55,2.55,0,0,0,.51,1.63A1.62,1.62,0,0,0,89.26,197.71Z"/><path d="M93.53,200.7a.5.5,0,0,1,.13-.35.47.47,0,0,1,.37-.14.48.48,0,0,1,.37.14.49.49,0,0,1,.13.35.45.45,0,0,1-.13.34.51.51,0,0,1-.37.13.49.49,0,0,1-.37-.13A.46.46,0,0,1,93.53,200.7Zm0-5.41a.5.5,0,0,1,.13-.35.47.47,0,0,1,.37-.14.48.48,0,0,1,.37.14.49.49,0,0,1,.13.35.45.45,0,0,1-.13.34.51.51,0,0,1-.37.13.49.49,0,0,1-.37-.13A.46.46,0,0,1,93.54,195.29Z"/><path d="M101.25,197.56a4.72,4.72,0,0,1-.66,2.74,2.51,2.51,0,0,1-3.89,0,4.55,4.55,0,0,1-.69-2.67v-1.53a4.63,4.63,0,0,1,.67-2.72,2.53,2.53,0,0,1,3.88,0,4.47,4.47,0,0,1,.69,2.63Zm-.7-1.53a4.16,4.16,0,0,0-.48-2.21,1.76,1.76,0,0,0-2.87,0A4,4,0,0,0,96.7,196v1.68a4.16,4.16,0,0,0,.5,2.23,1.6,1.6,0,0,0,1.44.77,1.58,1.58,0,0,0,1.42-.76,4.17,4.17,0,0,0,.49-2.21Z"/><path d="M107.9,197.56a4.72,4.72,0,0,1-.66,2.74,2.51,2.51,0,0,1-3.89,0,4.55,4.55,0,0,1-.69-2.67v-1.53a4.63,4.63,0,0,1,.67-2.72,2.53,2.53,0,0,1,3.88,0,4.47,4.47,0,0,1,.69,2.63Zm-.7-1.53a4.16,4.16,0,0,0-.48-2.21,1.76,1.76,0,0,0-2.87,0,4,4,0,0,0-.49,2.16v1.68a4.16,4.16,0,0,0,.5,2.23,1.6,1.6,0,0,0,1.44.77,1.58,1.58,0,0,0,1.42-.76,4.17,4.17,0,0,0,.49-2.21Z"/></g><g class="h"><path d="M140.71,201.12H140v-7.69l-2.32.86v-.66l2.91-1.08h.12Z"/><path d="M149.24,197.56a4.72,4.72,0,0,1-.66,2.74,2.51,2.51,0,0,1-3.89,0,4.55,4.55,0,0,1-.69-2.67v-1.53a4.63,4.63,0,0,1,.67-2.72,2.53,2.53,0,0,1,3.88,0,4.47,4.47,0,0,1,.69,2.63Zm-.7-1.53a4.16,4.16,0,0,0-.48-2.21,1.76,1.76,0,0,0-2.87,0,4,4,0,0,0-.49,2.16v1.68a4.16,4.16,0,0,0,.5,2.23,1.6,1.6,0,0,0,1.44.77,1.58,1.58,0,0,0,1.42-.76,4.17,4.17,0,0,0,.49-2.21Z"/><path d="M150.69,200.7a.5.5,0,0,1,.13-.35.47.47,0,0,1,.37-.14.48.48,0,0,1,.37.14.49.49,0,0,1,.13.35.45.45,0,0,1-.13.34.51.51,0,0,1-.37.13.49.49,0,0,1-.37-.13A.46.46,0,0,1,150.69,200.7Zm0-5.41a.5.5,0,0,1,.13-.35.47.47,0,0,1,.37-.14.48.48,0,0,1,.37.14.49.49,0,0,1,.13.35.45.45,0,0,1-.13.34.51.51,0,0,1-.37.13.49.49,0,0,1-.37-.13A.46.46,0,0,1,150.7,195.29Z"/><path d="M158.41,197.56a4.72,4.72,0,0,1-.66,2.74,2.51,2.51,0,0,1-3.89,0,4.55,4.55,0,0,1-.69-2.67v-1.53a4.63,4.63,0,0,1,.67-2.72,2.53,2.53,0,0,1,3.88,0,4.47,4.47,0,0,1,.69,2.63Zm-.7-1.53a4.16,4.16,0,0,0-.48-2.21,1.76,1.76,0,0,0-2.87,0,4,4,0,0,0-.49,2.16v1.68a4.16,4.16,0,0,0,.5,2.23,1.6,1.6,0,0,0,1.44.77,1.58,1.58,0,0,0,1.42-.76,4.17,4.17,0,0,0,.49-2.21Z"/><path d="M165.06,197.56a4.72,4.72,0,0,1-.66,2.74,2.51,2.51,0,0,1-3.89,0,4.55,4.55,0,0,1-.69-2.67v-1.53a4.63,4.63,0,0,1,.67-2.72,2.53,2.53,0,0,1,3.88,0,4.47,4.47,0,0,1,.69,2.63Zm-.7-1.53a4.16,4.16,0,0,0-.48-2.21,1.76,1.76,0,0,0-2.87,0,4,4,0,0,0-.49,2.16v1.68a4.16,4.16,0,0,0,.5,2.23,1.6,1.6,0,0,0,1.44.77,1.58,1.58,0,0,0,1.42-.76,4.17,4.17,0,0,0,.49-2.21Z"/></g><g class="h"><path d="M196.46,201.12h-.7v-7.69l-2.32.86v-.66l2.91-1.08h.12Z"/><path d="M203.11,201.12h-.7v-7.69l-2.32.86v-.66l2.91-1.08h.12Z"/><path d="M206.44,200.7a.5.5,0,0,1,.13-.35.47.47,0,0,1,.37-.14.48.48,0,0,1,.37.14.49.49,0,0,1,.13.35.45.45,0,0,1-.13.34.51.51,0,0,1-.37.13.49.49,0,0,1-.37-.13A.46.46,0,0,1,206.44,200.7Zm0-5.41a.5.5,0,0,1,.13-.35.47.47,0,0,1,.37-.14.48.48,0,0,1,.37.14.49.49,0,0,1,.13.35.45.45,0,0,1-.13.34.51.51,0,0,1-.37.13.49.49,0,0,1-.37-.13A.46.46,0,0,1,206.45,195.29Z"/><path d="M214.16,197.56a4.72,4.72,0,0,1-.66,2.74,2.51,2.51,0,0,1-3.89,0,4.55,4.55,0,0,1-.69-2.67v-1.53a4.63,4.63,0,0,1,.67-2.72,2.53,2.53,0,0,1,3.88,0,4.47,4.47,0,0,1,.69,2.63Zm-.7-1.53a4.16,4.16,0,0,0-.48-2.21,1.76,1.76,0,0,0-2.87,0,4,4,0,0,0-.49,2.16v1.68a4.16,4.16,0,0,0,.5,2.23,1.6,1.6,0,0,0,1.44.77,1.58,1.58,0,0,0,1.42-.76,4.17,4.17,0,0,0,.49-2.21Z"/><path d="M220.81,197.56a4.72,4.72,0,0,1-.66,2.74,2.51,2.51,0,0,1-3.89,0,4.55,4.55,0,0,1-.69-2.67v-1.53a4.63,4.63,0,0,1,.67-2.72,2.53,2.53,0,0,1,3.88,0,4.47,4.47,0,0,1,.69,2.63Zm-.7-1.53a4.16,4.16,0,0,0-.48-2.21,1.76,1.76,0,0,0-2.87,0,4,4,0,0,0-.49,2.16v1.68a4.16,4.16,0,0,0,.5,2.23,1.6,1.6,0,0,0,1.44.77,1.58,1.58,0,0,0,1.42-.76,4.17,4.17,0,0,0,.49-2.21Z"/></g><g class="i"><path d="M252.21,201.12h-.7v-7.69l-2.32.86v-.66l2.91-1.08h.12Z"/><path d="M260.94,201.12h-5.34v-.54l2.92-3.32a7.67,7.67,0,0,0,1-1.38,2.31,2.31,0,0,0,.28-1.06,1.72,1.72,0,0,0-.47-1.28,1.77,1.77,0,0,0-1.31-.47,1.84,1.84,0,0,0-1.39.55,2,2,0,0,0-.53,1.43h-.7a2.68,2.68,0,0,1,.33-1.31,2.34,2.34,0,0,1,.93-.93,2.75,2.75,0,0,1,1.37-.34,2.58,2.58,0,0,1,1.83.62,2.18,2.18,0,0,1,.66,1.68,2.84,2.84,0,0,1-.37,1.31,9.71,9.71,0,0,1-1.31,1.77l-2.38,2.69h4.48Z"/><path d="M262.19,200.7a.5.5,0,0,1,.13-.35.47.47,0,0,1,.37-.14.48.48,0,0,1,.37.14.49.49,0,0,1,.13.35.45.45,0,0,1-.13.34.51.51,0,0,1-.37.13.49.49,0,0,1-.37-.13A.46.46,0,0,1,262.19,200.7Zm0-5.41a.5.5,0,0,1,.13-.35.47.47,0,0,1,.37-.14.48.48,0,0,1,.37.14.49.49,0,0,1,.13.35.45.45,0,0,1-.13.34.51.51,0,0,1-.37.13.49.49,0,0,1-.37-.13A.46.46,0,0,1,262.2,195.29Z"/><path d="M269.91,197.56a4.72,4.72,0,0,1-.66,2.74,2.51,2.51,0,0,1-3.89,0,4.55,4.55,0,0,1-.69-2.67v-1.53a4.63,4.63,0,0,1,.67-2.72,2.53,2.53,0,0,1,3.88,0,4.47,4.47,0,0,1,.69,2.63Zm-.7-1.53a4.16,4.16,0,0,0-.48-2.21,1.76,1.76,0,0,0-2.87,0,4,4,0,0,0-.49,2.16v1.68a4.16,4.16,0,0,0,.5,2.23,1.6,1.6,0,0,0,1.44.77,1.58,1.58,0,0,0,1.42-.76,4.17,4.17,0,0,0,.49-2.21Z"/><path d="M276.56,197.56a4.72,4.72,0,0,1-.66,2.74,2.51,2.51,0,0,1-3.89,0,4.55,4.55,0,0,1-.69-2.67v-1.53a4.63,4.63,0,0,1,.67-2.72,2.53,2.53,0,0,1,3.88,0,4.47,4.47,0,0,1,.69,2.63Zm-.7-1.53a4.16,4.16,0,0,0-.48-2.21,1.76,1.76,0,0,0-2.87,0A4,4,0,0,0,272,196v1.68a4.16,4.16,0,0,0,.5,2.23,1.6,1.6,0,0,0,1.44.77,1.58,1.58,0,0,0,1.42-.76,4.17,4.17,0,0,0,.49-2.21Z"/></g><g class="j"><path d="M308,201.12h-.7v-7.69l-2.32.86v-.66l2.91-1.08H308Z"/><path d="M312.9,196.47h.73a2.44,2.44,0,0,0,1.05-.21,1.61,1.61,0,0,0,.69-.59,1.56,1.56,0,0,0,.24-.86,1.73,1.73,0,0,0-.46-1.28,1.8,1.8,0,0,0-1.33-.46,1.91,1.91,0,0,0-1.34.48,1.65,1.65,0,0,0-.52,1.27h-.7a2.28,2.28,0,0,1,.33-1.21,2.24,2.24,0,0,1,.93-.85,2.87,2.87,0,0,1,1.31-.3,2.55,2.55,0,0,1,1.83.63,2.27,2.27,0,0,1,.67,1.73,1.85,1.85,0,0,1-.39,1.13,2.33,2.33,0,0,1-1.07.78,2.19,2.19,0,0,1,1.21.76,2.08,2.08,0,0,1,.41,1.29,2.3,2.3,0,0,1-.71,1.76,2.69,2.69,0,0,1-1.91.67,3.19,3.19,0,0,1-1.4-.3,2.26,2.26,0,0,1-1.33-2.13h.7a1.7,1.7,0,0,0,.57,1.33,2.1,2.1,0,0,0,1.46.51,2,2,0,0,0,1.42-.47,1.74,1.74,0,0,0,.51-1.35,1.6,1.6,0,0,0-.55-1.31,2.49,2.49,0,0,0-1.61-.45h-.7Z"/><path d="M317.94,200.7a.5.5,0,0,1,.13-.35.47.47,0,0,1,.37-.14.48.48,0,0,1,.37.14.49.49,0,0,1,.13.35.45.45,0,0,1-.13.34.51.51,0,0,1-.37.13.49.49,0,0,1-.37-.13A.46.46,0,0,1,317.94,200.7Zm0-5.41a.5.5,0,0,1,.13-.35.47.47,0,0,1,.37-.14.48.48,0,0,1,.37.14.49.49,0,0,1,.13.35.45.45,0,0,1-.13.34.51.51,0,0,1-.37.13.49.49,0,0,1-.37-.13A.46.46,0,0,1,317.95,195.29Z"/><path d="M325.66,197.56a4.72,4.72,0,0,1-.66,2.74,2.51,2.51,0,0,1-3.89,0,4.55,4.55,0,0,1-.69-2.67v-1.53a4.63,4.63,0,0,1,.67-2.72,2.53,2.53,0,0,1,3.88,0,4.47,4.47,0,0,1,.69,2.63ZM325,196a4.16,4.16,0,0,0-.48-2.21,1.76,1.76,0,0,0-2.87,0,4,4,0,0,0-.49,2.16v1.68a4.16,4.16,0,0,0,.5,2.23,1.6,1.6,0,0,0,1.44.77,1.58,1.58,0,0,0,1.42-.76,4.17,4.17,0,0,0,.49-2.21Z"/><path d="M332.31,197.56a4.72,4.72,0,0,1-.66,2.74,2.51,2.51,0,0,1-3.89,0,4.55,4.55,0,0,1-.69-2.67v-1.53a4.63,4.63,0,0,1,.67-2.72,2.53,2.53,0,0,1,3.88,0,4.47,4.47,0,0,1,.69,2.63Zm-.7-1.53a4.16,4.16,0,0,0-.48-2.21,1.76,1.76,0,0,0-2.87,0,4,4,0,0,0-.49,2.16v1.68a4.16,4.16,0,0,0,.5,2.23,1.6,1.6,0,0,0,1.44.77,1.58,1.58,0,0,0,1.42-.76,4.17,4.17,0,0,0,.49-2.21Z"/></g><g class="k"><path d="M363.71,201.12H363v-7.69l-2.32.86v-.66l2.91-1.08h.12Z"/><path d="M371.4,198.37h1.33V199H371.4v2.16h-.7V199h-4v-.4l3.95-6h.77Zm-3.86,0h3.15v-4.87l-.31.54Z"/><path d="M373.69,200.7a.5.5,0,0,1,.13-.35.47.47,0,0,1,.37-.14.48.48,0,0,1,.37.14.49.49,0,0,1,.13.35.45.45,0,0,1-.13.34.51.51,0,0,1-.37.13.49.49,0,0,1-.37-.13A.46.46,0,0,1,373.69,200.7Zm0-5.41a.5.5,0,0,1,.13-.35.47.47,0,0,1,.37-.14.48.48,0,0,1,.37.14.49.49,0,0,1,.13.35.45.45,0,0,1-.13.34.51.51,0,0,1-.37.13.49.49,0,0,1-.37-.13A.46.46,0,0,1,373.7,195.29Z"/><path d="M381.41,197.56a4.72,4.72,0,0,1-.66,2.74,2.51,2.51,0,0,1-3.89,0,4.55,4.55,0,0,1-.69-2.67v-1.53a4.63,4.63,0,0,1,.67-2.72,2.53,2.53,0,0,1,3.88,0,4.47,4.47,0,0,1,.69,2.63Zm-.7-1.53a4.16,4.16,0,0,0-.48-2.21,1.76,1.76,0,0,0-2.87,0,4,4,0,0,0-.49,2.16v1.68a4.16,4.16,0,0,0,.5,2.23,1.6,1.6,0,0,0,1.44.77,1.58,1.58,0,0,0,1.42-.76,4.17,4.17,0,0,0,.49-2.21Z"/><path d="M388.06,197.56a4.72,4.72,0,0,1-.66,2.74,2.51,2.51,0,0,1-3.89,0,4.55,4.55,0,0,1-.69-2.67v-1.53a4.63,4.63,0,0,1,.67-2.72,2.53,2.53,0,0,1,3.88,0,4.47,4.47,0,0,1,.69,2.63Zm-.7-1.53a4.16,4.16,0,0,0-.48-2.21,1.76,1.76,0,0,0-2.87,0,4,4,0,0,0-.49,2.16v1.68a4.16,4.16,0,0,0,.5,2.23,1.6,1.6,0,0,0,1.44.77,1.58,1.58,0,0,0,1.42-.76,4.17,4.17,0,0,0,.49-2.21Z"/></g><line class="g" x1="94.45" y1="176.12" x2="94.45" y2="173.62"/><line class="m" x1="94.45" y1="168.73" x2="94.45" y2="5.06"/><line class="g" x1="94.45" y1="2.62" x2="94.45" y2="0.12"/><line class="g" x1="151.2" y1="176.12" x2="151.2" y2="173.62"/><line class="m" x1="151.2" y1="168.73" x2="151.2" y2="5.06"/><line class="g" x1="151.2" y1="2.62" x2="151.2" y2="0.12"/><line class="g" x1="207.95" y1="176.12" x2="207.95" y2="173.62"/><line class="m" x1="207.95" y1="168.73" x2="207.95" y2="5.06"/><line class="g" x1="207.95" y1="2.62" x2="207.95" y2="0.12"/><line class="g" x1="264.7" y1="176.12" x2="264.7" y2="173.62"/><line class="m" x1="264.7" y1="168.73" x2="264.7" y2="5.06"/><line class="g" x1="264.7" y1="2.62" x2="264.7" y2="0.12"/><line class="g" x1="321.45" y1="176.12" x2="321.45" y2="173.62"/><line class="m" x1="321.45" y1="168.73" x2="321.45" y2="5.06"/><line class="g" x1="321.45" y1="2.62" x2="321.45" y2="0.12"/><line class="g" x1="377.54" y1="176.12" x2="377.54" y2="173.62"/><line class="m" x1="377.54" y1="168.73" x2="377.54" y2="5.06"/><line class="g" x1="377.54" y1="2.62" x2="377.54" y2="0.12"/><path class="n" d="M26.45,72.55c78-13.88,90.91,1.55,175.72,1.55s134-25.54,185-29.65"/></svg>