<?xml version="1.0" encoding="UTF-8"?>
<!DOCTYPE svg PUBLIC "-//W3C//DTD SVG 1.1//EN" "http://www.w3.org/Graphics/SVG/1.1/DTD/svg11.dtd">
<svg version="1.1" xmlns="http://www.w3.org/2000/svg" xmlns:xlink="http://www.w3.org/1999/xlink" x="0" y="0" width="620" height="250" viewBox="0, 0, 620, 250">
  <g id="Layer_1">
    <path d="M31.426,87.061 C28.581,87.061 26.266,89.298 26.266,92.049 L26.266,150.868 C26.266,151.821 27.078,152.592 28.079,152.592 L68.639,152.592 C68.084,151.483 67.604,150.337 67.229,149.143 L29.893,149.143 L29.893,111.204 L106.06,111.204 L106.06,122.447 C107.364,123.313 108.579,124.288 109.687,125.364 L109.687,92.049 C109.687,89.298 107.371,87.061 104.526,87.061 L31.426,87.061 z M31.426,90.51 L104.526,90.51 C105.373,90.51 106.06,91.199 106.06,92.049 L106.06,107.755 L29.893,107.755 L29.893,92.049 C29.893,91.199 30.579,90.51 31.426,90.51 z M57.095,93.959 L57.095,95.683 L57.095,104.306 L100.619,104.306 L100.619,93.959 L57.095,93.959 z M37.147,95.683 C35.144,95.683 33.52,97.227 33.52,99.132 C33.52,101.037 35.144,102.581 37.147,102.581 C39.15,102.581 40.774,101.037 40.774,99.132 C40.774,97.227 39.15,95.683 37.147,95.683 z M48.028,95.683 C46.025,95.683 44.401,97.227 44.401,99.132 C44.401,101.037 46.025,102.581 48.028,102.581 C50.031,102.581 51.655,101.037 51.655,99.132 C51.655,97.227 50.031,95.683 48.028,95.683 z M60.722,97.408 L96.992,97.408 L96.992,100.857 L60.722,100.857 L60.722,97.408 z M91.552,121.551 C79.554,121.551 69.79,130.837 69.79,142.245 C69.79,153.654 79.554,162.939 91.552,162.939 C103.549,162.939 113.314,153.654 113.314,142.245 C113.314,130.837 103.549,121.551 91.552,121.551 z M91.552,125 C91.879,125 92.345,125.165 93,125.889 C93.655,126.614 94.371,127.838 94.977,129.422 C95.262,130.169 95.521,131.006 95.756,131.898 L87.347,131.898 C87.582,131.006 87.841,130.169 88.127,129.422 C88.732,127.838 89.448,126.614 90.103,125.889 C90.758,125.165 91.224,125 91.552,125 z M85.792,125.899 C85.4,126.617 85.043,127.396 84.719,128.244 C84.296,129.351 83.946,130.594 83.635,131.898 L77.047,131.898 C79.232,129.136 82.267,127.018 85.792,125.899 z M97.311,125.899 C100.836,127.018 103.871,129.136 106.056,131.898 L99.468,131.898 C99.157,130.594 98.808,129.351 98.384,128.244 C98.06,127.396 97.703,126.617 97.311,125.899 z M74.929,135.347 L82.984,135.347 C82.748,136.984 82.608,138.721 82.548,140.521 L73.516,140.521 C73.706,138.696 74.19,136.957 74.929,135.347 z M86.635,135.347 L96.468,135.347 C96.719,136.955 96.858,138.707 96.925,140.521 L86.178,140.521 C86.245,138.707 86.384,136.955 86.635,135.347 z M100.12,135.347 L108.174,135.347 C108.913,136.957 109.397,138.696 109.587,140.521 L100.555,140.521 C100.495,138.721 100.355,136.984 100.12,135.347 z M73.516,143.97 L82.548,143.97 C82.608,145.77 82.748,147.506 82.984,149.143 L74.929,149.143 C74.19,147.533 73.706,145.795 73.516,143.97 z M86.178,143.97 L96.925,143.97 C96.858,145.783 96.719,147.535 96.468,149.143 L86.635,149.143 C86.384,147.535 86.245,145.783 86.178,143.97 z M100.555,143.97 L109.587,143.97 C109.397,145.795 108.913,147.533 108.174,149.143 L100.12,149.143 C100.355,147.506 100.495,145.77 100.555,143.97 z M77.047,152.592 L83.635,152.592 C83.946,153.896 84.296,155.14 84.719,156.247 C85.043,157.094 85.4,157.873 85.792,158.591 C82.267,157.473 79.232,155.354 77.047,152.592 z M87.347,152.592 L95.756,152.592 C95.521,153.484 95.262,154.321 94.977,155.068 C94.371,156.652 93.655,157.877 93,158.601 C92.345,159.326 91.879,159.49 91.552,159.49 C91.224,159.49 90.758,159.326 90.103,158.601 C89.448,157.877 88.732,156.652 88.127,155.068 C87.841,154.321 87.582,153.484 87.347,152.592 z M99.468,152.592 L106.056,152.592 C103.871,155.354 100.836,157.473 97.311,158.591 C97.703,157.873 98.06,157.094 98.384,156.247 C98.808,155.14 99.157,153.896 99.468,152.592 z" fill="#ffffff" id="Internet_Browser-595b40b75ba036ed117d6383"/>
    <path d="M229.522,99.362 C228.894,99.482 228.443,100.037 228.454,100.677 L228.454,105.936 L219.25,105.936 C219.209,105.934 219.168,105.934 219.127,105.936 C218.449,106 217.933,106.57 217.935,107.251 L217.935,149.325 C217.936,150.051 218.524,150.639 219.25,150.64 L282.361,150.64 C283.087,150.639 283.676,150.051 283.676,149.325 L283.676,107.251 C283.676,106.525 283.087,105.936 282.361,105.936 L273.158,105.936 L273.158,100.677 C273.157,99.951 272.569,99.362 271.843,99.362 L261.324,99.362 C261.283,99.36 261.242,99.36 261.201,99.362 C260.523,99.426 260.006,99.996 260.009,100.677 L260.009,105.936 L241.602,105.936 L241.602,100.677 C241.602,99.951 241.013,99.362 240.287,99.362 L229.769,99.362 C229.728,99.36 229.687,99.36 229.645,99.362 C229.604,99.36 229.563,99.36 229.522,99.362 z M231.084,101.992 L238.972,101.992 L238.972,105.936 L231.084,105.936 L231.084,101.992 z M262.639,101.992 L270.528,101.992 L270.528,105.936 L262.639,105.936 L262.639,101.992 z M220.565,108.566 L261.078,108.566 L261.612,108.566 L271.596,108.566 L272.13,108.566 L281.046,108.566 L281.046,148.01 L220.565,148.01 L220.565,108.566 z" fill="#ffffff" id="Plugin-595b40b85ba036ed117dde2e"/>
    <path d="M488.279,31.773 C473.519,31.773 461.068,41.818 457.386,55.428 L460.289,55.428 C461.33,51.946 463.018,48.748 465.189,45.94 C467.565,47.28 470.315,48.399 473.356,49.262 C472.849,51.21 472.429,53.264 472.135,55.428 L474.973,55.428 C475.255,53.513 475.64,51.686 476.098,49.949 C479.451,50.689 483.078,51.126 486.887,51.213 L486.887,55.428 L489.67,55.428 L489.67,51.213 C493.479,51.126 497.106,50.691 500.459,49.952 C500.917,51.688 501.302,53.514 501.584,55.428 L504.422,55.428 C504.128,53.264 503.708,51.21 503.202,49.262 C506.243,48.399 508.992,47.281 511.368,45.94 C513.539,48.748 515.227,51.946 516.268,55.428 L519.171,55.428 C515.489,41.818 503.038,31.773 488.279,31.773 z M486.887,34.724 L486.887,48.43 C483.349,48.343 479.985,47.936 476.889,47.264 C479.172,40.418 482.799,35.625 486.887,34.724 z M489.67,34.724 C493.759,35.625 497.385,40.418 499.668,47.264 C496.572,47.936 493.208,48.343 489.67,48.43 L489.67,34.724 z M480.115,35.744 C477.665,38.326 475.614,42.057 474.136,46.579 C471.475,45.827 469.077,44.88 467.021,43.777 C470.545,40.028 475.047,37.224 480.115,35.744 z M496.443,35.744 C501.51,37.224 506.012,40.028 509.537,43.777 C507.48,44.88 505.082,45.827 502.422,46.579 C500.943,42.057 498.892,38.326 496.443,35.744 z M457.666,58.211 L461.199,69.343 L464.441,69.343 L467.382,61.021 L470.331,69.343 L473.502,69.343 L477.098,58.211 L474.087,58.211 L471.815,65.986 L469.219,58.211 L465.664,58.211 L462.958,65.856 L460.726,58.211 L457.666,58.211 z M478.563,58.211 L482.098,69.343 L485.341,69.343 L488.279,61.021 L491.227,69.343 L494.399,69.343 L497.994,58.211 L494.983,58.211 L492.711,65.986 L490.116,58.211 L486.561,58.211 L483.854,65.856 L481.623,58.211 L478.563,58.211 z M499.386,58.211 L502.935,69.343 L506.188,69.343 L509.14,61.021 L512.099,69.343 L515.282,69.343 L518.891,58.211 L515.869,58.211 L513.589,65.986 L510.985,58.211 L507.417,58.211 L504.699,65.856 L502.457,58.211 L499.386,58.211 z M457.386,72.126 C461.068,85.736 473.519,95.781 488.279,95.781 C503.038,95.781 515.489,85.736 519.171,72.126 L516.268,72.126 C515.227,75.607 513.539,78.806 511.368,81.613 C508.992,80.274 506.242,79.154 503.202,78.292 C503.708,76.343 504.128,74.29 504.422,72.126 L501.584,72.126 C501.302,74.04 500.917,75.868 500.459,77.605 C497.106,76.865 493.479,76.428 489.67,76.341 L489.67,72.126 L486.887,72.126 L486.887,76.341 C483.078,76.428 479.451,76.863 476.098,77.602 C475.641,75.866 475.255,74.04 474.973,72.126 L472.135,72.126 C472.429,74.289 472.849,76.344 473.356,78.292 C470.314,79.155 467.565,80.273 465.189,81.613 C463.018,78.806 461.33,75.607 460.289,72.126 L457.386,72.126 z M486.887,79.124 L486.887,92.829 C482.799,91.929 479.172,87.135 476.889,80.29 C479.985,79.618 483.349,79.21 486.887,79.124 z M489.67,79.124 C493.208,79.21 496.572,79.618 499.668,80.29 C497.385,87.135 493.758,91.929 489.67,92.829 L489.67,79.124 z M474.138,80.975 C475.617,85.497 477.665,89.228 480.115,91.81 C475.047,90.33 470.545,87.525 467.021,83.777 C469.078,82.673 471.477,81.727 474.138,80.975 z M502.422,80.975 C505.082,81.727 507.48,82.673 509.537,83.777 C506.012,87.525 501.51,90.33 496.443,91.81 C498.892,89.228 500.943,85.497 502.422,80.975 z" fill="#ffffff" id="Website-595b40b75ba036ed117d5c7e"/>
    <path d="M465.545,150.026 L465.545,152.868 L465.545,215.385 L465.545,218.227 L468.387,218.227 L508.17,218.227 L511.012,218.227 L511.012,215.385 L511.012,152.868 L511.012,150.026 L508.17,150.026 L468.387,150.026 L465.545,150.026 z M471.228,155.71 L505.329,155.71 L505.329,212.544 L471.228,212.544 L471.228,155.71 z M476.912,161.393 L476.912,167.076 L499.645,167.076 L499.645,161.393 L476.912,161.393 z M476.912,172.76 L476.912,178.443 L499.645,178.443 L499.645,172.76 L476.912,172.76 z M488.279,195.493 C486.709,195.493 485.437,196.766 485.437,198.335 C485.437,199.905 486.709,201.177 488.279,201.177 C489.848,201.177 491.12,199.905 491.12,198.335 C491.12,196.766 489.848,195.493 488.279,195.493 z" fill="#ffffff" id="Server-595b40b65ba036ed117d23ec"/>
    <g>
      <path d="M135.071,125.692 L194.012,125.692" fill-opacity="0" stroke="#ffffff" stroke-width="1" stroke-dasharray="3,2"/>
      <path d="M135.071,122.692 L127.071,125.692 L135.071,128.692 z" fill="#ffffff" fill-opacity="1" stroke="#ffffff" stroke-width="1" stroke-opacity="1"/>
      <path d="M194.012,128.692 L202.012,125.692 L194.012,122.692 z" fill="#ffffff" fill-opacity="1" stroke="#ffffff" stroke-width="1" stroke-opacity="1"/>
    </g>
    <g>
      <path d="M310.856,111.4 L435.659,63.393" fill-opacity="0" stroke="#ffffff" stroke-width="1"/>
      <path d="M309.779,108.6 L303.39,114.272 L311.933,114.2 z" fill="#ffffff" fill-opacity="1" stroke="#ffffff" stroke-width="1" stroke-opacity="1"/>
      <path d="M436.736,66.193 L443.126,60.521 L434.582,60.593 z" fill="#ffffff" fill-opacity="1" stroke="#ffffff" stroke-width="1" stroke-opacity="1"/>
    </g>
    <g>
      <path d="M310.856,139.6 L435.659,187.607" fill-opacity="0" stroke="#ffffff" stroke-width="1"/>
      <path d="M311.933,136.8 L303.39,136.728 L309.779,142.4 z" fill="#ffffff" fill-opacity="1" stroke="#ffffff" stroke-width="1" stroke-opacity="1"/>
      <path d="M434.582,190.407 L443.126,190.479 L436.736,184.807 z" fill="#ffffff" fill-opacity="1" stroke="#ffffff" stroke-width="1" stroke-opacity="1"/>
    </g>
    <path d="M41.582,185.355 L41.582,188.795 L42.983,188.795 Q44.014,188.795 44.454,188.434 Q44.893,188.074 44.893,187.248 Q44.893,186.158 44.43,185.756 Q43.967,185.355 42.983,185.355 z M41.582,181.992 L41.582,184.394 L42.959,184.394 Q43.815,184.394 44.199,184.066 Q44.582,183.738 44.582,183.24 Q44.582,182.578 44.205,182.285 Q43.827,181.992 42.959,181.992 z M40.393,181.019 L42.983,181.019 Q44.325,181.019 45.051,181.599 Q45.778,182.179 45.778,183.24 Q45.778,183.808 45.394,184.271 Q45.01,184.734 44.243,184.851 Q45.104,184.98 45.593,185.587 Q46.082,186.193 46.082,187.365 Q46.082,188.554 45.303,189.161 Q44.524,189.767 42.983,189.767 L40.393,189.767 z" fill="#ffffff"/>
    <path d="M51.098,185.636 Q51.555,185.754 51.877,186.079 Q52.2,186.404 52.68,187.377 L53.87,189.767 L52.598,189.767 L51.555,187.558 Q51.104,186.615 50.744,186.342 Q50.383,186.07 49.803,186.07 L48.672,186.07 L48.672,189.767 L47.483,189.767 L47.483,181.019 L49.92,181.019 Q51.362,181.019 52.129,181.67 Q52.897,182.32 52.897,183.55 Q52.897,184.418 52.425,184.965 Q51.954,185.513 51.098,185.636 z M48.672,181.992 L48.672,185.097 L49.967,185.097 Q50.817,185.097 51.233,184.716 Q51.649,184.336 51.649,183.55 Q51.649,182.795 51.206,182.393 Q50.764,181.992 49.92,181.992 z" fill="#ffffff"/>
    <path d="M59.172,185.402 Q59.172,183.474 58.777,182.648 Q58.381,181.822 57.479,181.822 Q56.582,181.822 56.187,182.648 Q55.791,183.474 55.791,185.402 Q55.791,187.324 56.187,188.15 Q56.582,188.976 57.479,188.976 Q58.381,188.976 58.777,188.153 Q59.172,187.33 59.172,185.402 z M60.409,185.402 Q60.409,187.687 59.685,188.812 Q58.961,189.937 57.479,189.937 Q55.997,189.937 55.276,188.818 Q54.555,187.699 54.555,185.402 Q54.555,183.111 55.279,181.986 Q56.002,180.861 57.479,180.861 Q58.961,180.861 59.685,181.986 Q60.409,183.111 60.409,185.402 z" fill="#ffffff"/>
    <path d="M61.094,181.019 L62.248,181.019 L63.086,188.121 L64.082,183.421 L65.319,183.421 L66.327,188.132 L67.164,181.019 L68.319,181.019 L67.012,189.767 L65.893,189.767 L64.704,184.57 L63.52,189.767 L62.401,189.767 z" fill="#ffffff"/>
    <path d="M74.248,181.318 L74.248,182.519 Q73.709,182.173 73.167,181.998 Q72.625,181.822 72.075,181.822 Q71.237,181.822 70.75,182.212 Q70.264,182.601 70.264,183.263 Q70.264,183.843 70.583,184.148 Q70.903,184.453 71.776,184.658 L72.397,184.798 Q73.627,185.086 74.19,185.701 Q74.752,186.316 74.752,187.377 Q74.752,188.625 73.979,189.281 Q73.205,189.937 71.729,189.937 Q71.114,189.937 70.493,189.805 Q69.872,189.673 69.245,189.41 L69.245,188.15 Q69.918,188.578 70.519,188.777 Q71.12,188.976 71.729,188.976 Q72.625,188.976 73.123,188.575 Q73.622,188.173 73.622,187.453 Q73.622,186.796 73.279,186.451 Q72.936,186.105 72.086,185.918 L71.454,185.771 Q70.235,185.496 69.684,184.939 Q69.133,184.382 69.133,183.445 Q69.133,182.273 69.921,181.567 Q70.709,180.861 72.016,180.861 Q72.52,180.861 73.077,180.975 Q73.633,181.089 74.248,181.318 z" fill="#ffffff"/>
    <path d="M76.698,181.019 L81.889,181.019 L81.889,182.015 L77.881,182.015 L77.881,184.371 L81.713,184.371 L81.713,185.367 L77.881,185.367 L77.881,188.771 L82,188.771 L82,189.767 L76.698,189.767 z" fill="#ffffff"/>
    <path d="M87.221,185.636 Q87.678,185.754 88,186.079 Q88.323,186.404 88.803,187.377 L89.993,189.767 L88.721,189.767 L87.678,187.558 Q87.227,186.615 86.867,186.342 Q86.506,186.07 85.926,186.07 L84.795,186.07 L84.795,189.767 L83.606,189.767 L83.606,181.019 L86.043,181.019 Q87.485,181.019 88.252,181.67 Q89.02,182.32 89.02,183.55 Q89.02,184.418 88.548,184.965 Q88.077,185.513 87.221,185.636 z M84.795,181.992 L84.795,185.097 L86.09,185.097 Q86.94,185.097 87.356,184.716 Q87.772,184.336 87.772,183.55 Q87.772,182.795 87.33,182.393 Q86.887,181.992 86.043,181.992 z" fill="#ffffff"/>
    <path d="M193.325,181.478 L193.325,182.679 Q192.786,182.334 192.244,182.158 Q191.702,181.982 191.152,181.982 Q190.314,181.982 189.827,182.372 Q189.341,182.761 189.341,183.424 Q189.341,184.004 189.66,184.308 Q189.98,184.613 190.853,184.818 L191.474,184.959 Q192.704,185.246 193.267,185.861 Q193.829,186.476 193.829,187.537 Q193.829,188.785 193.056,189.441 Q192.282,190.097 190.806,190.097 Q190.191,190.097 189.57,189.966 Q188.948,189.834 188.321,189.57 L188.321,188.31 Q188.995,188.738 189.596,188.937 Q190.196,189.136 190.806,189.136 Q191.702,189.136 192.2,188.735 Q192.698,188.334 192.698,187.613 Q192.698,186.957 192.356,186.611 Q192.013,186.265 191.163,186.078 L190.53,185.931 Q189.312,185.656 188.761,185.099 Q188.21,184.543 188.21,183.605 Q188.21,182.433 188.998,181.727 Q189.786,181.021 191.093,181.021 Q191.597,181.021 192.153,181.136 Q192.71,181.25 193.325,181.478 z" fill="#ffffff"/>
    <path d="M195.775,181.179 L200.966,181.179 L200.966,182.176 L196.958,182.176 L196.958,184.531 L200.79,184.531 L200.79,185.527 L196.958,185.527 L196.958,188.931 L201.077,188.931 L201.077,189.928 L195.775,189.928 z" fill="#ffffff"/>
    <path d="M208.132,189.617 Q207.681,189.857 207.206,189.977 Q206.732,190.097 206.198,190.097 Q204.517,190.097 203.588,188.908 Q202.659,187.719 202.659,185.562 Q202.659,183.418 203.594,182.219 Q204.528,181.021 206.198,181.021 Q206.732,181.021 207.206,181.141 Q207.681,181.261 208.132,181.502 L208.132,182.715 Q207.698,182.357 207.2,182.17 Q206.702,181.982 206.198,181.982 Q205.044,181.982 204.47,182.873 Q203.896,183.763 203.896,185.562 Q203.896,187.355 204.47,188.246 Q205.044,189.136 206.198,189.136 Q206.714,189.136 207.209,188.949 Q207.704,188.761 208.132,188.404 z" fill="#ffffff"/>
    <path d="M212.679,182.222 L211.431,186.699 L213.927,186.699 z M211.964,181.179 L213.4,181.179 L216.077,189.928 L214.853,189.928 L214.208,187.648 L211.144,187.648 L210.511,189.928 L209.286,189.928 z" fill="#ffffff"/>
    <path d="M218.632,182.152 L218.632,185.439 L220.003,185.439 Q220.823,185.439 221.283,185.006 Q221.743,184.572 221.743,183.793 Q221.743,183.013 221.286,182.583 Q220.829,182.152 220.003,182.152 z M217.448,181.179 L220.003,181.179 Q221.468,181.179 222.224,181.844 Q222.98,182.51 222.98,183.793 Q222.98,185.088 222.227,185.75 Q221.474,186.412 220.003,186.412 L218.632,186.412 L218.632,189.928 L217.448,189.928 z" fill="#ffffff"/>
    <path d="M225.857,182.152 L225.857,185.439 L227.228,185.439 Q228.048,185.439 228.508,185.006 Q228.968,184.572 228.968,183.793 Q228.968,183.013 228.511,182.583 Q228.054,182.152 227.228,182.152 z M224.673,181.179 L227.228,181.179 Q228.693,181.179 229.448,181.844 Q230.204,182.51 230.204,183.793 Q230.204,185.088 229.451,185.75 Q228.698,186.412 227.228,186.412 L225.857,186.412 L225.857,189.928 L224.673,189.928 z" fill="#ffffff"/>
    <path d="M236.673,181.478 L236.673,182.679 Q236.134,182.334 235.592,182.158 Q235.05,181.982 234.499,181.982 Q233.661,181.982 233.175,182.372 Q232.689,182.761 232.689,183.424 Q232.689,184.004 233.008,184.308 Q233.327,184.613 234.2,184.818 L234.821,184.959 Q236.052,185.246 236.614,185.861 Q237.177,186.476 237.177,187.537 Q237.177,188.785 236.403,189.441 Q235.63,190.097 234.153,190.097 Q233.538,190.097 232.917,189.966 Q232.296,189.834 231.669,189.57 L231.669,188.31 Q232.343,188.738 232.944,188.937 Q233.544,189.136 234.153,189.136 Q235.05,189.136 235.548,188.735 Q236.046,188.334 236.046,187.613 Q236.046,186.957 235.703,186.611 Q235.361,186.265 234.511,186.078 L233.878,185.931 Q232.659,185.656 232.109,185.099 Q231.558,184.543 231.558,183.605 Q231.558,182.433 232.346,181.727 Q233.134,181.021 234.441,181.021 Q234.945,181.021 235.501,181.136 Q236.058,181.25 236.673,181.478 z" fill="#ffffff"/>
    <path d="M246.347,181.179 L251.538,181.179 L251.538,182.176 L247.53,182.176 L247.53,184.531 L251.362,184.531 L251.362,185.527 L247.53,185.527 L247.53,188.931 L251.65,188.931 L251.65,189.928 L246.347,189.928 z" fill="#ffffff"/>
    <path d="M252.921,181.179 L254.193,181.179 L256.114,184.478 L258.071,181.179 L259.343,181.179 L256.724,185.293 L259.53,189.928 L258.259,189.928 L256.114,186.16 L253.8,189.928 L252.523,189.928 L255.452,185.293 z" fill="#ffffff"/>
    <path d="M259.917,181.179 L266.591,181.179 L266.591,182.176 L263.855,182.176 L263.855,189.928 L262.665,189.928 L262.665,182.176 L259.917,182.176 z" fill="#ffffff"/>
    <path d="M268.021,181.179 L273.212,181.179 L273.212,182.176 L269.204,182.176 L269.204,184.531 L273.036,184.531 L273.036,185.527 L269.204,185.527 L269.204,188.931 L273.323,188.931 L273.323,189.928 L268.021,189.928 z" fill="#ffffff"/>
    <path d="M274.202,181.209 L275.819,181.209 L279.241,188.386 L279.241,181.209 L280.501,181.209 L280.501,189.928 L278.884,189.928 L275.462,182.75 L275.462,189.928 L274.202,189.928 z" fill="#ffffff"/>
    <path d="M287.245,181.478 L287.245,182.679 Q286.706,182.334 286.164,182.158 Q285.622,181.982 285.071,181.982 Q284.234,181.982 283.747,182.372 Q283.261,182.761 283.261,183.424 Q283.261,184.004 283.58,184.308 Q283.9,184.613 284.773,184.818 L285.394,184.959 Q286.624,185.246 287.187,185.861 Q287.749,186.476 287.749,187.537 Q287.749,188.785 286.976,189.441 Q286.202,190.097 284.726,190.097 Q284.111,190.097 283.489,189.966 Q282.868,189.834 282.241,189.57 L282.241,188.31 Q282.915,188.738 283.516,188.937 Q284.116,189.136 284.726,189.136 Q285.622,189.136 286.12,188.735 Q286.618,188.334 286.618,187.613 Q286.618,186.957 286.276,186.611 Q285.933,186.265 285.083,186.078 L284.45,185.931 Q283.232,185.656 282.681,185.099 Q282.13,184.543 282.13,183.605 Q282.13,182.433 282.918,181.727 Q283.706,181.021 285.013,181.021 Q285.517,181.021 286.073,181.136 Q286.63,181.25 287.245,181.478 z" fill="#ffffff"/>
    <path d="M289.718,181.179 L294.575,181.179 L294.575,182.176 L292.741,182.176 L292.741,188.931 L294.575,188.931 L294.575,189.928 L289.718,189.928 L289.718,188.931 L291.552,188.931 L291.552,182.176 L289.718,182.176 z" fill="#ffffff"/>
    <path d="M301.068,185.562 Q301.068,183.635 300.672,182.808 Q300.277,181.982 299.374,181.982 Q298.478,181.982 298.082,182.808 Q297.687,183.635 297.687,185.562 Q297.687,187.484 298.082,188.31 Q298.478,189.136 299.374,189.136 Q300.277,189.136 300.672,188.313 Q301.068,187.49 301.068,185.562 z M302.304,185.562 Q302.304,187.847 301.58,188.972 Q300.857,190.097 299.374,190.097 Q297.892,190.097 297.171,188.978 Q296.45,187.859 296.45,185.562 Q296.45,183.271 297.174,182.146 Q297.898,181.021 299.374,181.021 Q300.857,181.021 301.58,182.146 Q302.304,183.271 302.304,185.562 z" fill="#ffffff"/>
    <path d="M303.101,181.209 L304.718,181.209 L308.14,188.386 L308.14,181.209 L309.4,181.209 L309.4,189.928 L307.782,189.928 L304.361,182.75 L304.361,189.928 L303.101,189.928 z" fill="#ffffff"/>
    <path d="M536.596,32.777 L543.269,32.777 L543.269,33.773 L540.533,33.773 L540.533,41.525 L539.344,41.525 L539.344,33.773 L536.596,33.773 z" fill="#ffffff"/>
    <path d="M544.348,32.777 L545.537,32.777 L545.537,36.128 L548.777,36.128 L548.777,32.777 L549.967,32.777 L549.967,41.525 L548.777,41.525 L548.777,37.125 L545.537,37.125 L545.537,41.525 L544.348,41.525 z" fill="#ffffff"/>
    <path d="M551.924,32.777 L557.115,32.777 L557.115,33.773 L553.107,33.773 L553.107,36.128 L556.939,36.128 L556.939,37.125 L553.107,37.125 L553.107,40.529 L557.227,40.529 L557.227,41.525 L551.924,41.525 z" fill="#ffffff"/>
    <path d="M565.219,32.777 L566.373,32.777 L567.211,39.878 L568.207,35.179 L569.443,35.179 L570.451,39.89 L571.289,32.777 L572.443,32.777 L571.137,41.525 L570.018,41.525 L568.828,36.328 L567.644,41.525 L566.525,41.525 z" fill="#ffffff"/>
    <path d="M573.598,32.777 L578.789,32.777 L578.789,33.773 L574.781,33.773 L574.781,36.128 L578.613,36.128 L578.613,37.125 L574.781,37.125 L574.781,40.529 L578.9,40.529 L578.9,41.525 L573.598,41.525 z" fill="#ffffff"/>
    <path d="M581.83,37.113 L581.83,40.552 L583.23,40.552 Q584.262,40.552 584.701,40.192 Q585.141,39.832 585.141,39.005 Q585.141,37.916 584.678,37.514 Q584.215,37.113 583.23,37.113 z M581.83,33.75 L581.83,36.152 L583.207,36.152 Q584.062,36.152 584.446,35.824 Q584.83,35.496 584.83,34.998 Q584.83,34.335 584.452,34.042 Q584.074,33.75 583.207,33.75 z M580.641,32.777 L583.23,32.777 Q584.572,32.777 585.299,33.357 Q586.025,33.937 586.025,34.998 Q586.025,35.566 585.642,36.029 Q585.258,36.492 584.49,36.609 Q585.352,36.738 585.841,37.344 Q586.33,37.951 586.33,39.123 Q586.33,40.312 585.551,40.918 Q584.771,41.525 583.23,41.525 L580.641,41.525 z" fill="#ffffff"/>
    <path d="M539.062,58.326 L538.824,58.326 Q538.195,58.326 537.877,58.546 Q537.559,58.767 537.559,59.205 Q537.559,59.599 537.797,59.818 Q538.035,60.037 538.457,60.037 Q539.051,60.037 539.391,59.625 Q539.73,59.212 539.734,58.486 L539.734,58.326 z M540.457,58.029 L540.457,60.525 L539.734,60.525 L539.734,59.876 Q539.504,60.267 539.154,60.453 Q538.805,60.638 538.305,60.638 Q537.637,60.638 537.238,60.261 Q536.84,59.884 536.84,59.251 Q536.84,58.521 537.33,58.142 Q537.82,57.763 538.769,57.763 L539.734,57.763 L539.734,57.65 Q539.73,57.126 539.469,56.89 Q539.207,56.654 538.633,56.654 Q538.266,56.654 537.891,56.759 Q537.516,56.865 537.16,57.068 L537.16,56.349 Q537.559,56.197 537.924,56.121 Q538.289,56.044 538.633,56.044 Q539.176,56.044 539.56,56.205 Q539.945,56.365 540.184,56.685 Q540.332,56.88 540.394,57.167 Q540.457,57.455 540.457,58.029 z" fill="#ffffff"/>
    <path d="M543.777,56.595 Q543.91,56.314 544.115,56.179 Q544.32,56.044 544.609,56.044 Q545.137,56.044 545.353,56.453 Q545.57,56.861 545.57,57.99 L545.57,60.525 L544.914,60.525 L544.914,58.021 Q544.914,57.095 544.81,56.871 Q544.707,56.646 544.434,56.646 Q544.121,56.646 544.006,56.886 Q543.891,57.126 543.891,58.021 L543.891,60.525 L543.234,60.525 L543.234,58.021 Q543.234,57.084 543.123,56.865 Q543.012,56.646 542.723,56.646 Q542.437,56.646 542.326,56.886 Q542.215,57.126 542.215,58.021 L542.215,60.525 L541.562,60.525 L541.562,56.15 L542.215,56.15 L542.215,56.525 Q542.344,56.291 542.537,56.167 Q542.73,56.044 542.977,56.044 Q543.273,56.044 543.471,56.181 Q543.668,56.318 543.777,56.595 z" fill="#ffffff"/>
    <path d="M548.695,58.326 L548.457,58.326 Q547.828,58.326 547.51,58.546 Q547.191,58.767 547.191,59.205 Q547.191,59.599 547.43,59.818 Q547.668,60.037 548.09,60.037 Q548.684,60.037 549.023,59.625 Q549.363,59.212 549.367,58.486 L549.367,58.326 z M550.09,58.029 L550.09,60.525 L549.367,60.525 L549.367,59.876 Q549.137,60.267 548.787,60.453 Q548.437,60.638 547.937,60.638 Q547.269,60.638 546.871,60.261 Q546.473,59.884 546.473,59.251 Q546.473,58.521 546.963,58.142 Q547.453,57.763 548.402,57.763 L549.367,57.763 L549.367,57.65 Q549.363,57.126 549.102,56.89 Q548.84,56.654 548.266,56.654 Q547.898,56.654 547.523,56.759 Q547.148,56.865 546.793,57.068 L546.793,56.349 Q547.191,56.197 547.557,56.121 Q547.922,56.044 548.266,56.044 Q548.809,56.044 549.193,56.205 Q549.578,56.365 549.816,56.685 Q549.965,56.88 550.027,57.167 Q550.09,57.455 550.09,58.029 z" fill="#ffffff"/>
    <path d="M551.656,56.142 L554.832,56.142 L554.832,56.798 L552.32,59.939 L554.832,59.939 L554.832,60.525 L551.562,60.525 L551.562,59.861 L554.074,56.716 L551.656,56.716 z" fill="#ffffff"/>
    <path d="M557.992,56.654 Q557.445,56.654 557.164,57.08 Q556.883,57.505 556.883,58.341 Q556.883,59.173 557.164,59.601 Q557.445,60.029 557.992,60.029 Q558.543,60.029 558.824,59.601 Q559.105,59.173 559.105,58.341 Q559.105,57.505 558.824,57.08 Q558.543,56.654 557.992,56.654 z M557.992,56.044 Q558.902,56.044 559.385,56.634 Q559.867,57.224 559.867,58.341 Q559.867,59.462 559.387,60.05 Q558.906,60.638 557.992,60.638 Q557.082,60.638 556.602,60.05 Q556.121,59.462 556.121,58.341 Q556.121,57.224 556.602,56.634 Q557.082,56.044 557.992,56.044 z" fill="#ffffff"/>
    <path d="M564.508,57.814 L564.508,60.525 L563.785,60.525 L563.785,57.814 Q563.785,57.224 563.578,56.947 Q563.371,56.669 562.93,56.669 Q562.426,56.669 562.154,57.027 Q561.883,57.384 561.883,58.052 L561.883,60.525 L561.164,60.525 L561.164,56.15 L561.883,56.15 L561.883,56.806 Q562.074,56.431 562.402,56.238 Q562.73,56.044 563.18,56.044 Q563.848,56.044 564.178,56.484 Q564.508,56.923 564.508,57.814 z" fill="#ffffff"/>
    <path d="M566.738,58.947 L568.113,58.947 L568.113,60.525 L566.738,60.525 z" fill="#ffffff"/>
    <path d="M574.18,60.302 Q573.891,60.47 573.584,60.554 Q573.277,60.638 572.957,60.638 Q571.941,60.638 571.369,60.029 Q570.797,59.419 570.797,58.341 Q570.797,57.263 571.369,56.654 Q571.941,56.044 572.957,56.044 Q573.273,56.044 573.574,56.126 Q573.875,56.209 574.18,56.38 L574.18,57.134 Q573.894,56.88 573.607,56.767 Q573.32,56.654 572.957,56.654 Q572.281,56.654 571.918,57.091 Q571.555,57.529 571.555,58.341 Q571.555,59.15 571.92,59.589 Q572.285,60.029 572.957,60.029 Q573.332,60.029 573.629,59.914 Q573.926,59.798 574.18,59.556 z" fill="#ffffff"/>
    <path d="M577.258,56.654 Q576.711,56.654 576.43,57.08 Q576.148,57.505 576.148,58.341 Q576.148,59.173 576.43,59.601 Q576.711,60.029 577.258,60.029 Q577.809,60.029 578.09,59.601 Q578.371,59.173 578.371,58.341 Q578.371,57.505 578.09,57.08 Q577.809,56.654 577.258,56.654 z M577.258,56.044 Q578.168,56.044 578.65,56.634 Q579.133,57.224 579.133,58.341 Q579.133,59.462 578.652,60.05 Q578.172,60.638 577.258,60.638 Q576.348,60.638 575.867,60.05 Q575.387,59.462 575.387,58.341 Q575.387,57.224 575.867,56.634 Q576.348,56.044 577.258,56.044 z" fill="#ffffff"/>
    <path d="M582.309,56.595 Q582.441,56.314 582.646,56.179 Q582.852,56.044 583.141,56.044 Q583.668,56.044 583.885,56.453 Q584.102,56.861 584.102,57.99 L584.102,60.525 L583.445,60.525 L583.445,58.021 Q583.445,57.095 583.342,56.871 Q583.238,56.646 582.965,56.646 Q582.652,56.646 582.537,56.886 Q582.422,57.126 582.422,58.021 L582.422,60.525 L581.766,60.525 L581.766,58.021 Q581.766,57.084 581.654,56.865 Q581.543,56.646 581.254,56.646 Q580.969,56.646 580.857,56.886 Q580.746,57.126 580.746,58.021 L580.746,60.525 L580.094,60.525 L580.094,56.15 L580.746,56.15 L580.746,56.525 Q580.875,56.291 581.068,56.167 Q581.262,56.044 581.508,56.044 Q581.805,56.044 582.002,56.181 Q582.199,56.318 582.309,56.595 z" fill="#ffffff"/>
    <path d="M539.672,67.302 Q539.672,66.494 539.408,66.074 Q539.144,65.654 538.641,65.654 Q538.113,65.654 537.836,66.074 Q537.559,66.494 537.559,67.302 Q537.559,68.111 537.838,68.535 Q538.117,68.959 538.648,68.959 Q539.144,68.959 539.408,68.533 Q539.672,68.107 539.672,67.302 z M540.391,69.244 Q540.391,70.228 539.926,70.736 Q539.461,71.244 538.559,71.244 Q538.262,71.244 537.937,71.189 Q537.613,71.134 537.289,71.029 L537.289,70.318 Q537.672,70.498 537.984,70.584 Q538.297,70.669 538.559,70.669 Q539.141,70.669 539.406,70.353 Q539.672,70.037 539.672,69.349 L539.672,69.318 L539.672,68.83 Q539.5,69.197 539.203,69.376 Q538.906,69.556 538.48,69.556 Q537.715,69.556 537.258,68.943 Q536.801,68.33 536.801,67.302 Q536.801,66.271 537.258,65.658 Q537.715,65.044 538.48,65.044 Q538.902,65.044 539.195,65.212 Q539.488,65.38 539.672,65.732 L539.672,65.166 L540.391,65.166 z" fill="#ffffff"/>
    <path d="M543.543,65.654 Q542.996,65.654 542.715,66.08 Q542.434,66.505 542.434,67.341 Q542.434,68.173 542.715,68.601 Q542.996,69.029 543.543,69.029 Q544.094,69.029 544.375,68.601 Q544.656,68.173 544.656,67.341 Q544.656,66.505 544.375,66.08 Q544.094,65.654 543.543,65.654 z M543.543,65.044 Q544.453,65.044 544.935,65.634 Q545.418,66.224 545.418,67.341 Q545.418,68.462 544.937,69.05 Q544.457,69.638 543.543,69.638 Q542.633,69.638 542.152,69.05 Q541.672,68.462 541.672,67.341 Q541.672,66.224 542.152,65.634 Q542.633,65.044 543.543,65.044 z" fill="#ffffff"/>
    <path d="M548.359,65.654 Q547.812,65.654 547.531,66.08 Q547.25,66.505 547.25,67.341 Q547.25,68.173 547.531,68.601 Q547.812,69.029 548.359,69.029 Q548.91,69.029 549.191,68.601 Q549.473,68.173 549.473,67.341 Q549.473,66.505 549.191,66.08 Q548.91,65.654 548.359,65.654 z M548.359,65.044 Q549.269,65.044 549.752,65.634 Q550.234,66.224 550.234,67.341 Q550.234,68.462 549.754,69.05 Q549.273,69.638 548.359,69.638 Q547.449,69.638 546.969,69.05 Q546.488,68.462 546.488,67.341 Q546.488,66.224 546.969,65.634 Q547.449,65.044 548.359,65.044 z" fill="#ffffff"/>
    <path d="M554.121,67.302 Q554.121,66.494 553.857,66.074 Q553.594,65.654 553.09,65.654 Q552.562,65.654 552.285,66.074 Q552.008,66.494 552.008,67.302 Q552.008,68.111 552.287,68.535 Q552.566,68.959 553.098,68.959 Q553.594,68.959 553.857,68.533 Q554.121,68.107 554.121,67.302 z M554.84,69.244 Q554.84,70.228 554.375,70.736 Q553.91,71.244 553.008,71.244 Q552.711,71.244 552.387,71.189 Q552.062,71.134 551.738,71.029 L551.738,70.318 Q552.121,70.498 552.434,70.584 Q552.746,70.669 553.008,70.669 Q553.59,70.669 553.855,70.353 Q554.121,70.037 554.121,69.349 L554.121,69.318 L554.121,68.83 Q553.949,69.197 553.652,69.376 Q553.355,69.556 552.93,69.556 Q552.164,69.556 551.707,68.943 Q551.25,68.33 551.25,67.302 Q551.25,66.271 551.707,65.658 Q552.164,65.044 552.93,65.044 Q553.352,65.044 553.644,65.212 Q553.937,65.38 554.121,65.732 L554.121,65.166 L554.84,65.166 z" fill="#ffffff"/>
    <path d="M558.394,67.943 Q558.394,68.427 558.572,68.673 Q558.75,68.919 559.098,68.919 L559.937,68.919 L559.937,69.525 L559.027,69.525 Q558.383,69.525 558.029,69.113 Q557.676,68.701 557.676,67.943 L557.676,63.986 L556.523,63.986 L556.523,63.423 L558.394,63.423 z" fill="#ffffff"/>
    <path d="M564.777,66.978 L564.777,67.33 L561.664,67.33 L561.664,67.353 Q561.633,68.248 562.006,68.638 Q562.379,69.029 563.059,69.029 Q563.402,69.029 563.777,68.919 Q564.152,68.81 564.578,68.587 L564.578,69.302 Q564.168,69.47 563.787,69.554 Q563.406,69.638 563.051,69.638 Q562.031,69.638 561.457,69.027 Q560.883,68.416 560.883,67.341 Q560.883,66.294 561.445,65.669 Q562.008,65.044 562.945,65.044 Q563.781,65.044 564.264,65.611 Q564.746,66.177 564.777,66.978 z M564.059,66.767 Q564.012,66.314 563.728,65.984 Q563.445,65.654 562.914,65.654 Q562.394,65.654 562.059,65.998 Q561.723,66.341 561.691,66.771 z" fill="#ffffff"/>
    <path d="M566.738,67.947 L568.113,67.947 L568.113,69.525 L566.738,69.525 z" fill="#ffffff"/>
    <path d="M574.18,69.302 Q573.891,69.47 573.584,69.554 Q573.277,69.638 572.957,69.638 Q571.941,69.638 571.369,69.029 Q570.797,68.419 570.797,67.341 Q570.797,66.263 571.369,65.654 Q571.941,65.044 572.957,65.044 Q573.273,65.044 573.574,65.126 Q573.875,65.209 574.18,65.38 L574.18,66.134 Q573.894,65.88 573.607,65.767 Q573.32,65.654 572.957,65.654 Q572.281,65.654 571.918,66.091 Q571.555,66.529 571.555,67.341 Q571.555,68.15 571.92,68.589 Q572.285,69.029 572.957,69.029 Q573.332,69.029 573.629,68.914 Q573.926,68.798 574.18,68.556 z" fill="#ffffff"/>
    <path d="M577.258,65.654 Q576.711,65.654 576.43,66.08 Q576.148,66.505 576.148,67.341 Q576.148,68.173 576.43,68.601 Q576.711,69.029 577.258,69.029 Q577.809,69.029 578.09,68.601 Q578.371,68.173 578.371,67.341 Q578.371,66.505 578.09,66.08 Q577.809,65.654 577.258,65.654 z M577.258,65.044 Q578.168,65.044 578.65,65.634 Q579.133,66.224 579.133,67.341 Q579.133,68.462 578.652,69.05 Q578.172,69.638 577.258,69.638 Q576.348,69.638 575.867,69.05 Q575.387,68.462 575.387,67.341 Q575.387,66.224 575.867,65.634 Q576.348,65.044 577.258,65.044 z" fill="#ffffff"/>
    <path d="M582.309,65.595 Q582.441,65.314 582.646,65.179 Q582.852,65.044 583.141,65.044 Q583.668,65.044 583.885,65.453 Q584.102,65.861 584.102,66.99 L584.102,69.525 L583.445,69.525 L583.445,67.021 Q583.445,66.095 583.342,65.871 Q583.238,65.646 582.965,65.646 Q582.652,65.646 582.537,65.886 Q582.422,66.126 582.422,67.021 L582.422,69.525 L581.766,69.525 L581.766,67.021 Q581.766,66.084 581.654,65.865 Q581.543,65.646 581.254,65.646 Q580.969,65.646 580.857,65.886 Q580.746,66.126 580.746,67.021 L580.746,69.525 L580.094,69.525 L580.094,65.15 L580.746,65.15 L580.746,65.525 Q580.875,65.291 581.068,65.167 Q581.262,65.044 581.508,65.044 Q581.805,65.044 582.002,65.181 Q582.199,65.318 582.309,65.595 z" fill="#ffffff"/>
    <path d="M540.473,72.447 L540.473,73.044 L539.656,73.044 Q539.269,73.044 539.119,73.203 Q538.969,73.361 538.969,73.763 L538.969,74.15 L540.473,74.15 L540.473,74.709 L538.969,74.709 L538.969,78.525 L538.25,78.525 L538.25,74.709 L537.082,74.709 L537.082,74.15 L538.25,74.15 L538.25,73.845 Q538.25,73.126 538.58,72.787 Q538.91,72.447 539.609,72.447 z" fill="#ffffff"/>
    <path d="M543.879,76.326 L543.641,76.326 Q543.012,76.326 542.693,76.546 Q542.375,76.767 542.375,77.205 Q542.375,77.599 542.613,77.818 Q542.852,78.037 543.273,78.037 Q543.867,78.037 544.207,77.625 Q544.547,77.212 544.551,76.486 L544.551,76.326 z M545.273,76.029 L545.273,78.525 L544.551,78.525 L544.551,77.876 Q544.32,78.267 543.971,78.453 Q543.621,78.638 543.121,78.638 Q542.453,78.638 542.055,78.261 Q541.656,77.884 541.656,77.251 Q541.656,76.521 542.146,76.142 Q542.637,75.763 543.586,75.763 L544.551,75.763 L544.551,75.65 Q544.547,75.126 544.285,74.89 Q544.023,74.654 543.449,74.654 Q543.082,74.654 542.707,74.759 Q542.332,74.865 541.977,75.068 L541.977,74.349 Q542.375,74.197 542.74,74.121 Q543.105,74.044 543.449,74.044 Q543.992,74.044 544.377,74.205 Q544.762,74.365 545,74.685 Q545.148,74.88 545.211,75.167 Q545.273,75.455 545.273,76.029 z" fill="#ffffff"/>
    <path d="M550.098,78.302 Q549.809,78.47 549.502,78.554 Q549.195,78.638 548.875,78.638 Q547.859,78.638 547.287,78.029 Q546.715,77.419 546.715,76.341 Q546.715,75.263 547.287,74.654 Q547.859,74.044 548.875,74.044 Q549.191,74.044 549.492,74.126 Q549.793,74.209 550.098,74.38 L550.098,75.134 Q549.812,74.88 549.525,74.767 Q549.238,74.654 548.875,74.654 Q548.199,74.654 547.836,75.091 Q547.473,75.529 547.473,76.341 Q547.473,77.15 547.838,77.589 Q548.203,78.029 548.875,78.029 Q549.25,78.029 549.547,77.914 Q549.844,77.798 550.098,77.556 z" fill="#ffffff"/>
    <path d="M555.144,75.978 L555.144,76.33 L552.031,76.33 L552.031,76.353 Q552,77.248 552.373,77.638 Q552.746,78.029 553.426,78.029 Q553.769,78.029 554.144,77.919 Q554.519,77.81 554.945,77.587 L554.945,78.302 Q554.535,78.47 554.154,78.554 Q553.773,78.638 553.418,78.638 Q552.398,78.638 551.824,78.027 Q551.25,77.416 551.25,76.341 Q551.25,75.294 551.812,74.669 Q552.375,74.044 553.312,74.044 Q554.148,74.044 554.631,74.611 Q555.113,75.177 555.144,75.978 z M554.426,75.767 Q554.379,75.314 554.096,74.984 Q553.812,74.654 553.281,74.654 Q552.762,74.654 552.426,74.998 Q552.09,75.341 552.059,75.771 z" fill="#ffffff"/>
    <path d="M559.172,76.341 Q559.172,75.505 558.906,75.08 Q558.641,74.654 558.121,74.654 Q557.598,74.654 557.328,75.082 Q557.059,75.509 557.059,76.341 Q557.059,77.169 557.328,77.599 Q557.598,78.029 558.121,78.029 Q558.641,78.029 558.906,77.603 Q559.172,77.177 559.172,76.341 z M557.059,74.709 Q557.23,74.388 557.533,74.216 Q557.836,74.044 558.234,74.044 Q559.023,74.044 559.477,74.652 Q559.93,75.259 559.93,76.326 Q559.93,77.408 559.475,78.023 Q559.019,78.638 558.227,78.638 Q557.836,78.638 557.537,78.468 Q557.238,78.298 557.059,77.974 L557.059,78.525 L556.34,78.525 L556.34,72.447 L557.059,72.447 z" fill="#ffffff"/>
    <path d="M562.809,74.654 Q562.262,74.654 561.98,75.08 Q561.699,75.505 561.699,76.341 Q561.699,77.173 561.98,77.601 Q562.262,78.029 562.809,78.029 Q563.359,78.029 563.641,77.601 Q563.922,77.173 563.922,76.341 Q563.922,75.505 563.641,75.08 Q563.359,74.654 562.809,74.654 z M562.809,74.044 Q563.719,74.044 564.201,74.634 Q564.684,75.224 564.684,76.341 Q564.684,77.462 564.203,78.05 Q563.723,78.638 562.809,78.638 Q561.898,78.638 561.418,78.05 Q560.937,77.462 560.937,76.341 Q560.937,75.224 561.418,74.634 Q561.898,74.044 562.809,74.044 z" fill="#ffffff"/>
    <path d="M567.625,74.654 Q567.078,74.654 566.797,75.08 Q566.516,75.505 566.516,76.341 Q566.516,77.173 566.797,77.601 Q567.078,78.029 567.625,78.029 Q568.176,78.029 568.457,77.601 Q568.738,77.173 568.738,76.341 Q568.738,75.505 568.457,75.08 Q568.176,74.654 567.625,74.654 z M567.625,74.044 Q568.535,74.044 569.018,74.634 Q569.5,75.224 569.5,76.341 Q569.5,77.462 569.019,78.05 Q568.539,78.638 567.625,78.638 Q566.715,78.638 566.234,78.05 Q565.754,77.462 565.754,76.341 Q565.754,75.224 566.234,74.634 Q566.715,74.044 567.625,74.044 z" fill="#ffffff"/>
    <path d="M570.957,72.447 L571.699,72.447 L571.699,75.966 L573.586,74.15 L574.461,74.15 L572.738,75.798 L574.73,78.525 L573.852,78.525 L572.234,76.267 L571.699,76.771 L571.699,78.525 L570.957,78.525 z" fill="#ffffff"/>
    <path d="M576.371,76.947 L577.746,76.947 L577.746,78.525 L576.371,78.525 z" fill="#ffffff"/>
    <path d="M583.812,78.302 Q583.523,78.47 583.217,78.554 Q582.91,78.638 582.59,78.638 Q581.574,78.638 581.002,78.029 Q580.43,77.419 580.43,76.341 Q580.43,75.263 581.002,74.654 Q581.574,74.044 582.59,74.044 Q582.906,74.044 583.207,74.126 Q583.508,74.209 583.812,74.38 L583.812,75.134 Q583.527,74.88 583.24,74.767 Q582.953,74.654 582.59,74.654 Q581.914,74.654 581.551,75.091 Q581.187,75.529 581.187,76.341 Q581.187,77.15 581.553,77.589 Q581.918,78.029 582.59,78.029 Q582.965,78.029 583.262,77.914 Q583.559,77.798 583.812,77.556 z" fill="#ffffff"/>
    <path d="M586.891,74.654 Q586.344,74.654 586.062,75.08 Q585.781,75.505 585.781,76.341 Q585.781,77.173 586.062,77.601 Q586.344,78.029 586.891,78.029 Q587.441,78.029 587.723,77.601 Q588.004,77.173 588.004,76.341 Q588.004,75.505 587.723,75.08 Q587.441,74.654 586.891,74.654 z M586.891,74.044 Q587.801,74.044 588.283,74.634 Q588.766,75.224 588.766,76.341 Q588.766,77.462 588.285,78.05 Q587.805,78.638 586.891,78.638 Q585.98,78.638 585.5,78.05 Q585.019,77.462 585.019,76.341 Q585.019,75.224 585.5,74.634 Q585.98,74.044 586.891,74.044 z" fill="#ffffff"/>
    <path d="M591.941,74.595 Q592.074,74.314 592.279,74.179 Q592.484,74.044 592.773,74.044 Q593.301,74.044 593.518,74.453 Q593.734,74.861 593.734,75.99 L593.734,78.525 L593.078,78.525 L593.078,76.021 Q593.078,75.095 592.975,74.871 Q592.871,74.646 592.598,74.646 Q592.285,74.646 592.17,74.886 Q592.055,75.126 592.055,76.021 L592.055,78.525 L591.398,78.525 L591.398,76.021 Q591.398,75.084 591.287,74.865 Q591.176,74.646 590.887,74.646 Q590.602,74.646 590.49,74.886 Q590.379,75.126 590.379,76.021 L590.379,78.525 L589.727,78.525 L589.727,74.15 L590.379,74.15 L590.379,74.525 Q590.508,74.291 590.701,74.167 Q590.894,74.044 591.141,74.044 Q591.437,74.044 591.635,74.181 Q591.832,74.318 591.941,74.595 z" fill="#ffffff"/>
    <path d="M536.84,86.06 L538.215,86.06 L538.215,87.638 L536.84,87.638 z" fill="#ffffff"/>
    <path d="M541.656,86.06 L543.031,86.06 L543.031,87.638 L541.656,87.638 z" fill="#ffffff"/>
    <path d="M546.473,86.06 L547.848,86.06 L547.848,87.638 L546.473,87.638 z" fill="#ffffff"/>
    <path d="M537.58,156.379 L538.769,156.379 L538.769,164.131 L542.994,164.131 L542.994,165.127 L537.58,165.127 z" fill="#ffffff"/>
    <path d="M548.848,160.761 Q548.848,158.834 548.452,158.008 Q548.057,157.181 547.154,157.181 Q546.258,157.181 545.862,158.008 Q545.467,158.834 545.467,160.761 Q545.467,162.683 545.862,163.509 Q546.258,164.336 547.154,164.336 Q548.057,164.336 548.452,163.512 Q548.848,162.689 548.848,160.761 z M550.084,160.761 Q550.084,163.047 549.36,164.172 Q548.637,165.297 547.154,165.297 Q545.672,165.297 544.951,164.177 Q544.23,163.058 544.23,160.761 Q544.23,158.47 544.954,157.345 Q545.678,156.22 547.154,156.22 Q548.637,156.22 549.36,157.345 Q550.084,158.47 550.084,160.761 z" fill="#ffffff"/>
    <path d="M557.057,164.816 Q556.605,165.056 556.131,165.176 Q555.656,165.297 555.123,165.297 Q553.441,165.297 552.513,164.107 Q551.584,162.918 551.584,160.761 Q551.584,158.617 552.518,157.419 Q553.453,156.22 555.123,156.22 Q555.656,156.22 556.131,156.341 Q556.605,156.461 557.057,156.701 L557.057,157.914 Q556.623,157.556 556.125,157.369 Q555.627,157.181 555.123,157.181 Q553.969,157.181 553.394,158.072 Q552.82,158.963 552.82,160.761 Q552.82,162.554 553.394,163.445 Q553.969,164.336 555.123,164.336 Q555.639,164.336 556.134,164.148 Q556.629,163.961 557.057,163.603 z" fill="#ffffff"/>
    <path d="M561.603,157.422 L560.355,161.898 L562.852,161.898 z M560.889,156.379 L562.324,156.379 L565.002,165.127 L563.777,165.127 L563.133,162.847 L560.068,162.847 L559.435,165.127 L558.211,165.127 z" fill="#ffffff"/>
    <path d="M566.478,156.379 L567.668,156.379 L567.668,164.131 L571.893,164.131 L571.893,165.127 L566.478,165.127 z" fill="#ffffff"/>
    <path d="M537.375,183.467 L538.602,183.467 L538.602,179.06 L537.133,179.767 L537.133,179.009 L538.594,178.314 L539.383,178.314 L539.383,183.467 L540.594,183.467 L540.594,184.127 L537.375,184.127 z" fill="#ffffff"/>
    <path d="M542.594,183.463 L545.273,183.463 L545.273,184.127 L541.73,184.127 L541.73,183.463 Q542.461,182.693 543.008,182.103 Q543.555,181.513 543.762,181.271 Q544.152,180.795 544.289,180.5 Q544.426,180.205 544.426,179.896 Q544.426,179.408 544.139,179.131 Q543.852,178.853 543.352,178.853 Q542.996,178.853 542.605,178.982 Q542.215,179.111 541.777,179.373 L541.777,178.576 Q542.18,178.384 542.568,178.287 Q542.957,178.189 543.336,178.189 Q544.191,178.189 544.713,178.644 Q545.234,179.099 545.234,179.838 Q545.234,180.213 545.06,180.588 Q544.887,180.963 544.496,181.416 Q544.277,181.67 543.861,182.119 Q543.445,182.568 542.594,183.463 z" fill="#ffffff"/>
    <path d="M546.496,178.295 L550.168,178.295 L550.168,178.631 L548.082,184.127 L547.258,184.127 L549.289,178.959 L546.496,178.959 z" fill="#ffffff"/>
    <path d="M552.289,182.549 L553.664,182.549 L553.664,184.127 L552.289,184.127 z" fill="#ffffff"/>
    <path d="M557.992,178.209 Q558.926,178.209 559.404,178.97 Q559.883,179.732 559.883,181.224 Q559.883,182.717 559.404,183.478 Q558.926,184.24 557.992,184.24 Q557.059,184.24 556.582,183.478 Q556.105,182.717 556.105,181.224 Q556.105,179.732 556.582,178.97 Q557.059,178.209 557.992,178.209 z M557.992,183.615 Q558.547,183.615 558.818,183.025 Q559.09,182.435 559.09,181.224 Q559.09,180.58 559.012,180.06 L557.152,182.97 Q557.445,183.615 557.992,183.615 z M557.992,178.834 Q557.441,178.834 557.17,179.424 Q556.898,180.013 556.898,181.224 Q556.898,181.775 556.973,182.256 L558.793,179.353 Q558.496,178.834 557.992,178.834 z" fill="#ffffff"/>
    <path d="M561.922,182.549 L563.297,182.549 L563.297,184.127 L561.922,184.127 z" fill="#ffffff"/>
    <path d="M567.625,178.209 Q568.559,178.209 569.037,178.97 Q569.516,179.732 569.516,181.224 Q569.516,182.717 569.037,183.478 Q568.559,184.24 567.625,184.24 Q566.691,184.24 566.215,183.478 Q565.738,182.717 565.738,181.224 Q565.738,179.732 566.215,178.97 Q566.691,178.209 567.625,178.209 z M567.625,183.615 Q568.18,183.615 568.451,183.025 Q568.723,182.435 568.723,181.224 Q568.723,180.58 568.644,180.06 L566.785,182.97 Q567.078,183.615 567.625,183.615 z M567.625,178.834 Q567.074,178.834 566.803,179.424 Q566.531,180.013 566.531,181.224 Q566.531,181.775 566.605,182.256 L568.426,179.353 Q568.129,178.834 567.625,178.834 z" fill="#ffffff"/>
    <path d="M571.555,182.549 L572.93,182.549 L572.93,184.127 L571.555,184.127 z" fill="#ffffff"/>
    <path d="M575.906,183.467 L577.133,183.467 L577.133,179.06 L575.664,179.767 L575.664,179.009 L577.125,178.314 L577.914,178.314 L577.914,183.467 L579.125,183.467 L579.125,184.127 L575.906,184.127 z" fill="#ffffff"/>
    <path d="M537.375,192.467 L538.602,192.467 L538.602,188.06 L537.133,188.767 L537.133,188.009 L538.594,187.314 L539.383,187.314 L539.383,192.467 L540.594,192.467 L540.594,193.127 L537.375,193.127 z" fill="#ffffff"/>
    <path d="M543.465,190.541 Q543.969,190.541 544.256,190.177 Q544.543,189.814 544.543,189.174 Q544.543,188.533 544.256,188.17 Q543.969,187.806 543.465,187.806 Q542.941,187.806 542.676,188.152 Q542.41,188.498 542.41,189.174 Q542.41,189.853 542.674,190.197 Q542.937,190.541 543.465,190.541 z M542.059,193.006 L542.059,192.279 Q542.305,192.424 542.582,192.5 Q542.859,192.576 543.16,192.576 Q543.91,192.576 544.295,192.011 Q544.68,191.447 544.68,190.349 Q544.496,190.74 544.164,190.949 Q543.832,191.158 543.402,191.158 Q542.559,191.158 542.096,190.638 Q541.633,190.119 541.633,189.166 Q541.633,188.224 542.107,187.707 Q542.582,187.189 543.449,187.189 Q544.465,187.189 544.937,187.92 Q545.41,188.65 545.41,190.217 Q545.41,191.689 544.842,192.465 Q544.273,193.24 543.191,193.24 Q542.906,193.24 542.617,193.179 Q542.328,193.119 542.059,193.006 z" fill="#ffffff"/>
    <path d="M547.41,192.463 L550.09,192.463 L550.09,193.127 L546.547,193.127 L546.547,192.463 Q547.277,191.693 547.824,191.103 Q548.371,190.513 548.578,190.271 Q548.969,189.795 549.105,189.5 Q549.242,189.205 549.242,188.896 Q549.242,188.408 548.955,188.131 Q548.668,187.853 548.168,187.853 Q547.812,187.853 547.422,187.982 Q547.031,188.111 546.594,188.373 L546.594,187.576 Q546.996,187.384 547.385,187.287 Q547.773,187.189 548.152,187.189 Q549.008,187.189 549.529,187.644 Q550.051,188.099 550.051,188.838 Q550.051,189.213 549.877,189.588 Q549.703,189.963 549.312,190.416 Q549.094,190.67 548.678,191.119 Q548.262,191.568 547.41,192.463 z" fill="#ffffff"/>
    <path d="M552.289,191.549 L553.664,191.549 L553.664,193.127 L552.289,193.127 z" fill="#ffffff"/>
    <path d="M556.641,192.467 L557.867,192.467 L557.867,188.06 L556.398,188.767 L556.398,188.009 L557.859,187.314 L558.648,187.314 L558.648,192.467 L559.859,192.467 L559.859,193.127 L556.641,193.127 z" fill="#ffffff"/>
    <path d="M564.273,187.424 L564.273,188.15 Q564.027,188.006 563.75,187.929 Q563.473,187.853 563.172,187.853 Q562.422,187.853 562.035,188.418 Q561.648,188.982 561.648,190.08 Q561.836,189.689 562.168,189.48 Q562.5,189.271 562.93,189.271 Q563.773,189.271 564.236,189.789 Q564.699,190.306 564.699,191.256 Q564.699,192.201 564.223,192.72 Q563.746,193.24 562.883,193.24 Q561.867,193.24 561.394,192.511 Q560.922,191.783 560.922,190.217 Q560.922,188.74 561.49,187.965 Q562.059,187.189 563.137,187.189 Q563.426,187.189 563.715,187.25 Q564.004,187.31 564.273,187.424 z M562.867,189.888 Q562.363,189.888 562.074,190.252 Q561.785,190.615 561.785,191.256 Q561.785,191.896 562.074,192.259 Q562.363,192.623 562.867,192.623 Q563.391,192.623 563.656,192.277 Q563.922,191.931 563.922,191.256 Q563.922,190.576 563.656,190.232 Q563.391,189.888 562.867,189.888 z" fill="#ffffff"/>
    <path d="M567.625,190.357 Q567.098,190.357 566.81,190.652 Q566.523,190.947 566.523,191.486 Q566.523,192.025 566.814,192.324 Q567.105,192.623 567.625,192.623 Q568.156,192.623 568.443,192.328 Q568.73,192.033 568.73,191.486 Q568.73,190.951 568.439,190.654 Q568.148,190.357 567.625,190.357 z M566.937,190.029 Q566.434,189.9 566.15,189.549 Q565.867,189.197 565.867,188.701 Q565.867,188.006 566.34,187.597 Q566.812,187.189 567.625,187.189 Q568.441,187.189 568.914,187.597 Q569.387,188.006 569.387,188.701 Q569.387,189.197 569.103,189.549 Q568.82,189.9 568.316,190.029 Q568.902,190.158 569.213,190.549 Q569.523,190.939 569.523,191.56 Q569.523,192.349 569.019,192.795 Q568.516,193.24 567.625,193.24 Q566.734,193.24 566.232,192.797 Q565.73,192.353 565.73,191.568 Q565.73,190.943 566.041,190.55 Q566.352,190.158 566.937,190.029 z M566.652,188.775 Q566.652,189.244 566.902,189.49 Q567.152,189.736 567.625,189.736 Q568.102,189.736 568.352,189.49 Q568.602,189.244 568.602,188.775 Q568.602,188.299 568.353,188.049 Q568.105,187.799 567.625,187.799 Q567.152,187.799 566.902,188.05 Q566.652,188.302 566.652,188.775 z" fill="#ffffff"/>
    <path d="M571.555,191.549 L572.93,191.549 L572.93,193.127 L571.555,193.127 z" fill="#ffffff"/>
    <path d="M577.258,187.209 Q578.191,187.209 578.67,187.97 Q579.148,188.732 579.148,190.224 Q579.148,191.717 578.67,192.478 Q578.191,193.24 577.258,193.24 Q576.324,193.24 575.848,192.478 Q575.371,191.717 575.371,190.224 Q575.371,188.732 575.848,187.97 Q576.324,187.209 577.258,187.209 z M577.258,192.615 Q577.812,192.615 578.084,192.025 Q578.355,191.435 578.355,190.224 Q578.355,189.58 578.277,189.06 L576.418,191.97 Q576.711,192.615 577.258,192.615 z M577.258,187.834 Q576.707,187.834 576.435,188.424 Q576.164,189.013 576.164,190.224 Q576.164,190.775 576.238,191.256 L578.059,188.353 Q577.762,187.834 577.258,187.834 z" fill="#ffffff"/>
    <path d="M581.187,191.549 L582.562,191.549 L582.562,193.127 L581.187,193.127 z" fill="#ffffff"/>
    <path d="M585.539,192.467 L586.766,192.467 L586.766,188.06 L585.297,188.767 L585.297,188.009 L586.758,187.314 L587.547,187.314 L587.547,192.467 L588.758,192.467 L588.758,193.127 L585.539,193.127 z" fill="#ffffff"/>
    <path d="M537.375,201.467 L538.602,201.467 L538.602,197.06 L537.133,197.767 L537.133,197.009 L538.594,196.314 L539.383,196.314 L539.383,201.467 L540.594,201.467 L540.594,202.127 L537.375,202.127 z" fill="#ffffff"/>
    <path d="M543.543,196.209 Q544.477,196.209 544.955,196.97 Q545.434,197.732 545.434,199.224 Q545.434,200.717 544.955,201.478 Q544.477,202.24 543.543,202.24 Q542.609,202.24 542.133,201.478 Q541.656,200.717 541.656,199.224 Q541.656,197.732 542.133,196.97 Q542.609,196.209 543.543,196.209 z M543.543,201.615 Q544.098,201.615 544.369,201.025 Q544.641,200.435 544.641,199.224 Q544.641,198.58 544.562,198.06 L542.703,200.97 Q542.996,201.615 543.543,201.615 z M543.543,196.834 Q542.992,196.834 542.721,197.424 Q542.449,198.013 542.449,199.224 Q542.449,199.775 542.523,200.256 L544.344,197.353 Q544.047,196.834 543.543,196.834 z" fill="#ffffff"/>
    <path d="M547.473,200.549 L548.848,200.549 L548.848,202.127 L547.473,202.127 z" fill="#ffffff"/>
    <path d="M551.824,201.467 L553.051,201.467 L553.051,197.06 L551.582,197.767 L551.582,197.009 L553.043,196.314 L553.832,196.314 L553.832,201.467 L555.043,201.467 L555.043,202.127 L551.824,202.127 z" fill="#ffffff"/>
    <path d="M557.992,196.209 Q558.926,196.209 559.404,196.97 Q559.883,197.732 559.883,199.224 Q559.883,200.717 559.404,201.478 Q558.926,202.24 557.992,202.24 Q557.059,202.24 556.582,201.478 Q556.105,200.717 556.105,199.224 Q556.105,197.732 556.582,196.97 Q557.059,196.209 557.992,196.209 z M557.992,201.615 Q558.547,201.615 558.818,201.025 Q559.09,200.435 559.09,199.224 Q559.09,198.58 559.012,198.06 L557.152,200.97 Q557.445,201.615 557.992,201.615 z M557.992,196.834 Q557.441,196.834 557.17,197.424 Q556.898,198.013 556.898,199.224 Q556.898,199.775 556.973,200.256 L558.793,197.353 Q558.496,196.834 557.992,196.834 z" fill="#ffffff"/>
    <path d="M561.922,200.549 L563.297,200.549 L563.297,202.127 L561.922,202.127 z" fill="#ffffff"/>
    <path d="M566.273,201.467 L567.5,201.467 L567.5,197.06 L566.031,197.767 L566.031,197.009 L567.492,196.314 L568.281,196.314 L568.281,201.467 L569.492,201.467 L569.492,202.127 L566.273,202.127 z" fill="#ffffff"/>
    <path d="M572.441,196.209 Q573.375,196.209 573.853,196.97 Q574.332,197.732 574.332,199.224 Q574.332,200.717 573.853,201.478 Q573.375,202.24 572.441,202.24 Q571.508,202.24 571.031,201.478 Q570.555,200.717 570.555,199.224 Q570.555,197.732 571.031,196.97 Q571.508,196.209 572.441,196.209 z M572.441,201.615 Q572.996,201.615 573.268,201.025 Q573.539,200.435 573.539,199.224 Q573.539,198.58 573.461,198.06 L571.602,200.97 Q571.894,201.615 572.441,201.615 z M572.441,196.834 Q571.891,196.834 571.619,197.424 Q571.348,198.013 571.348,199.224 Q571.348,199.775 571.422,200.256 L573.242,197.353 Q572.945,196.834 572.441,196.834 z" fill="#ffffff"/>
    <path d="M576.371,200.549 L577.746,200.549 L577.746,202.127 L576.371,202.127 z" fill="#ffffff"/>
    <path d="M580.477,196.295 L583.43,196.295 L583.43,196.959 L581.195,196.959 L581.195,198.392 Q581.363,198.33 581.533,198.3 Q581.703,198.271 581.875,198.271 Q582.781,198.271 583.312,198.806 Q583.844,199.342 583.844,200.256 Q583.844,201.177 583.287,201.709 Q582.73,202.24 581.766,202.24 Q581.301,202.24 580.916,202.177 Q580.531,202.115 580.227,201.99 L580.227,201.189 Q580.586,201.384 580.949,201.48 Q581.312,201.576 581.691,201.576 Q582.344,201.576 582.697,201.232 Q583.051,200.888 583.051,200.256 Q583.051,199.631 582.685,199.283 Q582.32,198.935 581.668,198.935 Q581.352,198.935 581.051,199.008 Q580.75,199.08 580.477,199.224 z" fill="#ffffff"/>
    <path d="M586.891,196.209 Q587.824,196.209 588.303,196.97 Q588.781,197.732 588.781,199.224 Q588.781,200.717 588.303,201.478 Q587.824,202.24 586.891,202.24 Q585.957,202.24 585.48,201.478 Q585.004,200.717 585.004,199.224 Q585.004,197.732 585.48,196.97 Q585.957,196.209 586.891,196.209 z M586.891,201.615 Q587.445,201.615 587.717,201.025 Q587.988,200.435 587.988,199.224 Q587.988,198.58 587.91,198.06 L586.051,200.97 Q586.344,201.615 586.891,201.615 z M586.891,196.834 Q586.34,196.834 586.068,197.424 Q585.797,198.013 585.797,199.224 Q585.797,199.775 585.871,200.256 L587.691,197.353 Q587.394,196.834 586.891,196.834 z" fill="#ffffff"/>
    <path d="M537.082,209.662 L538.457,209.662 L538.457,211.24 L537.082,211.24 z" fill="#ffffff"/>
    <path d="M541.898,209.662 L543.273,209.662 L543.273,211.24 L541.898,211.24 z" fill="#ffffff"/>
    <path d="M546.715,209.662 L548.09,209.662 L548.09,211.24 L546.715,211.24 z" fill="#ffffff"/>
  </g>
</svg>
