<svg id="MKTG_ICN_1" data-name="MKTG ICN 1" xmlns="http://www.w3.org/2000/svg" viewBox="0 0 1024 1024"><defs><style>.cls-1{fill:none;stroke:#65a637;stroke-linecap:round;stroke-linejoin:round;stroke-width:25px;}</style></defs><title>Machine Learning Analytics</title><path class="cls-1" d="M560.47,303.33A38.71,38.71,0,1,0,599.19,342,38.7,38.7,0,0,0,560.47,303.33Z"/><path class="cls-1" d="M362.11,445.71a38.71,38.71,0,1,0,38.72,38.7A38.7,38.7,0,0,0,362.11,445.71Z"/><path class="cls-1" d="M791.21,559.14s-71.56-113.73-70.5-117.56C817.6,70.69,43.39,101.08,276.91,557.81c37.46,65.07,53.51,278.69,53.51,278.69H588.07l11.27-98c40.7,27.25,133.31,6.11,128.25-58.18s28.94-103.69,28.94-103.69Z"/><polyline class="cls-1" points="590.5 489.5 532.5 489.5 532.5 664.5 487.5 664.5"/><path class="cls-1" d="M591.65,488.83a38.7,38.7,0,1,0,38.72-38.7A38.71,38.71,0,0,0,591.65,488.83Z"/><polyline class="cls-1" points="388.61 511.58 423.5 546.39 423.5 828.5"/><polyline class="cls-1" points="532.43 370.96 477.5 425.89 477.5 832.5"/><circle class="cls-1" cx="512" cy="512" r="496.5"/></svg>