<svg id="Layer_1" data-name="Layer 1" xmlns="http://www.w3.org/2000/svg" xmlns:xlink="http://www.w3.org/1999/xlink" viewBox="0 0 2989.86 2990.56"><defs><linearGradient id="New_Gradient_Swatch_1" x1="413.56" y1="2593.56" x2="2663.06" y2="344.07" gradientUnits="userSpaceOnUse"><stop offset="0.1" stop-color="#c6192e"/><stop offset="0.9" stop-color="#13b3b6"/></linearGradient></defs><title>rdw_accuracy_icon</title><path d="M2319.59,472.3c0-51,.24-102-.15-153-.1-13,3.82-23.25,13.53-31.81,23.5-20.7,46.76-41.65,70.15-62.48q30.21-26.91,60.49-53.78,41.11-36.47,82.27-72.89c20.42-18.14,40.76-36.38,61.18-54.52,10.46-9.29,21-18.44,31.52-27.72,10-8.85,21.35-10.94,33.43-5.65,12.41,5.42,20.28,15,21.91,28.79a104,104,0,0,1,.25,12q0,123.5,0,247c0,15.7,0,15.72,16.12,15.72q124,0,248,0c7.06,0,13.91.42,20.38,3.82,19.52,10.24,26.1,40,10,57.34-35.79,38.56-70,78.57-105,117.9-24.58,27.63-49.39,55-74,82.66q-35.89,40.29-71.53,80.81c-6,6.74-11.86,13.53-18,20.14-7.11,7.71-15.83,12-26.53,11.86-6.67-.1-13.34,0-20,0-97.33,0-194.66.12-292-.17-9.47,0-16.17,2.85-22.77,9.55-37,37.51-74.36,74.61-111.6,111.84-1.41,1.42-2.73,2.94-4.25,4.23-3.84,3.28-3.84,6.17-.28,10,10.64,11.47,21,23.25,31.39,34.93,31.33,35.1,59.95,72.35,86.9,110.87a1284.06,1284.06,0,0,1,207.22,487.88c7.48,38.28,13.37,76.82,17.34,115.59,2.27,22.17,3.64,44.46,5,66.73,1.66,26.33,1.38,52.62,1.52,78.94.22,43-2.92,85.83-7.5,128.59a1264.74,1264.74,0,0,1-33.94,185.65,1287.2,1287.2,0,0,1-217.87,449.69q-37.64,49.89-80,95.94A1290.16,1290.16,0,0,1,1507,2981.52c-38.15,6.15-76.51,10.77-115.13,13.11-25.94,1.58-51.86,3.27-77.85,3.48a1343.7,1343.7,0,0,1-167.51-9.34,1283.47,1283.47,0,0,1-522.65-182A1307.79,1307.79,0,0,1,440.5,2670.21,1288.48,1288.48,0,0,1,18.13,1868.73c-4.67-36.68-7.48-73.52-9-110.52-1-25.33-1.66-50.64-1-75.94A1368.59,1368.59,0,0,1,19,1538.87a1298.46,1298.46,0,0,1,40.55-193.51A1285.76,1285.76,0,0,1,234.76,976.71a1265.71,1265.71,0,0,1,96.61-123.56c22.58-25.44,45.83-50.23,70.35-73.79A1329.22,1329.22,0,0,1,553.1,653.71,1312.59,1312.59,0,0,1,716.39,555a1247.69,1247.69,0,0,1,141.16-61.25A1282.33,1282.33,0,0,1,1055.86,439q62.37-11.91,125.63-17.58c39.83-3.57,79.71-5.7,119.72-5.63a1358.22,1358.22,0,0,1,136.6,7.53,1273.15,1273.15,0,0,1,388.34,104.52c66.37,29.92,130.12,64.62,190.54,105.29,50.09,33.73,98,70.28,142.84,110.82,7.66,6.92,15.31,13.86,22.83,20.94,5.38,5.06,5.89,4.93,11.45-.19,1-.9,1.89-1.87,2.84-2.82,38.19-38.16,76.28-76.44,114.7-114.39,5.93-5.86,8.44-11.88,8.39-20.21C2319.43,575.63,2319.58,524,2319.59,472.3Zm202.54,1228.43c1.17-39.19-1.77-84.74-6.74-130.13a1194,1194,0,0,0-19.73-121.29,1213.7,1213.7,0,0,0-207.48-462.77A1177.44,1177.44,0,0,0,2195.84,875c-6.56-7-6.85-6.89-13.37-.38q-77.13,77-154.17,154.12c-6.73,6.74-6.68,7-.52,13.68,38.17,41.16,72,85.61,102.53,132.73a977.62,977.62,0,0,1,155.38,484.62c2.62,55.62,1.08,111.29-6,166.63a1027.25,1027.25,0,0,1-28.1,142.08,984.35,984.35,0,0,1-145.36,306.51,1011.82,1011.82,0,0,1-94.13,114,992.43,992.43,0,0,1-80.45,74.89,985.37,985.37,0,0,1-590.91,227.92,963.58,963.58,0,0,1-124.83-2.95,1011,1011,0,0,1-149.78-24.47,971.79,971.79,0,0,1-240.6-93.64,994.14,994.14,0,0,1-300-254.3,980,980,0,0,1-171.24-329.88,990.13,990.13,0,0,1-40.26-258c-.58-24,0-47.94,1.22-71.94a979.51,979.51,0,0,1,114.41-412.77c45.24-84.7,101.94-160.86,169-229.4,21.46-21.92,44.26-42.4,67.71-62.17A983.63,983.63,0,0,1,849,830.5c57.3-29.67,117.14-53,179.1-71a961.82,961.82,0,0,1,227.32-37.19,986.7,986.7,0,0,1,170.56,7,1008.3,1008.3,0,0,1,173.55,38.21A963.75,963.75,0,0,1,1762.5,836a1002.53,1002.53,0,0,1,152.83,100.12c17.49,13.89,34.19,28.69,51.05,43.32,6,5.18,6.87,5.16,12.53.05,1.72-1.56,3.32-3.27,5-4.92q72.16-72.09,144.3-144.2c1.65-1.64,3.35-3.25,4.93-5,5.57-6,5.46-7.32-.66-12.87-17.76-16.12-35.65-32.08-54.14-47.38a1219.61,1219.61,0,0,0-428.37-228.82A1199.67,1199.67,0,0,0,1354,486.68c-58.58-2.37-117.21-1.16-175.7,5-52.78,5.53-105.06,13.67-156.7,25.74A1210.46,1210.46,0,0,0,681.29,653.51a1226.61,1226.61,0,0,0-247.43,191.8c-17.9,17.94-35,36.57-51.82,55.54a1215,1215,0,0,0-242.88,423.92,1219.81,1219.81,0,0,0-47.92,204.12,1256.45,1256.45,0,0,0-12.65,151.26c-.65,27-.16,53.94,1.09,80.94a1271.46,1271.46,0,0,0,14.47,142.08c19.18,120,56,234.46,109.64,343.48a1182.79,1182.79,0,0,0,88,149.92c49.55,71.86,105.7,138,169.34,197.83A1246.29,1246.29,0,0,0,594,2703.33a1213.11,1213.11,0,0,0,524.79,211A1228.7,1228.7,0,0,0,1286,2927.58c23.64.24,47.27-.09,70.94-1.27q56.44-2.8,112.4-10.26A1189.67,1189.67,0,0,0,1689,2864.92a1220.7,1220.7,0,0,0,805.3-894.85,1278.16,1278.16,0,0,0,25.3-172.91C2522,1767.24,2522.23,1737.25,2522.13,1700.73ZM1301.22,791.93c-51.93-1.07-103.26,3.55-154.33,12A898.29,898.29,0,0,0,858.41,904.35Q715.69,983.06,608.55,1106.2a920.84,920.84,0,0,0-122.77,180.64,911.55,911.55,0,0,0-101.09,386.54c-1.08,28.27-.61,56.59,1,84.93a936,936,0,0,0,20.17,147.34,896.77,896.77,0,0,0,105.24,266.68,914.93,914.93,0,0,0,585.13,427.13,901.18,901.18,0,0,0,161.21,21.79,946.47,946.47,0,0,0,100.91-1,921,921,0,0,0,122.8-15.8A916.41,916.41,0,0,0,2132.59,2091,920.43,920.43,0,0,0,2196.72,1899a893.18,893.18,0,0,0,18.65-137.51c1.78-31.23,1.78-62.55.7-93.86-.5-14.67-1.49-29.3-2.81-43.86a909.48,909.48,0,0,0-171.48-455.64,984.43,984.43,0,0,0-64.47-78.92c-3.16-3.52-5.76-4.13-9-.51-.88,1-1.89,1.88-2.84,2.82-36.57,36-72.43,72.72-109.42,108.31-30.73,29.58-60.52,60.15-90.72,90.28-1.65,1.65-3.23,3.38-4.95,5-3.08,2.79-3,5.62-.42,8.69,5.16,6.1,10.35,12.19,15.4,18.39q85.64,105.08,119.24,236.43c13.32,52.27,18.92,105.42,18.05,159.41a616.55,616.55,0,0,1-12.53,114c-11.65,56.88-31.57,110.79-58.87,162a614.29,614.29,0,0,1-299.65,275.49,597.91,597.91,0,0,1-202.19,48.25c-42.24,2.55-84.54,1.29-126.63-5q-183.67-27.45-322-151.11A605.5,605.5,0,0,1,741,1956.41c-31.75-70.8-49.06-145-52.83-222.36a592.83,592.83,0,0,1,5.17-109.67q16.52-120.44,77.71-225.31a608.46,608.46,0,0,1,112.8-140.6,610.36,610.36,0,0,1,244.54-139.18c56-16.6,113.36-24.2,171.54-24.75a520.48,520.48,0,0,1,67.81,3.69c57.55,7,113.29,20.86,166.82,43.39a614.63,614.63,0,0,1,161.94,99.72c10.39,8.88,10.22,9.1,19.78-.45l195.9-195.81c11.46-11.46,11.45-11.46-.56-22-51-44.75-105.75-84.23-165.23-117.12-71.61-39.59-147-69.5-226.47-88.65C1448,800,1375.18,790.33,1301.22,791.93Zm-8.59,1456.46c24.63-.57,42.58-.55,60.56-2.21a530.59,530.59,0,0,0,187.47-53q118.14-58.36,196.7-164.53c44.07-59.81,74.88-125.81,91.51-198.28,11.08-48.28,16.11-97.11,13.48-146.74-1-19.66-2.37-39.26-5.43-58.66q-24-152.36-124.17-269.8c-5.66-6.66-5.66-6.67-12.15-.4-.72.7-1.41,1.41-2.12,2.12l-245.36,245.3c-1.89,1.88-3.71,3.83-5.62,5.69-3,3-3.56,6.23-1.24,9.89,1.07,1.69,2.1,3.4,3.07,5.15,19.44,35,26.42,72.36,19.53,111.91-7.37,42.41-27.82,77.42-61.28,104.57-32.31,26.23-69.62,39.47-111,38.24-45.82-1.37-85.4-18.66-117.92-51.54-70.17-70.95-66.72-190.15,18.31-254.37,59-44.6,123.15-47.74,188.77-13.12,8.11,4.28,8.09,4.56,14.33-1.68q125.55-125.43,251-250.92c6.77-6.77,6.67-6.86-.48-12.87a551.15,551.15,0,0,0-129.85-81.73c-66-29.57-135.27-44.3-207.29-46.9-23.67-.85-47.26,1-70.81,3.35a526.86,526.86,0,0,0-184.28,53.39A535.28,535.28,0,0,0,899.74,1341,544,544,0,0,0,821,1452.55a533.09,533.09,0,0,0-61.21,211.62,554.44,554.44,0,0,0,5.78,133.43,529.89,529.89,0,0,0,62,175.31q71.79,126.81,197.27,201C1109.38,2223.69,1201,2248.71,1292.63,2248.39ZM2622.4,123.83a68.4,68.4,0,0,0-12.74,9.75c-8.86,8.07-17.71,16.17-26.69,24.12q-48.28,42.69-96.63,85.31c-29.19,25.82-58.19,51.87-87.53,77.51-7.24,6.34-10.83,13-10.78,23.11.41,87,.23,174,.24,261,0,15.17,0,15.19,15.58,15.19q130,0,260,0c2,0,4-.14,6,0,5.48.4,9.47-2,13-6,17-19.23,34.13-38.31,51.14-57.5q35.81-40.37,71.53-80.81c23.91-26.88,48-53.62,71.85-80.53,2.49-2.8,5.78-5.44,6-9.77-4.29-2-8.34-1.18-12.27-1.18q-100-.09-200,0c-3.33,0-6.67.09-10-.09-20.07-1.08-33.84-14.67-35.74-34.69-.86-9-1.22-17.94-1.22-26.94q.06-93,0-186C2624.15,132.42,2625,128.37,2622.4,123.83ZM1393.35,1666.26c-5.09.88-7,4.32-9.5,6.8q-26.28,26-52.36,52.28c-4.49,4.51-9.18,8.74-14.92,11.62-12.09,6.06-29.08,4.53-38.65-4-11.27-10.08-14.57-22.67-10.4-37.2,2-6.93,6-12.47,11.12-17.5q29.11-28.87,58-58c4.66-4.69,4.33-5.86-1.73-8.16-16.61-6.28-33.8-7.46-51.19-4.75-49,7.62-85,52.36-84,101.72,1.46,71.42,75.64,120.06,143,89.18,38.19-17.49,56.71-49.11,58.66-90.51C1402.07,1693.4,1398.9,1679.5,1393.35,1666.26Z" transform="translate(-7.88 -7.59)" style="fill:url(#New_Gradient_Swatch_1)"/></svg>